M48
;DRILL file {KiCad (5.0.1)-rc2} date 08/26/20 14:01:24
;FORMAT={-:-/ absolute / metric / decimal}
FMAT,2
METRIC,TZ
T1C0.400
T2C0.800
T3C1.000
T4C1.016
T5C3.000
%
G90
G05
M71
T1
X53.11Y31.938
X55.432Y11.357
X56.106Y37.033
T2
X31.645Y37.81
X31.645Y35.27
X31.645Y32.73
X31.645Y30.19
X31.645Y27.65
X31.645Y25.11
X31.645Y22.57
X31.645Y20.03
X44.345Y37.81
X44.345Y35.27
X44.345Y32.73
X44.345Y30.19
X44.345Y27.65
X44.345Y25.11
X44.345Y22.57
X44.345Y20.03
X13.23Y38.445
X13.23Y35.905
X13.23Y33.365
X13.23Y30.825
X13.23Y28.285
X13.23Y25.745
X13.23Y23.205
X13.23Y20.665
X13.23Y18.125
X13.23Y15.585
X13.23Y13.045
X13.23Y10.505
X13.23Y7.965
X13.23Y5.425
X20.85Y38.445
X20.85Y35.905
X20.85Y33.365
X20.85Y30.825
X20.85Y28.285
X20.85Y25.745
X20.85Y23.205
X20.85Y20.665
X20.85Y18.125
X20.85Y15.585
X20.85Y13.045
X20.85Y10.505
X20.85Y7.965
X20.85Y5.425
X6.975Y23.76
X6.975Y18.88
T3
X59.Y12.08
X59.Y9.54
X59.Y7.
X63.475Y37.175
X63.475Y34.635
X63.475Y32.095
X63.475Y29.555
X63.475Y27.015
X63.475Y24.475
X74.636Y38.76
X74.636Y36.22
X74.636Y26.905
X74.636Y24.365
X74.636Y21.825
X74.636Y19.285
T4
X93.Y28.
X93.Y25.46
X93.Y22.92
X93.Y20.38
X93.Y17.84
X93.Y15.3
X95.54Y28.
X95.54Y25.46
X95.54Y22.92
X95.54Y20.38
X95.54Y17.84
X95.54Y15.3
T5
X96.Y44.
X4.Y44.
X4.Y4.
X96.Y4.
T3
X82.3Y41.365G85X82.3Y39.365
G05
X88.Y43.365G85X86.Y43.365
G05
X88.Y37.365G85X86.Y37.365
G05
T0
M30
