G04 #@! TF.GenerationSoftware,KiCad,Pcbnew,(5.0.1)-rc2*
G04 #@! TF.CreationDate,2020-08-26T14:01:22+08:00*
G04 #@! TF.ProjectId,Peristaltic Pump PCB,506572697374616C7469632050756D70,rev?*
G04 #@! TF.SameCoordinates,PX2ebae40PY9d5b340*
G04 #@! TF.FileFunction,Copper,L2,Bot,Signal*
G04 #@! TF.FilePolarity,Positive*
%FSLAX46Y46*%
G04 Gerber Fmt 4.6, Leading zero omitted, Abs format (unit mm)*
G04 Created by KiCad (PCBNEW (5.0.1)-rc2) date 08/26/20 14:01:22*
%MOMM*%
%LPD*%
G01*
G04 APERTURE LIST*
G04 #@! TA.AperFunction,ComponentPad*
%ADD10C,1.800000*%
G04 #@! TD*
G04 #@! TA.AperFunction,ComponentPad*
%ADD11R,2.500000X1.700000*%
G04 #@! TD*
G04 #@! TA.AperFunction,ComponentPad*
%ADD12O,2.500000X1.700000*%
G04 #@! TD*
G04 #@! TA.AperFunction,ComponentPad*
%ADD13O,2.500000X1.600000*%
G04 #@! TD*
G04 #@! TA.AperFunction,ComponentPad*
%ADD14R,2.500000X1.600000*%
G04 #@! TD*
G04 #@! TA.AperFunction,ComponentPad*
%ADD15R,3.500000X3.500000*%
G04 #@! TD*
G04 #@! TA.AperFunction,Conductor*
%ADD16C,0.100000*%
G04 #@! TD*
G04 #@! TA.AperFunction,ComponentPad*
%ADD17C,3.000000*%
G04 #@! TD*
G04 #@! TA.AperFunction,ComponentPad*
%ADD18C,3.500000*%
G04 #@! TD*
G04 #@! TA.AperFunction,ComponentPad*
%ADD19R,2.600000X1.600000*%
G04 #@! TD*
G04 #@! TA.AperFunction,ComponentPad*
%ADD20O,2.600000X1.600000*%
G04 #@! TD*
G04 #@! TA.AperFunction,ComponentPad*
%ADD21R,3.000000X1.800000*%
G04 #@! TD*
G04 #@! TA.AperFunction,ComponentPad*
%ADD22O,3.000000X1.800000*%
G04 #@! TD*
G04 #@! TA.AperFunction,ViaPad*
%ADD23C,0.800000*%
G04 #@! TD*
G04 #@! TA.AperFunction,Conductor*
%ADD24C,0.400000*%
G04 #@! TD*
G04 #@! TA.AperFunction,Conductor*
%ADD25C,0.800000*%
G04 #@! TD*
G04 #@! TA.AperFunction,Conductor*
%ADD26C,0.254000*%
G04 #@! TD*
G04 APERTURE END LIST*
D10*
G04 #@! TO.P,Y1,1*
G04 #@! TO.N,/XTAL1*
X6975000Y23760000D03*
G04 #@! TO.P,Y1,2*
G04 #@! TO.N,/XTAL2*
X6975000Y18880000D03*
G04 #@! TD*
D11*
G04 #@! TO.P,J1,1*
G04 #@! TO.N,/DTR*
X63475000Y37175000D03*
D12*
G04 #@! TO.P,J1,2*
G04 #@! TO.N,/TXD*
X63475000Y34635000D03*
G04 #@! TO.P,J1,3*
G04 #@! TO.N,/RXD*
X63475000Y32095000D03*
G04 #@! TO.P,J1,4*
G04 #@! TO.N,+5V*
X63475000Y29555000D03*
G04 #@! TO.P,J1,5*
G04 #@! TO.N,N/C*
X63475000Y27015000D03*
G04 #@! TO.P,J1,6*
G04 #@! TO.N,GND*
X63475000Y24475000D03*
G04 #@! TD*
D13*
G04 #@! TO.P,U1,28*
G04 #@! TO.N,N/C*
X20850000Y38445000D03*
G04 #@! TO.P,U1,14*
G04 #@! TO.N,/D8*
X13230000Y5425000D03*
G04 #@! TO.P,U1,27*
G04 #@! TO.N,N/C*
X20850000Y35905000D03*
G04 #@! TO.P,U1,13*
G04 #@! TO.N,/D7*
X13230000Y7965000D03*
G04 #@! TO.P,U1,26*
G04 #@! TO.N,N/C*
X20850000Y33365000D03*
G04 #@! TO.P,U1,12*
G04 #@! TO.N,/D6*
X13230000Y10505000D03*
G04 #@! TO.P,U1,25*
G04 #@! TO.N,N/C*
X20850000Y30825000D03*
G04 #@! TO.P,U1,11*
X13230000Y13045000D03*
G04 #@! TO.P,U1,24*
X20850000Y28285000D03*
G04 #@! TO.P,U1,10*
G04 #@! TO.N,/XTAL2*
X13230000Y15585000D03*
G04 #@! TO.P,U1,23*
G04 #@! TO.N,N/C*
X20850000Y25745000D03*
G04 #@! TO.P,U1,9*
G04 #@! TO.N,/XTAL1*
X13230000Y18125000D03*
G04 #@! TO.P,U1,22*
G04 #@! TO.N,GND*
X20850000Y23205000D03*
G04 #@! TO.P,U1,8*
X13230000Y20665000D03*
G04 #@! TO.P,U1,21*
G04 #@! TO.N,Net-(C3-Pad1)*
X20850000Y20665000D03*
G04 #@! TO.P,U1,7*
G04 #@! TO.N,+5V*
X13230000Y23205000D03*
G04 #@! TO.P,U1,20*
X20850000Y18125000D03*
G04 #@! TO.P,U1,6*
G04 #@! TO.N,/D4*
X13230000Y25745000D03*
G04 #@! TO.P,U1,19*
G04 #@! TO.N,/D13*
X20850000Y15585000D03*
G04 #@! TO.P,U1,5*
G04 #@! TO.N,/D3*
X13230000Y28285000D03*
G04 #@! TO.P,U1,18*
G04 #@! TO.N,/D12*
X20850000Y13045000D03*
G04 #@! TO.P,U1,4*
G04 #@! TO.N,/D2*
X13230000Y30825000D03*
G04 #@! TO.P,U1,17*
G04 #@! TO.N,/D11*
X20850000Y10505000D03*
G04 #@! TO.P,U1,3*
G04 #@! TO.N,/TXD*
X13230000Y33365000D03*
G04 #@! TO.P,U1,16*
G04 #@! TO.N,/D10*
X20850000Y7965000D03*
G04 #@! TO.P,U1,2*
G04 #@! TO.N,/RXD*
X13230000Y35905000D03*
G04 #@! TO.P,U1,15*
G04 #@! TO.N,/D9*
X20850000Y5425000D03*
D14*
G04 #@! TO.P,U1,1*
G04 #@! TO.N,/RST*
X13230000Y38445000D03*
G04 #@! TD*
D15*
G04 #@! TO.P,J3,1*
G04 #@! TO.N,/POWER_SWITCH*
X87000000Y37365000D03*
D16*
G04 #@! TD*
G04 #@! TO.N,GND*
G04 #@! TO.C,J3*
G36*
X88073513Y44861389D02*
X88146318Y44850589D01*
X88217714Y44832705D01*
X88287013Y44807910D01*
X88353548Y44776441D01*
X88416678Y44738602D01*
X88475795Y44694758D01*
X88530330Y44645330D01*
X88579758Y44590795D01*
X88623602Y44531678D01*
X88661441Y44468548D01*
X88692910Y44402013D01*
X88717705Y44332714D01*
X88735589Y44261318D01*
X88746389Y44188513D01*
X88750000Y44115000D01*
X88750000Y42615000D01*
X88746389Y42541487D01*
X88735589Y42468682D01*
X88717705Y42397286D01*
X88692910Y42327987D01*
X88661441Y42261452D01*
X88623602Y42198322D01*
X88579758Y42139205D01*
X88530330Y42084670D01*
X88475795Y42035242D01*
X88416678Y41991398D01*
X88353548Y41953559D01*
X88287013Y41922090D01*
X88217714Y41897295D01*
X88146318Y41879411D01*
X88073513Y41868611D01*
X88000000Y41865000D01*
X86000000Y41865000D01*
X85926487Y41868611D01*
X85853682Y41879411D01*
X85782286Y41897295D01*
X85712987Y41922090D01*
X85646452Y41953559D01*
X85583322Y41991398D01*
X85524205Y42035242D01*
X85469670Y42084670D01*
X85420242Y42139205D01*
X85376398Y42198322D01*
X85338559Y42261452D01*
X85307090Y42327987D01*
X85282295Y42397286D01*
X85264411Y42468682D01*
X85253611Y42541487D01*
X85250000Y42615000D01*
X85250000Y44115000D01*
X85253611Y44188513D01*
X85264411Y44261318D01*
X85282295Y44332714D01*
X85307090Y44402013D01*
X85338559Y44468548D01*
X85376398Y44531678D01*
X85420242Y44590795D01*
X85469670Y44645330D01*
X85524205Y44694758D01*
X85583322Y44738602D01*
X85646452Y44776441D01*
X85712987Y44807910D01*
X85782286Y44832705D01*
X85853682Y44850589D01*
X85926487Y44861389D01*
X86000000Y44865000D01*
X88000000Y44865000D01*
X88073513Y44861389D01*
X88073513Y44861389D01*
G37*
D17*
G04 #@! TO.P,J3,2*
G04 #@! TO.N,GND*
X87000000Y43365000D03*
D16*
G04 #@! TD*
G04 #@! TO.N,N/C*
G04 #@! TO.C,J3*
G36*
X83260765Y42110787D02*
X83345704Y42098187D01*
X83428999Y42077323D01*
X83509848Y42048395D01*
X83587472Y42011681D01*
X83661124Y41967536D01*
X83730094Y41916384D01*
X83793718Y41858718D01*
X83851384Y41795094D01*
X83902536Y41726124D01*
X83946681Y41652472D01*
X83983395Y41574848D01*
X84012323Y41493999D01*
X84033187Y41410704D01*
X84045787Y41325765D01*
X84050000Y41240000D01*
X84050000Y39490000D01*
X84045787Y39404235D01*
X84033187Y39319296D01*
X84012323Y39236001D01*
X83983395Y39155152D01*
X83946681Y39077528D01*
X83902536Y39003876D01*
X83851384Y38934906D01*
X83793718Y38871282D01*
X83730094Y38813616D01*
X83661124Y38762464D01*
X83587472Y38718319D01*
X83509848Y38681605D01*
X83428999Y38652677D01*
X83345704Y38631813D01*
X83260765Y38619213D01*
X83175000Y38615000D01*
X81425000Y38615000D01*
X81339235Y38619213D01*
X81254296Y38631813D01*
X81171001Y38652677D01*
X81090152Y38681605D01*
X81012528Y38718319D01*
X80938876Y38762464D01*
X80869906Y38813616D01*
X80806282Y38871282D01*
X80748616Y38934906D01*
X80697464Y39003876D01*
X80653319Y39077528D01*
X80616605Y39155152D01*
X80587677Y39236001D01*
X80566813Y39319296D01*
X80554213Y39404235D01*
X80550000Y39490000D01*
X80550000Y41240000D01*
X80554213Y41325765D01*
X80566813Y41410704D01*
X80587677Y41493999D01*
X80616605Y41574848D01*
X80653319Y41652472D01*
X80697464Y41726124D01*
X80748616Y41795094D01*
X80806282Y41858718D01*
X80869906Y41916384D01*
X80938876Y41967536D01*
X81012528Y42011681D01*
X81090152Y42048395D01*
X81171001Y42077323D01*
X81254296Y42098187D01*
X81339235Y42110787D01*
X81425000Y42115000D01*
X83175000Y42115000D01*
X83260765Y42110787D01*
X83260765Y42110787D01*
G37*
D18*
G04 #@! TO.P,J3,3*
G04 #@! TO.N,N/C*
X82300000Y40365000D03*
G04 #@! TD*
D19*
G04 #@! TO.P,J4,1*
G04 #@! TO.N,Net-(A1-Pad3)*
X74636000Y19285000D03*
D20*
G04 #@! TO.P,J4,2*
G04 #@! TO.N,Net-(A1-Pad4)*
X74636000Y21825000D03*
G04 #@! TO.P,J4,3*
G04 #@! TO.N,Net-(A1-Pad5)*
X74636000Y24365000D03*
G04 #@! TO.P,J4,4*
G04 #@! TO.N,Net-(A1-Pad6)*
X74636000Y26905000D03*
G04 #@! TD*
G04 #@! TO.P,J5,12*
G04 #@! TO.N,GND*
X95940000Y15300000D03*
G04 #@! TO.P,J5,11*
G04 #@! TO.N,/D11*
X92600000Y15300000D03*
G04 #@! TO.P,J5,10*
G04 #@! TO.N,+5V*
X95940000Y17840000D03*
G04 #@! TO.P,J5,9*
G04 #@! TO.N,/D10*
X92600000Y17840000D03*
G04 #@! TO.P,J5,8*
G04 #@! TO.N,/D4*
X95940000Y20380000D03*
G04 #@! TO.P,J5,7*
G04 #@! TO.N,/D9*
X92600000Y20380000D03*
G04 #@! TO.P,J5,6*
G04 #@! TO.N,/D3*
X95940000Y22920000D03*
G04 #@! TO.P,J5,5*
G04 #@! TO.N,/D8*
X92600000Y22920000D03*
G04 #@! TO.P,J5,4*
G04 #@! TO.N,/D2*
X95940000Y25460000D03*
G04 #@! TO.P,J5,3*
G04 #@! TO.N,/D13*
X92600000Y25460000D03*
G04 #@! TO.P,J5,2*
G04 #@! TO.N,/RST*
X95940000Y28000000D03*
D19*
G04 #@! TO.P,J5,1*
G04 #@! TO.N,/D12*
X92600000Y28000000D03*
G04 #@! TD*
D21*
G04 #@! TO.P,U2,1*
G04 #@! TO.N,+12V*
X59000000Y12080000D03*
D22*
G04 #@! TO.P,U2,2*
G04 #@! TO.N,GND*
X59000000Y9540000D03*
G04 #@! TO.P,U2,3*
G04 #@! TO.N,+5V*
X59000000Y7000000D03*
G04 #@! TD*
D19*
G04 #@! TO.P,A1,1*
G04 #@! TO.N,GND*
X31645000Y37810000D03*
D20*
G04 #@! TO.P,A1,9*
G04 #@! TO.N,N/C*
X44345000Y20030000D03*
G04 #@! TO.P,A1,2*
G04 #@! TO.N,+5V*
X31645000Y35270000D03*
G04 #@! TO.P,A1,10*
G04 #@! TO.N,N/C*
X44345000Y22570000D03*
G04 #@! TO.P,A1,3*
G04 #@! TO.N,Net-(A1-Pad3)*
X31645000Y32730000D03*
G04 #@! TO.P,A1,11*
G04 #@! TO.N,N/C*
X44345000Y25110000D03*
G04 #@! TO.P,A1,4*
G04 #@! TO.N,Net-(A1-Pad4)*
X31645000Y30190000D03*
G04 #@! TO.P,A1,12*
G04 #@! TO.N,N/C*
X44345000Y27650000D03*
G04 #@! TO.P,A1,5*
G04 #@! TO.N,Net-(A1-Pad5)*
X31645000Y27650000D03*
G04 #@! TO.P,A1,13*
G04 #@! TO.N,Net-(A1-Pad13)*
X44345000Y30190000D03*
G04 #@! TO.P,A1,6*
G04 #@! TO.N,Net-(A1-Pad6)*
X31645000Y25110000D03*
G04 #@! TO.P,A1,14*
G04 #@! TO.N,Net-(A1-Pad13)*
X44345000Y32730000D03*
G04 #@! TO.P,A1,7*
G04 #@! TO.N,GND*
X31645000Y22570000D03*
G04 #@! TO.P,A1,15*
G04 #@! TO.N,/D7*
X44345000Y35270000D03*
G04 #@! TO.P,A1,8*
G04 #@! TO.N,+12V*
X31645000Y20030000D03*
G04 #@! TO.P,A1,16*
G04 #@! TO.N,/D6*
X44345000Y37810000D03*
G04 #@! TD*
D19*
G04 #@! TO.P,J2,1*
G04 #@! TO.N,/POWER_SWITCH*
X74636000Y36220000D03*
D20*
G04 #@! TO.P,J2,2*
G04 #@! TO.N,+12V*
X74636000Y38760000D03*
G04 #@! TD*
D23*
G04 #@! TO.N,GND*
X55431600Y11357200D03*
G04 #@! TO.N,/DTR*
X53110300Y31937500D03*
G04 #@! TO.N,/RST*
X56106400Y37032800D03*
G04 #@! TD*
D24*
G04 #@! TO.N,GND*
X56999700Y9789100D02*
X55431600Y11357200D01*
X29844700Y25805300D02*
X28227100Y24187700D01*
X28227100Y24187700D02*
X29844700Y22570000D01*
X28227100Y24187700D02*
X27244400Y23205000D01*
X31645000Y37810000D02*
X29844700Y37810000D01*
X27244400Y23205000D02*
X22600300Y23205000D01*
X31645000Y22570000D02*
X29844700Y22570000D01*
X29844700Y37810000D02*
X29844700Y25805300D01*
X95540000Y15300000D02*
X89780000Y9540000D01*
X89780000Y9540000D02*
X59000000Y9540000D01*
X59000000Y9540000D02*
X56999700Y9540000D01*
X56999700Y9540000D02*
X56999700Y9789100D01*
X20850000Y23205000D02*
X22600300Y23205000D01*
G04 #@! TO.N,Net-(A1-Pad3)*
X41653700Y20375000D02*
X41653700Y24521700D01*
X72271500Y18720800D02*
X43307900Y18720800D01*
X72835700Y19285000D02*
X72271500Y18720800D01*
X74636000Y19285000D02*
X72835700Y19285000D01*
X41653700Y24521700D02*
X41653600Y24521700D01*
X43307900Y18720800D02*
X41653700Y20375000D01*
X31645000Y32730000D02*
X33445300Y32730000D01*
X41653600Y24521700D02*
X33445300Y32730000D01*
G04 #@! TO.N,Net-(A1-Pad4)*
X74636000Y21825000D02*
X76436300Y21825000D01*
X31645000Y30190000D02*
X33445300Y30190000D01*
X34145700Y29489600D02*
X33445300Y30190000D01*
X76436300Y21825000D02*
X76436300Y18275100D01*
X76145800Y17984600D02*
X43053600Y17984600D01*
X43053600Y17984600D02*
X34145700Y26892500D01*
X76436300Y18275100D02*
X76145800Y17984600D01*
X34145700Y26892500D02*
X34145700Y29489600D01*
G04 #@! TO.N,Net-(A1-Pad5)*
X31645000Y27650000D02*
X33445300Y27650000D01*
X74636000Y24365000D02*
X76436300Y24365000D01*
X76391000Y17239500D02*
X42730800Y17239500D01*
X42730800Y17239500D02*
X33445300Y26525000D01*
X77136600Y17985100D02*
X76391000Y17239500D01*
X77136600Y23664700D02*
X77136600Y17985100D01*
X76436300Y24365000D02*
X77136600Y23664700D01*
X33445300Y26525000D02*
X33445300Y27650000D01*
G04 #@! TO.N,Net-(A1-Pad6)*
X74636000Y26905000D02*
X76436300Y26905000D01*
X77865700Y25475600D02*
X77865700Y17723900D01*
X76681000Y16539200D02*
X42016100Y16539200D01*
X31645000Y25110000D02*
X33445300Y25110000D01*
X76436300Y26905000D02*
X77865700Y25475600D01*
X77865700Y17723900D02*
X76681000Y16539200D01*
X42016100Y16539200D02*
X33445300Y25110000D01*
G04 #@! TO.N,/D7*
X13230000Y7965000D02*
X14980300Y7965000D01*
X34111400Y39783100D02*
X38624500Y35270000D01*
X38624500Y35270000D02*
X44345000Y35270000D01*
X18562400Y11547100D02*
X18562400Y38486100D01*
X14980300Y7965000D02*
X18562400Y11547100D01*
X19859400Y39783100D02*
X34111400Y39783100D01*
X18562400Y38486100D02*
X19859400Y39783100D01*
G04 #@! TO.N,/D6*
X39864200Y40490500D02*
X19573800Y40490500D01*
X42544700Y37810000D02*
X39864200Y40490500D01*
X13230000Y10505000D02*
X14980300Y10505000D01*
X19573800Y40490500D02*
X14980300Y35897000D01*
X14980300Y35897000D02*
X14980300Y10505000D01*
X44345000Y37810000D02*
X42544700Y37810000D01*
G04 #@! TO.N,/XTAL1*
X11479700Y19255300D02*
X6975000Y23760000D01*
X11479700Y18125000D02*
X11479700Y19255300D01*
X13230000Y18125000D02*
X11479700Y18125000D01*
G04 #@! TO.N,/XTAL2*
X10270000Y15585000D02*
X6975000Y18880000D01*
X13230000Y15585000D02*
X10270000Y15585000D01*
G04 #@! TO.N,/DTR*
X63475000Y37175000D02*
X58347800Y37175000D01*
X58347800Y37175000D02*
X53110300Y31937500D01*
G04 #@! TO.N,/RST*
X65359800Y38608500D02*
X57682100Y38608500D01*
X13230000Y38445000D02*
X14980300Y38445000D01*
X74667900Y29300400D02*
X65359800Y38608500D01*
X51931600Y41207600D02*
X56106400Y37032800D01*
X57682100Y38608500D02*
X56106400Y37032800D01*
X94239600Y29300400D02*
X74667900Y29300400D01*
X95540000Y28000000D02*
X94239600Y29300400D01*
X17742900Y41207600D02*
X51931600Y41207600D01*
X14980300Y38445000D02*
X17742900Y41207600D01*
D25*
G04 #@! TO.N,/POWER_SWITCH*
X83404700Y36220000D02*
X74636000Y36220000D01*
X84549700Y37365000D02*
X83404700Y36220000D01*
X87000000Y37365000D02*
X84549700Y37365000D01*
D24*
G04 #@! TO.N,/D11*
X46202000Y3401100D02*
X56341700Y13540800D01*
X56341700Y13540800D02*
X89040500Y13540800D01*
X19525900Y3401100D02*
X46202000Y3401100D01*
X20850000Y10505000D02*
X19099700Y10505000D01*
X19099700Y10505000D02*
X18399400Y9804700D01*
X89040500Y13540800D02*
X90799700Y15300000D01*
X18399400Y9804700D02*
X18399400Y4527600D01*
X93000000Y15300000D02*
X90799700Y15300000D01*
X18399400Y4527600D02*
X19525900Y3401100D01*
G04 #@! TO.N,/D10*
X44911300Y4101400D02*
X55073100Y14263200D01*
X55073100Y14263200D02*
X87222900Y14263200D01*
X20850000Y7965000D02*
X19099700Y7965000D01*
X19815900Y4101400D02*
X44911300Y4101400D01*
X87222900Y14263200D02*
X90799700Y17840000D01*
X19099700Y4817600D02*
X19815900Y4101400D01*
X93000000Y17840000D02*
X90799700Y17840000D01*
X19099700Y7965000D02*
X19099700Y4817600D01*
G04 #@! TO.N,/D4*
X97740300Y20380000D02*
X99140900Y21780600D01*
X99140900Y21780600D02*
X99140900Y29137000D01*
X93358300Y34919600D02*
X73125700Y34919600D01*
X13313600Y43317200D02*
X10079100Y40082700D01*
X10079100Y40082700D02*
X10079100Y27145600D01*
X10079100Y27145600D02*
X11479700Y25745000D01*
X95540000Y20380000D02*
X97740300Y20380000D01*
X13230000Y25745000D02*
X11479700Y25745000D01*
X64728100Y43317200D02*
X13313600Y43317200D01*
X73125700Y34919600D02*
X64728100Y43317200D01*
X99140900Y29137000D02*
X93358300Y34919600D01*
G04 #@! TO.N,/D9*
X82997500Y20380000D02*
X77756000Y15138500D01*
X32313800Y15138500D02*
X22600300Y5425000D01*
X93000000Y20380000D02*
X82997500Y20380000D01*
X20850000Y5425000D02*
X22600300Y5425000D01*
X77756000Y15138500D02*
X32313800Y15138500D01*
G04 #@! TO.N,/D3*
X97740300Y22920000D02*
X98440600Y23620300D01*
X63332400Y42616900D02*
X13603600Y42616900D01*
X13603600Y42616900D02*
X10779400Y39792700D01*
X10779400Y39792700D02*
X10779400Y28985300D01*
X95540000Y22920000D02*
X97740300Y22920000D01*
X10779400Y28985300D02*
X11479700Y28285000D01*
X98440600Y23620300D02*
X98440600Y28847000D01*
X96381200Y30906400D02*
X75042900Y30906400D01*
X98440600Y28847000D02*
X96381200Y30906400D01*
X13230000Y28285000D02*
X11479700Y28285000D01*
X75042900Y30906400D02*
X63332400Y42616900D01*
G04 #@! TO.N,/D2*
X74958000Y30000800D02*
X63042200Y41916600D01*
X96296500Y30000800D02*
X74958000Y30000800D01*
X95540000Y25460000D02*
X97740300Y25460000D01*
X63042200Y41916600D02*
X13893600Y41916600D01*
X97740300Y25460000D02*
X97740300Y28557000D01*
X11479700Y39502700D02*
X11479700Y30825000D01*
X13893600Y41916600D02*
X11479700Y39502700D01*
X97740300Y28557000D02*
X96296500Y30000800D01*
X13230000Y30825000D02*
X11479700Y30825000D01*
G04 #@! TO.N,/D12*
X20850000Y13045000D02*
X22600300Y13045000D01*
X93000000Y28000000D02*
X89132200Y28000000D01*
X89132200Y28000000D02*
X76971100Y15838900D01*
X76971100Y15838900D02*
X25394200Y15838900D01*
X25394200Y15838900D02*
X22600300Y13045000D01*
G04 #@! TD*
D26*
G04 #@! TO.N,GND*
G36*
X99315001Y30143768D02*
X94006887Y35451880D01*
X93960301Y35521601D01*
X93684101Y35706152D01*
X93440537Y35754600D01*
X93440533Y35754600D01*
X93358300Y35770957D01*
X93276067Y35754600D01*
X89397440Y35754600D01*
X89397440Y39115000D01*
X89348157Y39362765D01*
X89207809Y39572809D01*
X88997765Y39713157D01*
X88750000Y39762440D01*
X85250000Y39762440D01*
X85002235Y39713157D01*
X84792191Y39572809D01*
X84680731Y39405999D01*
X84697440Y39490000D01*
X84697440Y41240000D01*
X84581551Y41822613D01*
X84251528Y42316528D01*
X83757613Y42646551D01*
X83175000Y42762440D01*
X81425000Y42762440D01*
X80842387Y42646551D01*
X80348472Y42316528D01*
X80018449Y41822613D01*
X79902560Y41240000D01*
X79902560Y39490000D01*
X80018449Y38907387D01*
X80348472Y38413472D01*
X80842387Y38083449D01*
X81425000Y37967560D01*
X83175000Y37967560D01*
X83757613Y38083449D01*
X84251528Y38413472D01*
X84581551Y38907387D01*
X84602560Y39013006D01*
X84602560Y38409761D01*
X84549700Y38420276D01*
X84447765Y38400000D01*
X84145863Y38339948D01*
X83803507Y38111193D01*
X83745765Y38024776D01*
X82975990Y37255000D01*
X76536696Y37255000D01*
X76534157Y37267765D01*
X76393809Y37477809D01*
X76183765Y37618157D01*
X76049894Y37644785D01*
X76170577Y37725423D01*
X76487740Y38200091D01*
X76599113Y38760000D01*
X76487740Y39319909D01*
X76170577Y39794577D01*
X75695909Y40111740D01*
X75277333Y40195000D01*
X73994667Y40195000D01*
X73576091Y40111740D01*
X73101423Y39794577D01*
X72784260Y39319909D01*
X72672887Y38760000D01*
X72784260Y38200091D01*
X73101423Y37725423D01*
X73222106Y37644785D01*
X73088235Y37618157D01*
X72878191Y37477809D01*
X72737843Y37267765D01*
X72688560Y37020000D01*
X72688560Y36537608D01*
X66146918Y43079250D01*
X84615000Y43079250D01*
X84615000Y41738691D01*
X84711673Y41505302D01*
X84890301Y41326673D01*
X85123690Y41230000D01*
X86714250Y41230000D01*
X86873000Y41388750D01*
X86873000Y43238000D01*
X87127000Y43238000D01*
X87127000Y41388750D01*
X87285750Y41230000D01*
X88876310Y41230000D01*
X89109699Y41326673D01*
X89288327Y41505302D01*
X89385000Y41738691D01*
X89385000Y43079250D01*
X89226250Y43238000D01*
X87127000Y43238000D01*
X86873000Y43238000D01*
X84773750Y43238000D01*
X84615000Y43079250D01*
X66146918Y43079250D01*
X65376687Y43849480D01*
X65330101Y43919201D01*
X65053901Y44103752D01*
X64810337Y44152200D01*
X64810333Y44152200D01*
X64728100Y44168557D01*
X64645867Y44152200D01*
X13395837Y44152200D01*
X13313600Y44168558D01*
X13231363Y44152200D01*
X12987799Y44103752D01*
X12711599Y43919201D01*
X12665015Y43849483D01*
X9546820Y40731287D01*
X9477099Y40684701D01*
X9292548Y40408500D01*
X9244100Y40164936D01*
X9244100Y40164933D01*
X9227743Y40082700D01*
X9244100Y40000467D01*
X9244101Y27227838D01*
X9227743Y27145600D01*
X9292548Y26819800D01*
X9319424Y26779577D01*
X9477100Y26543599D01*
X9546818Y26497015D01*
X10831115Y25212718D01*
X10877699Y25142999D01*
X11153899Y24958448D01*
X11397463Y24910000D01*
X11479700Y24893642D01*
X11561937Y24910000D01*
X11612070Y24910000D01*
X11745423Y24710423D01*
X12097758Y24475000D01*
X11745423Y24239577D01*
X11428260Y23764909D01*
X11316887Y23205000D01*
X11428260Y22645091D01*
X11745423Y22170423D01*
X12101499Y21932501D01*
X11675500Y21589896D01*
X11405633Y21096819D01*
X11388096Y21014039D01*
X11510085Y20792000D01*
X13103000Y20792000D01*
X13103000Y20812000D01*
X13357000Y20812000D01*
X13357000Y20792000D01*
X13377000Y20792000D01*
X13377000Y20538000D01*
X13357000Y20538000D01*
X13357000Y20518000D01*
X13103000Y20518000D01*
X13103000Y20538000D01*
X11510085Y20538000D01*
X11463202Y20452666D01*
X8495706Y23420161D01*
X8510000Y23454670D01*
X8510000Y24065330D01*
X8276310Y24629507D01*
X7844507Y25061310D01*
X7280330Y25295000D01*
X6669670Y25295000D01*
X6105493Y25061310D01*
X5673690Y24629507D01*
X5440000Y24065330D01*
X5440000Y23454670D01*
X5673690Y22890493D01*
X6105493Y22458690D01*
X6669670Y22225000D01*
X7280330Y22225000D01*
X7314839Y22239294D01*
X10644701Y18909431D01*
X10644700Y18207238D01*
X10628342Y18125000D01*
X10693148Y17799199D01*
X10849434Y17565301D01*
X10877699Y17522999D01*
X11153899Y17338448D01*
X11479700Y17273642D01*
X11561937Y17290000D01*
X11612070Y17290000D01*
X11745423Y17090423D01*
X12097758Y16855000D01*
X11745423Y16619577D01*
X11612070Y16420000D01*
X10615868Y16420000D01*
X8495706Y18540161D01*
X8510000Y18574670D01*
X8510000Y19185330D01*
X8276310Y19749507D01*
X7844507Y20181310D01*
X7280330Y20415000D01*
X6669670Y20415000D01*
X6105493Y20181310D01*
X5673690Y19749507D01*
X5440000Y19185330D01*
X5440000Y18574670D01*
X5673690Y18010493D01*
X6105493Y17578690D01*
X6669670Y17345000D01*
X7280330Y17345000D01*
X7314839Y17359294D01*
X9621415Y15052717D01*
X9667999Y14982999D01*
X9944199Y14798448D01*
X10187763Y14750000D01*
X10270000Y14733642D01*
X10352237Y14750000D01*
X11612070Y14750000D01*
X11745423Y14550423D01*
X12097758Y14315000D01*
X11745423Y14079577D01*
X11428260Y13604909D01*
X11316887Y13045000D01*
X11428260Y12485091D01*
X11745423Y12010423D01*
X12097758Y11775000D01*
X11745423Y11539577D01*
X11428260Y11064909D01*
X11316887Y10505000D01*
X11428260Y9945091D01*
X11745423Y9470423D01*
X12097758Y9235000D01*
X11745423Y8999577D01*
X11428260Y8524909D01*
X11316887Y7965000D01*
X11428260Y7405091D01*
X11745423Y6930423D01*
X12097758Y6695000D01*
X11745423Y6459577D01*
X11428260Y5984909D01*
X11316887Y5425000D01*
X11428260Y4865091D01*
X11745423Y4390423D01*
X12220091Y4073260D01*
X12638667Y3990000D01*
X13821333Y3990000D01*
X14239909Y4073260D01*
X14714577Y4390423D01*
X15031740Y4865091D01*
X15143113Y5425000D01*
X15031740Y5984909D01*
X14714577Y6459577D01*
X14362242Y6695000D01*
X14714577Y6930423D01*
X14847930Y7130000D01*
X14898067Y7130000D01*
X14980300Y7113643D01*
X15062533Y7130000D01*
X15062537Y7130000D01*
X15306101Y7178448D01*
X15582301Y7362999D01*
X15628887Y7432720D01*
X17564400Y9368232D01*
X17564401Y4609838D01*
X17548043Y4527600D01*
X17612848Y4201800D01*
X17679933Y4101400D01*
X17797400Y3925599D01*
X17867118Y3879015D01*
X18877315Y2868818D01*
X18923899Y2799099D01*
X19200099Y2614548D01*
X19443663Y2566100D01*
X19525900Y2549742D01*
X19608137Y2566100D01*
X46119767Y2566100D01*
X46202000Y2549743D01*
X46284233Y2566100D01*
X46284237Y2566100D01*
X46527801Y2614548D01*
X46804001Y2799099D01*
X46850587Y2868820D01*
X48406445Y4424678D01*
X93865000Y4424678D01*
X93865000Y3575322D01*
X94190034Y2790620D01*
X94790620Y2190034D01*
X95575322Y1865000D01*
X96424678Y1865000D01*
X97209380Y2190034D01*
X97809966Y2790620D01*
X98135000Y3575322D01*
X98135000Y4424678D01*
X97809966Y5209380D01*
X97209380Y5809966D01*
X96424678Y6135000D01*
X95575322Y6135000D01*
X94790620Y5809966D01*
X94190034Y5209380D01*
X93865000Y4424678D01*
X48406445Y4424678D01*
X50981767Y7000000D01*
X56834928Y7000000D01*
X56954062Y6401073D01*
X57293327Y5893327D01*
X57801073Y5554062D01*
X58248818Y5465000D01*
X59751182Y5465000D01*
X60198927Y5554062D01*
X60706673Y5893327D01*
X61045938Y6401073D01*
X61165072Y7000000D01*
X61045938Y7598927D01*
X60706673Y8106673D01*
X60444723Y8281703D01*
X60775212Y8544394D01*
X61066756Y9069914D01*
X61091036Y9175260D01*
X60970378Y9413000D01*
X59127000Y9413000D01*
X59127000Y9393000D01*
X58873000Y9393000D01*
X58873000Y9413000D01*
X57029622Y9413000D01*
X56908964Y9175260D01*
X56933244Y9069914D01*
X57224788Y8544394D01*
X57555277Y8281703D01*
X57293327Y8106673D01*
X56954062Y7598927D01*
X56834928Y7000000D01*
X50981767Y7000000D01*
X56687569Y12705800D01*
X56852560Y12705800D01*
X56852560Y11180000D01*
X56901843Y10932235D01*
X57042191Y10722191D01*
X57252235Y10581843D01*
X57276809Y10576955D01*
X57224788Y10535606D01*
X56933244Y10010086D01*
X56908964Y9904740D01*
X57029622Y9667000D01*
X58873000Y9667000D01*
X58873000Y9687000D01*
X59127000Y9687000D01*
X59127000Y9667000D01*
X60970378Y9667000D01*
X61091036Y9904740D01*
X61066756Y10010086D01*
X60775212Y10535606D01*
X60723191Y10576955D01*
X60747765Y10581843D01*
X60957809Y10722191D01*
X61098157Y10932235D01*
X61147440Y11180000D01*
X61147440Y12705800D01*
X88958267Y12705800D01*
X89040500Y12689443D01*
X89122733Y12705800D01*
X89122737Y12705800D01*
X89366301Y12754248D01*
X89642501Y12938799D01*
X89689087Y13008520D01*
X91017585Y14337017D01*
X91065423Y14265423D01*
X91540091Y13948260D01*
X91958667Y13865000D01*
X93241333Y13865000D01*
X93659909Y13948260D01*
X94134577Y14265423D01*
X94278028Y14480112D01*
X94335500Y14375104D01*
X94773517Y14022834D01*
X95313000Y13865000D01*
X95813000Y13865000D01*
X95813000Y15173000D01*
X96067000Y15173000D01*
X96067000Y13865000D01*
X96567000Y13865000D01*
X97106483Y14022834D01*
X97544500Y14375104D01*
X97814367Y14868181D01*
X97831904Y14950961D01*
X97709915Y15173000D01*
X96067000Y15173000D01*
X95813000Y15173000D01*
X95793000Y15173000D01*
X95793000Y15427000D01*
X95813000Y15427000D01*
X95813000Y15447000D01*
X96067000Y15447000D01*
X96067000Y15427000D01*
X97709915Y15427000D01*
X97831904Y15649039D01*
X97814367Y15731819D01*
X97544500Y16224896D01*
X97118501Y16567501D01*
X97474577Y16805423D01*
X97791740Y17280091D01*
X97903113Y17840000D01*
X97791740Y18399909D01*
X97474577Y18874577D01*
X97122242Y19110000D01*
X97474577Y19345423D01*
X97607930Y19545000D01*
X97658067Y19545000D01*
X97740300Y19528643D01*
X97822533Y19545000D01*
X97822537Y19545000D01*
X98066101Y19593448D01*
X98342301Y19777999D01*
X98388887Y19847720D01*
X99315000Y20773833D01*
X99315000Y685000D01*
X685000Y685000D01*
X685000Y4424678D01*
X1865000Y4424678D01*
X1865000Y3575322D01*
X2190034Y2790620D01*
X2790620Y2190034D01*
X3575322Y1865000D01*
X4424678Y1865000D01*
X5209380Y2190034D01*
X5809966Y2790620D01*
X6135000Y3575322D01*
X6135000Y4424678D01*
X5809966Y5209380D01*
X5209380Y5809966D01*
X4424678Y6135000D01*
X3575322Y6135000D01*
X2790620Y5809966D01*
X2190034Y5209380D01*
X1865000Y4424678D01*
X685000Y4424678D01*
X685000Y44424678D01*
X1865000Y44424678D01*
X1865000Y43575322D01*
X2190034Y42790620D01*
X2790620Y42190034D01*
X3575322Y41865000D01*
X4424678Y41865000D01*
X5209380Y42190034D01*
X5809966Y42790620D01*
X6135000Y43575322D01*
X6135000Y44424678D01*
X5900294Y44991309D01*
X84615000Y44991309D01*
X84615000Y43650750D01*
X84773750Y43492000D01*
X86873000Y43492000D01*
X86873000Y45341250D01*
X87127000Y45341250D01*
X87127000Y43492000D01*
X89226250Y43492000D01*
X89385000Y43650750D01*
X89385000Y44424678D01*
X93865000Y44424678D01*
X93865000Y43575322D01*
X94190034Y42790620D01*
X94790620Y42190034D01*
X95575322Y41865000D01*
X96424678Y41865000D01*
X97209380Y42190034D01*
X97809966Y42790620D01*
X98135000Y43575322D01*
X98135000Y44424678D01*
X97809966Y45209380D01*
X97209380Y45809966D01*
X96424678Y46135000D01*
X95575322Y46135000D01*
X94790620Y45809966D01*
X94190034Y45209380D01*
X93865000Y44424678D01*
X89385000Y44424678D01*
X89385000Y44991309D01*
X89288327Y45224698D01*
X89109699Y45403327D01*
X88876310Y45500000D01*
X87285750Y45500000D01*
X87127000Y45341250D01*
X86873000Y45341250D01*
X86714250Y45500000D01*
X85123690Y45500000D01*
X84890301Y45403327D01*
X84711673Y45224698D01*
X84615000Y44991309D01*
X5900294Y44991309D01*
X5809966Y45209380D01*
X5209380Y45809966D01*
X4424678Y46135000D01*
X3575322Y46135000D01*
X2790620Y45809966D01*
X2190034Y45209380D01*
X1865000Y44424678D01*
X685000Y44424678D01*
X685000Y47315000D01*
X99315001Y47315000D01*
X99315001Y30143768D01*
X99315001Y30143768D01*
G37*
X99315001Y30143768D02*
X94006887Y35451880D01*
X93960301Y35521601D01*
X93684101Y35706152D01*
X93440537Y35754600D01*
X93440533Y35754600D01*
X93358300Y35770957D01*
X93276067Y35754600D01*
X89397440Y35754600D01*
X89397440Y39115000D01*
X89348157Y39362765D01*
X89207809Y39572809D01*
X88997765Y39713157D01*
X88750000Y39762440D01*
X85250000Y39762440D01*
X85002235Y39713157D01*
X84792191Y39572809D01*
X84680731Y39405999D01*
X84697440Y39490000D01*
X84697440Y41240000D01*
X84581551Y41822613D01*
X84251528Y42316528D01*
X83757613Y42646551D01*
X83175000Y42762440D01*
X81425000Y42762440D01*
X80842387Y42646551D01*
X80348472Y42316528D01*
X80018449Y41822613D01*
X79902560Y41240000D01*
X79902560Y39490000D01*
X80018449Y38907387D01*
X80348472Y38413472D01*
X80842387Y38083449D01*
X81425000Y37967560D01*
X83175000Y37967560D01*
X83757613Y38083449D01*
X84251528Y38413472D01*
X84581551Y38907387D01*
X84602560Y39013006D01*
X84602560Y38409761D01*
X84549700Y38420276D01*
X84447765Y38400000D01*
X84145863Y38339948D01*
X83803507Y38111193D01*
X83745765Y38024776D01*
X82975990Y37255000D01*
X76536696Y37255000D01*
X76534157Y37267765D01*
X76393809Y37477809D01*
X76183765Y37618157D01*
X76049894Y37644785D01*
X76170577Y37725423D01*
X76487740Y38200091D01*
X76599113Y38760000D01*
X76487740Y39319909D01*
X76170577Y39794577D01*
X75695909Y40111740D01*
X75277333Y40195000D01*
X73994667Y40195000D01*
X73576091Y40111740D01*
X73101423Y39794577D01*
X72784260Y39319909D01*
X72672887Y38760000D01*
X72784260Y38200091D01*
X73101423Y37725423D01*
X73222106Y37644785D01*
X73088235Y37618157D01*
X72878191Y37477809D01*
X72737843Y37267765D01*
X72688560Y37020000D01*
X72688560Y36537608D01*
X66146918Y43079250D01*
X84615000Y43079250D01*
X84615000Y41738691D01*
X84711673Y41505302D01*
X84890301Y41326673D01*
X85123690Y41230000D01*
X86714250Y41230000D01*
X86873000Y41388750D01*
X86873000Y43238000D01*
X87127000Y43238000D01*
X87127000Y41388750D01*
X87285750Y41230000D01*
X88876310Y41230000D01*
X89109699Y41326673D01*
X89288327Y41505302D01*
X89385000Y41738691D01*
X89385000Y43079250D01*
X89226250Y43238000D01*
X87127000Y43238000D01*
X86873000Y43238000D01*
X84773750Y43238000D01*
X84615000Y43079250D01*
X66146918Y43079250D01*
X65376687Y43849480D01*
X65330101Y43919201D01*
X65053901Y44103752D01*
X64810337Y44152200D01*
X64810333Y44152200D01*
X64728100Y44168557D01*
X64645867Y44152200D01*
X13395837Y44152200D01*
X13313600Y44168558D01*
X13231363Y44152200D01*
X12987799Y44103752D01*
X12711599Y43919201D01*
X12665015Y43849483D01*
X9546820Y40731287D01*
X9477099Y40684701D01*
X9292548Y40408500D01*
X9244100Y40164936D01*
X9244100Y40164933D01*
X9227743Y40082700D01*
X9244100Y40000467D01*
X9244101Y27227838D01*
X9227743Y27145600D01*
X9292548Y26819800D01*
X9319424Y26779577D01*
X9477100Y26543599D01*
X9546818Y26497015D01*
X10831115Y25212718D01*
X10877699Y25142999D01*
X11153899Y24958448D01*
X11397463Y24910000D01*
X11479700Y24893642D01*
X11561937Y24910000D01*
X11612070Y24910000D01*
X11745423Y24710423D01*
X12097758Y24475000D01*
X11745423Y24239577D01*
X11428260Y23764909D01*
X11316887Y23205000D01*
X11428260Y22645091D01*
X11745423Y22170423D01*
X12101499Y21932501D01*
X11675500Y21589896D01*
X11405633Y21096819D01*
X11388096Y21014039D01*
X11510085Y20792000D01*
X13103000Y20792000D01*
X13103000Y20812000D01*
X13357000Y20812000D01*
X13357000Y20792000D01*
X13377000Y20792000D01*
X13377000Y20538000D01*
X13357000Y20538000D01*
X13357000Y20518000D01*
X13103000Y20518000D01*
X13103000Y20538000D01*
X11510085Y20538000D01*
X11463202Y20452666D01*
X8495706Y23420161D01*
X8510000Y23454670D01*
X8510000Y24065330D01*
X8276310Y24629507D01*
X7844507Y25061310D01*
X7280330Y25295000D01*
X6669670Y25295000D01*
X6105493Y25061310D01*
X5673690Y24629507D01*
X5440000Y24065330D01*
X5440000Y23454670D01*
X5673690Y22890493D01*
X6105493Y22458690D01*
X6669670Y22225000D01*
X7280330Y22225000D01*
X7314839Y22239294D01*
X10644701Y18909431D01*
X10644700Y18207238D01*
X10628342Y18125000D01*
X10693148Y17799199D01*
X10849434Y17565301D01*
X10877699Y17522999D01*
X11153899Y17338448D01*
X11479700Y17273642D01*
X11561937Y17290000D01*
X11612070Y17290000D01*
X11745423Y17090423D01*
X12097758Y16855000D01*
X11745423Y16619577D01*
X11612070Y16420000D01*
X10615868Y16420000D01*
X8495706Y18540161D01*
X8510000Y18574670D01*
X8510000Y19185330D01*
X8276310Y19749507D01*
X7844507Y20181310D01*
X7280330Y20415000D01*
X6669670Y20415000D01*
X6105493Y20181310D01*
X5673690Y19749507D01*
X5440000Y19185330D01*
X5440000Y18574670D01*
X5673690Y18010493D01*
X6105493Y17578690D01*
X6669670Y17345000D01*
X7280330Y17345000D01*
X7314839Y17359294D01*
X9621415Y15052717D01*
X9667999Y14982999D01*
X9944199Y14798448D01*
X10187763Y14750000D01*
X10270000Y14733642D01*
X10352237Y14750000D01*
X11612070Y14750000D01*
X11745423Y14550423D01*
X12097758Y14315000D01*
X11745423Y14079577D01*
X11428260Y13604909D01*
X11316887Y13045000D01*
X11428260Y12485091D01*
X11745423Y12010423D01*
X12097758Y11775000D01*
X11745423Y11539577D01*
X11428260Y11064909D01*
X11316887Y10505000D01*
X11428260Y9945091D01*
X11745423Y9470423D01*
X12097758Y9235000D01*
X11745423Y8999577D01*
X11428260Y8524909D01*
X11316887Y7965000D01*
X11428260Y7405091D01*
X11745423Y6930423D01*
X12097758Y6695000D01*
X11745423Y6459577D01*
X11428260Y5984909D01*
X11316887Y5425000D01*
X11428260Y4865091D01*
X11745423Y4390423D01*
X12220091Y4073260D01*
X12638667Y3990000D01*
X13821333Y3990000D01*
X14239909Y4073260D01*
X14714577Y4390423D01*
X15031740Y4865091D01*
X15143113Y5425000D01*
X15031740Y5984909D01*
X14714577Y6459577D01*
X14362242Y6695000D01*
X14714577Y6930423D01*
X14847930Y7130000D01*
X14898067Y7130000D01*
X14980300Y7113643D01*
X15062533Y7130000D01*
X15062537Y7130000D01*
X15306101Y7178448D01*
X15582301Y7362999D01*
X15628887Y7432720D01*
X17564400Y9368232D01*
X17564401Y4609838D01*
X17548043Y4527600D01*
X17612848Y4201800D01*
X17679933Y4101400D01*
X17797400Y3925599D01*
X17867118Y3879015D01*
X18877315Y2868818D01*
X18923899Y2799099D01*
X19200099Y2614548D01*
X19443663Y2566100D01*
X19525900Y2549742D01*
X19608137Y2566100D01*
X46119767Y2566100D01*
X46202000Y2549743D01*
X46284233Y2566100D01*
X46284237Y2566100D01*
X46527801Y2614548D01*
X46804001Y2799099D01*
X46850587Y2868820D01*
X48406445Y4424678D01*
X93865000Y4424678D01*
X93865000Y3575322D01*
X94190034Y2790620D01*
X94790620Y2190034D01*
X95575322Y1865000D01*
X96424678Y1865000D01*
X97209380Y2190034D01*
X97809966Y2790620D01*
X98135000Y3575322D01*
X98135000Y4424678D01*
X97809966Y5209380D01*
X97209380Y5809966D01*
X96424678Y6135000D01*
X95575322Y6135000D01*
X94790620Y5809966D01*
X94190034Y5209380D01*
X93865000Y4424678D01*
X48406445Y4424678D01*
X50981767Y7000000D01*
X56834928Y7000000D01*
X56954062Y6401073D01*
X57293327Y5893327D01*
X57801073Y5554062D01*
X58248818Y5465000D01*
X59751182Y5465000D01*
X60198927Y5554062D01*
X60706673Y5893327D01*
X61045938Y6401073D01*
X61165072Y7000000D01*
X61045938Y7598927D01*
X60706673Y8106673D01*
X60444723Y8281703D01*
X60775212Y8544394D01*
X61066756Y9069914D01*
X61091036Y9175260D01*
X60970378Y9413000D01*
X59127000Y9413000D01*
X59127000Y9393000D01*
X58873000Y9393000D01*
X58873000Y9413000D01*
X57029622Y9413000D01*
X56908964Y9175260D01*
X56933244Y9069914D01*
X57224788Y8544394D01*
X57555277Y8281703D01*
X57293327Y8106673D01*
X56954062Y7598927D01*
X56834928Y7000000D01*
X50981767Y7000000D01*
X56687569Y12705800D01*
X56852560Y12705800D01*
X56852560Y11180000D01*
X56901843Y10932235D01*
X57042191Y10722191D01*
X57252235Y10581843D01*
X57276809Y10576955D01*
X57224788Y10535606D01*
X56933244Y10010086D01*
X56908964Y9904740D01*
X57029622Y9667000D01*
X58873000Y9667000D01*
X58873000Y9687000D01*
X59127000Y9687000D01*
X59127000Y9667000D01*
X60970378Y9667000D01*
X61091036Y9904740D01*
X61066756Y10010086D01*
X60775212Y10535606D01*
X60723191Y10576955D01*
X60747765Y10581843D01*
X60957809Y10722191D01*
X61098157Y10932235D01*
X61147440Y11180000D01*
X61147440Y12705800D01*
X88958267Y12705800D01*
X89040500Y12689443D01*
X89122733Y12705800D01*
X89122737Y12705800D01*
X89366301Y12754248D01*
X89642501Y12938799D01*
X89689087Y13008520D01*
X91017585Y14337017D01*
X91065423Y14265423D01*
X91540091Y13948260D01*
X91958667Y13865000D01*
X93241333Y13865000D01*
X93659909Y13948260D01*
X94134577Y14265423D01*
X94278028Y14480112D01*
X94335500Y14375104D01*
X94773517Y14022834D01*
X95313000Y13865000D01*
X95813000Y13865000D01*
X95813000Y15173000D01*
X96067000Y15173000D01*
X96067000Y13865000D01*
X96567000Y13865000D01*
X97106483Y14022834D01*
X97544500Y14375104D01*
X97814367Y14868181D01*
X97831904Y14950961D01*
X97709915Y15173000D01*
X96067000Y15173000D01*
X95813000Y15173000D01*
X95793000Y15173000D01*
X95793000Y15427000D01*
X95813000Y15427000D01*
X95813000Y15447000D01*
X96067000Y15447000D01*
X96067000Y15427000D01*
X97709915Y15427000D01*
X97831904Y15649039D01*
X97814367Y15731819D01*
X97544500Y16224896D01*
X97118501Y16567501D01*
X97474577Y16805423D01*
X97791740Y17280091D01*
X97903113Y17840000D01*
X97791740Y18399909D01*
X97474577Y18874577D01*
X97122242Y19110000D01*
X97474577Y19345423D01*
X97607930Y19545000D01*
X97658067Y19545000D01*
X97740300Y19528643D01*
X97822533Y19545000D01*
X97822537Y19545000D01*
X98066101Y19593448D01*
X98342301Y19777999D01*
X98388887Y19847720D01*
X99315000Y20773833D01*
X99315000Y685000D01*
X685000Y685000D01*
X685000Y4424678D01*
X1865000Y4424678D01*
X1865000Y3575322D01*
X2190034Y2790620D01*
X2790620Y2190034D01*
X3575322Y1865000D01*
X4424678Y1865000D01*
X5209380Y2190034D01*
X5809966Y2790620D01*
X6135000Y3575322D01*
X6135000Y4424678D01*
X5809966Y5209380D01*
X5209380Y5809966D01*
X4424678Y6135000D01*
X3575322Y6135000D01*
X2790620Y5809966D01*
X2190034Y5209380D01*
X1865000Y4424678D01*
X685000Y4424678D01*
X685000Y44424678D01*
X1865000Y44424678D01*
X1865000Y43575322D01*
X2190034Y42790620D01*
X2790620Y42190034D01*
X3575322Y41865000D01*
X4424678Y41865000D01*
X5209380Y42190034D01*
X5809966Y42790620D01*
X6135000Y43575322D01*
X6135000Y44424678D01*
X5900294Y44991309D01*
X84615000Y44991309D01*
X84615000Y43650750D01*
X84773750Y43492000D01*
X86873000Y43492000D01*
X86873000Y45341250D01*
X87127000Y45341250D01*
X87127000Y43492000D01*
X89226250Y43492000D01*
X89385000Y43650750D01*
X89385000Y44424678D01*
X93865000Y44424678D01*
X93865000Y43575322D01*
X94190034Y42790620D01*
X94790620Y42190034D01*
X95575322Y41865000D01*
X96424678Y41865000D01*
X97209380Y42190034D01*
X97809966Y42790620D01*
X98135000Y43575322D01*
X98135000Y44424678D01*
X97809966Y45209380D01*
X97209380Y45809966D01*
X96424678Y46135000D01*
X95575322Y46135000D01*
X94790620Y45809966D01*
X94190034Y45209380D01*
X93865000Y44424678D01*
X89385000Y44424678D01*
X89385000Y44991309D01*
X89288327Y45224698D01*
X89109699Y45403327D01*
X88876310Y45500000D01*
X87285750Y45500000D01*
X87127000Y45341250D01*
X86873000Y45341250D01*
X86714250Y45500000D01*
X85123690Y45500000D01*
X84890301Y45403327D01*
X84711673Y45224698D01*
X84615000Y44991309D01*
X5900294Y44991309D01*
X5809966Y45209380D01*
X5209380Y45809966D01*
X4424678Y46135000D01*
X3575322Y46135000D01*
X2790620Y45809966D01*
X2190034Y45209380D01*
X1865000Y44424678D01*
X685000Y44424678D01*
X685000Y47315000D01*
X99315001Y47315000D01*
X99315001Y30143768D01*
G36*
X29710000Y38736310D02*
X29710000Y38095750D01*
X29868750Y37937000D01*
X31518000Y37937000D01*
X31518000Y37957000D01*
X31772000Y37957000D01*
X31772000Y37937000D01*
X33421250Y37937000D01*
X33580000Y38095750D01*
X33580000Y38736310D01*
X33492274Y38948100D01*
X33765533Y38948100D01*
X37975915Y34737717D01*
X38022499Y34667999D01*
X38298699Y34483448D01*
X38542263Y34435000D01*
X38542266Y34435000D01*
X38624499Y34418643D01*
X38706732Y34435000D01*
X42677070Y34435000D01*
X42810423Y34235423D01*
X43162758Y34000000D01*
X42810423Y33764577D01*
X42493260Y33289909D01*
X42381887Y32730000D01*
X42493260Y32170091D01*
X42810423Y31695423D01*
X43162758Y31460000D01*
X42810423Y31224577D01*
X42493260Y30749909D01*
X42381887Y30190000D01*
X42493260Y29630091D01*
X42810423Y29155423D01*
X43162758Y28920000D01*
X42810423Y28684577D01*
X42493260Y28209909D01*
X42381887Y27650000D01*
X42493260Y27090091D01*
X42810423Y26615423D01*
X43162758Y26380000D01*
X42810423Y26144577D01*
X42493260Y25669909D01*
X42381887Y25110000D01*
X42431494Y24860608D01*
X42255701Y25123701D01*
X42185681Y25170487D01*
X34093887Y33262280D01*
X34047301Y33332001D01*
X33771101Y33516552D01*
X33527537Y33565000D01*
X33527533Y33565000D01*
X33445300Y33581357D01*
X33363067Y33565000D01*
X33312930Y33565000D01*
X33179577Y33764577D01*
X32827242Y34000000D01*
X33179577Y34235423D01*
X33496740Y34710091D01*
X33608113Y35270000D01*
X33496740Y35829909D01*
X33179577Y36304577D01*
X33073082Y36375735D01*
X33304698Y36471673D01*
X33483327Y36650301D01*
X33580000Y36883690D01*
X33580000Y37524250D01*
X33421250Y37683000D01*
X31772000Y37683000D01*
X31772000Y37663000D01*
X31518000Y37663000D01*
X31518000Y37683000D01*
X29868750Y37683000D01*
X29710000Y37524250D01*
X29710000Y36883690D01*
X29806673Y36650301D01*
X29985302Y36471673D01*
X30216918Y36375735D01*
X30110423Y36304577D01*
X29793260Y35829909D01*
X29681887Y35270000D01*
X29793260Y34710091D01*
X30110423Y34235423D01*
X30462758Y34000000D01*
X30110423Y33764577D01*
X29793260Y33289909D01*
X29681887Y32730000D01*
X29793260Y32170091D01*
X30110423Y31695423D01*
X30462758Y31460000D01*
X30110423Y31224577D01*
X29793260Y30749909D01*
X29681887Y30190000D01*
X29793260Y29630091D01*
X30110423Y29155423D01*
X30462758Y28920000D01*
X30110423Y28684577D01*
X29793260Y28209909D01*
X29681887Y27650000D01*
X29793260Y27090091D01*
X30110423Y26615423D01*
X30462758Y26380000D01*
X30110423Y26144577D01*
X29793260Y25669909D01*
X29681887Y25110000D01*
X29793260Y24550091D01*
X30110423Y24075423D01*
X30466499Y23837501D01*
X30040500Y23494896D01*
X29770633Y23001819D01*
X29753096Y22919039D01*
X29875085Y22697000D01*
X31518000Y22697000D01*
X31518000Y22717000D01*
X31772000Y22717000D01*
X31772000Y22697000D01*
X33414915Y22697000D01*
X33536904Y22919039D01*
X33519367Y23001819D01*
X33249500Y23494896D01*
X32823501Y23837501D01*
X33179577Y24075423D01*
X33227415Y24147018D01*
X40700532Y16673900D01*
X25476432Y16673900D01*
X25394199Y16690257D01*
X25311966Y16673900D01*
X25311963Y16673900D01*
X25068399Y16625452D01*
X24863077Y16488260D01*
X24792199Y16440901D01*
X24745617Y16371185D01*
X22382415Y14007982D01*
X22334577Y14079577D01*
X21982242Y14315000D01*
X22334577Y14550423D01*
X22651740Y15025091D01*
X22763113Y15585000D01*
X22651740Y16144909D01*
X22334577Y16619577D01*
X21982242Y16855000D01*
X22334577Y17090423D01*
X22651740Y17565091D01*
X22763113Y18125000D01*
X22651740Y18684909D01*
X22334577Y19159577D01*
X21982242Y19395000D01*
X22334577Y19630423D01*
X22601565Y20030000D01*
X29681887Y20030000D01*
X29793260Y19470091D01*
X30110423Y18995423D01*
X30585091Y18678260D01*
X31003667Y18595000D01*
X32286333Y18595000D01*
X32704909Y18678260D01*
X33179577Y18995423D01*
X33496740Y19470091D01*
X33608113Y20030000D01*
X33496740Y20589909D01*
X33179577Y21064577D01*
X32823501Y21302499D01*
X33249500Y21645104D01*
X33519367Y22138181D01*
X33536904Y22220961D01*
X33414915Y22443000D01*
X31772000Y22443000D01*
X31772000Y22423000D01*
X31518000Y22423000D01*
X31518000Y22443000D01*
X29875085Y22443000D01*
X29753096Y22220961D01*
X29770633Y22138181D01*
X30040500Y21645104D01*
X30466499Y21302499D01*
X30110423Y21064577D01*
X29793260Y20589909D01*
X29681887Y20030000D01*
X22601565Y20030000D01*
X22651740Y20105091D01*
X22763113Y20665000D01*
X22651740Y21224909D01*
X22334577Y21699577D01*
X21978501Y21937499D01*
X22404500Y22280104D01*
X22674367Y22773181D01*
X22691904Y22855961D01*
X22569915Y23078000D01*
X20977000Y23078000D01*
X20977000Y23058000D01*
X20723000Y23058000D01*
X20723000Y23078000D01*
X20703000Y23078000D01*
X20703000Y23332000D01*
X20723000Y23332000D01*
X20723000Y23352000D01*
X20977000Y23352000D01*
X20977000Y23332000D01*
X22569915Y23332000D01*
X22691904Y23554039D01*
X22674367Y23636819D01*
X22404500Y24129896D01*
X21978501Y24472501D01*
X22334577Y24710423D01*
X22651740Y25185091D01*
X22763113Y25745000D01*
X22651740Y26304909D01*
X22334577Y26779577D01*
X21982242Y27015000D01*
X22334577Y27250423D01*
X22651740Y27725091D01*
X22763113Y28285000D01*
X22651740Y28844909D01*
X22334577Y29319577D01*
X21982242Y29555000D01*
X22334577Y29790423D01*
X22651740Y30265091D01*
X22763113Y30825000D01*
X22651740Y31384909D01*
X22334577Y31859577D01*
X21982242Y32095000D01*
X22334577Y32330423D01*
X22651740Y32805091D01*
X22763113Y33365000D01*
X22651740Y33924909D01*
X22334577Y34399577D01*
X21982242Y34635000D01*
X22334577Y34870423D01*
X22651740Y35345091D01*
X22763113Y35905000D01*
X22651740Y36464909D01*
X22334577Y36939577D01*
X21982242Y37175000D01*
X22334577Y37410423D01*
X22651740Y37885091D01*
X22763113Y38445000D01*
X22663040Y38948100D01*
X29797726Y38948100D01*
X29710000Y38736310D01*
X29710000Y38736310D01*
G37*
X29710000Y38736310D02*
X29710000Y38095750D01*
X29868750Y37937000D01*
X31518000Y37937000D01*
X31518000Y37957000D01*
X31772000Y37957000D01*
X31772000Y37937000D01*
X33421250Y37937000D01*
X33580000Y38095750D01*
X33580000Y38736310D01*
X33492274Y38948100D01*
X33765533Y38948100D01*
X37975915Y34737717D01*
X38022499Y34667999D01*
X38298699Y34483448D01*
X38542263Y34435000D01*
X38542266Y34435000D01*
X38624499Y34418643D01*
X38706732Y34435000D01*
X42677070Y34435000D01*
X42810423Y34235423D01*
X43162758Y34000000D01*
X42810423Y33764577D01*
X42493260Y33289909D01*
X42381887Y32730000D01*
X42493260Y32170091D01*
X42810423Y31695423D01*
X43162758Y31460000D01*
X42810423Y31224577D01*
X42493260Y30749909D01*
X42381887Y30190000D01*
X42493260Y29630091D01*
X42810423Y29155423D01*
X43162758Y28920000D01*
X42810423Y28684577D01*
X42493260Y28209909D01*
X42381887Y27650000D01*
X42493260Y27090091D01*
X42810423Y26615423D01*
X43162758Y26380000D01*
X42810423Y26144577D01*
X42493260Y25669909D01*
X42381887Y25110000D01*
X42431494Y24860608D01*
X42255701Y25123701D01*
X42185681Y25170487D01*
X34093887Y33262280D01*
X34047301Y33332001D01*
X33771101Y33516552D01*
X33527537Y33565000D01*
X33527533Y33565000D01*
X33445300Y33581357D01*
X33363067Y33565000D01*
X33312930Y33565000D01*
X33179577Y33764577D01*
X32827242Y34000000D01*
X33179577Y34235423D01*
X33496740Y34710091D01*
X33608113Y35270000D01*
X33496740Y35829909D01*
X33179577Y36304577D01*
X33073082Y36375735D01*
X33304698Y36471673D01*
X33483327Y36650301D01*
X33580000Y36883690D01*
X33580000Y37524250D01*
X33421250Y37683000D01*
X31772000Y37683000D01*
X31772000Y37663000D01*
X31518000Y37663000D01*
X31518000Y37683000D01*
X29868750Y37683000D01*
X29710000Y37524250D01*
X29710000Y36883690D01*
X29806673Y36650301D01*
X29985302Y36471673D01*
X30216918Y36375735D01*
X30110423Y36304577D01*
X29793260Y35829909D01*
X29681887Y35270000D01*
X29793260Y34710091D01*
X30110423Y34235423D01*
X30462758Y34000000D01*
X30110423Y33764577D01*
X29793260Y33289909D01*
X29681887Y32730000D01*
X29793260Y32170091D01*
X30110423Y31695423D01*
X30462758Y31460000D01*
X30110423Y31224577D01*
X29793260Y30749909D01*
X29681887Y30190000D01*
X29793260Y29630091D01*
X30110423Y29155423D01*
X30462758Y28920000D01*
X30110423Y28684577D01*
X29793260Y28209909D01*
X29681887Y27650000D01*
X29793260Y27090091D01*
X30110423Y26615423D01*
X30462758Y26380000D01*
X30110423Y26144577D01*
X29793260Y25669909D01*
X29681887Y25110000D01*
X29793260Y24550091D01*
X30110423Y24075423D01*
X30466499Y23837501D01*
X30040500Y23494896D01*
X29770633Y23001819D01*
X29753096Y22919039D01*
X29875085Y22697000D01*
X31518000Y22697000D01*
X31518000Y22717000D01*
X31772000Y22717000D01*
X31772000Y22697000D01*
X33414915Y22697000D01*
X33536904Y22919039D01*
X33519367Y23001819D01*
X33249500Y23494896D01*
X32823501Y23837501D01*
X33179577Y24075423D01*
X33227415Y24147018D01*
X40700532Y16673900D01*
X25476432Y16673900D01*
X25394199Y16690257D01*
X25311966Y16673900D01*
X25311963Y16673900D01*
X25068399Y16625452D01*
X24863077Y16488260D01*
X24792199Y16440901D01*
X24745617Y16371185D01*
X22382415Y14007982D01*
X22334577Y14079577D01*
X21982242Y14315000D01*
X22334577Y14550423D01*
X22651740Y15025091D01*
X22763113Y15585000D01*
X22651740Y16144909D01*
X22334577Y16619577D01*
X21982242Y16855000D01*
X22334577Y17090423D01*
X22651740Y17565091D01*
X22763113Y18125000D01*
X22651740Y18684909D01*
X22334577Y19159577D01*
X21982242Y19395000D01*
X22334577Y19630423D01*
X22601565Y20030000D01*
X29681887Y20030000D01*
X29793260Y19470091D01*
X30110423Y18995423D01*
X30585091Y18678260D01*
X31003667Y18595000D01*
X32286333Y18595000D01*
X32704909Y18678260D01*
X33179577Y18995423D01*
X33496740Y19470091D01*
X33608113Y20030000D01*
X33496740Y20589909D01*
X33179577Y21064577D01*
X32823501Y21302499D01*
X33249500Y21645104D01*
X33519367Y22138181D01*
X33536904Y22220961D01*
X33414915Y22443000D01*
X31772000Y22443000D01*
X31772000Y22423000D01*
X31518000Y22423000D01*
X31518000Y22443000D01*
X29875085Y22443000D01*
X29753096Y22220961D01*
X29770633Y22138181D01*
X30040500Y21645104D01*
X30466499Y21302499D01*
X30110423Y21064577D01*
X29793260Y20589909D01*
X29681887Y20030000D01*
X22601565Y20030000D01*
X22651740Y20105091D01*
X22763113Y20665000D01*
X22651740Y21224909D01*
X22334577Y21699577D01*
X21978501Y21937499D01*
X22404500Y22280104D01*
X22674367Y22773181D01*
X22691904Y22855961D01*
X22569915Y23078000D01*
X20977000Y23078000D01*
X20977000Y23058000D01*
X20723000Y23058000D01*
X20723000Y23078000D01*
X20703000Y23078000D01*
X20703000Y23332000D01*
X20723000Y23332000D01*
X20723000Y23352000D01*
X20977000Y23352000D01*
X20977000Y23332000D01*
X22569915Y23332000D01*
X22691904Y23554039D01*
X22674367Y23636819D01*
X22404500Y24129896D01*
X21978501Y24472501D01*
X22334577Y24710423D01*
X22651740Y25185091D01*
X22763113Y25745000D01*
X22651740Y26304909D01*
X22334577Y26779577D01*
X21982242Y27015000D01*
X22334577Y27250423D01*
X22651740Y27725091D01*
X22763113Y28285000D01*
X22651740Y28844909D01*
X22334577Y29319577D01*
X21982242Y29555000D01*
X22334577Y29790423D01*
X22651740Y30265091D01*
X22763113Y30825000D01*
X22651740Y31384909D01*
X22334577Y31859577D01*
X21982242Y32095000D01*
X22334577Y32330423D01*
X22651740Y32805091D01*
X22763113Y33365000D01*
X22651740Y33924909D01*
X22334577Y34399577D01*
X21982242Y34635000D01*
X22334577Y34870423D01*
X22651740Y35345091D01*
X22763113Y35905000D01*
X22651740Y36464909D01*
X22334577Y36939577D01*
X21982242Y37175000D01*
X22334577Y37410423D01*
X22651740Y37885091D01*
X22763113Y38445000D01*
X22663040Y38948100D01*
X29797726Y38948100D01*
X29710000Y38736310D01*
G36*
X55071400Y36886932D02*
X55071400Y36826926D01*
X55228969Y36446520D01*
X55520120Y36155369D01*
X55900526Y35997800D01*
X55989732Y35997800D01*
X52964433Y32972500D01*
X52904426Y32972500D01*
X52524020Y32814931D01*
X52232869Y32523780D01*
X52075300Y32143374D01*
X52075300Y31731626D01*
X52232869Y31351220D01*
X52524020Y31060069D01*
X52904426Y30902500D01*
X53316174Y30902500D01*
X53696580Y31060069D01*
X53987731Y31351220D01*
X54145300Y31731626D01*
X54145300Y31791633D01*
X58693668Y36340000D01*
X61577560Y36340000D01*
X61577560Y36325000D01*
X61626843Y36077235D01*
X61767191Y35867191D01*
X61977235Y35726843D01*
X62022619Y35717816D01*
X62004375Y35705625D01*
X61676161Y35214418D01*
X61560908Y34635000D01*
X61676161Y34055582D01*
X62004375Y33564375D01*
X62302761Y33365000D01*
X62004375Y33165625D01*
X61676161Y32674418D01*
X61560908Y32095000D01*
X61676161Y31515582D01*
X62004375Y31024375D01*
X62302761Y30825000D01*
X62004375Y30625625D01*
X61676161Y30134418D01*
X61560908Y29555000D01*
X61676161Y28975582D01*
X62004375Y28484375D01*
X62302761Y28285000D01*
X62004375Y28085625D01*
X61676161Y27594418D01*
X61560908Y27015000D01*
X61676161Y26435582D01*
X62004375Y25944375D01*
X62313584Y25737768D01*
X61935144Y25435251D01*
X61654438Y24925952D01*
X61633524Y24831890D01*
X61754845Y24602000D01*
X63348000Y24602000D01*
X63348000Y24622000D01*
X63602000Y24622000D01*
X63602000Y24602000D01*
X65195155Y24602000D01*
X65316476Y24831890D01*
X65295562Y24925952D01*
X65014856Y25435251D01*
X64636416Y25737768D01*
X64945625Y25944375D01*
X65273839Y26435582D01*
X65389092Y27015000D01*
X65273839Y27594418D01*
X64945625Y28085625D01*
X64647239Y28285000D01*
X64945625Y28484375D01*
X65273839Y28975582D01*
X65389092Y29555000D01*
X65273839Y30134418D01*
X64945625Y30625625D01*
X64647239Y30825000D01*
X64945625Y31024375D01*
X65273839Y31515582D01*
X65389092Y32095000D01*
X65273839Y32674418D01*
X64945625Y33165625D01*
X64647239Y33365000D01*
X64945625Y33564375D01*
X65273839Y34055582D01*
X65389092Y34635000D01*
X65273839Y35214418D01*
X64945625Y35705625D01*
X64927381Y35717816D01*
X64972765Y35726843D01*
X65182809Y35867191D01*
X65323157Y36077235D01*
X65372440Y36325000D01*
X65372440Y37414993D01*
X74019317Y28768114D01*
X74065899Y28698399D01*
X74135614Y28651817D01*
X74135615Y28651816D01*
X74197000Y28610800D01*
X74342099Y28513848D01*
X74585663Y28465400D01*
X74585666Y28465400D01*
X74667899Y28449043D01*
X74750132Y28465400D01*
X88416732Y28465400D01*
X78700700Y18749367D01*
X78700700Y25393363D01*
X78717058Y25475600D01*
X78652252Y25801401D01*
X78556302Y25945000D01*
X78467701Y26077601D01*
X78397983Y26124185D01*
X77084887Y27437280D01*
X77038301Y27507001D01*
X76762101Y27691552D01*
X76518537Y27740000D01*
X76518533Y27740000D01*
X76436300Y27756357D01*
X76354067Y27740000D01*
X76303930Y27740000D01*
X76170577Y27939577D01*
X75695909Y28256740D01*
X75277333Y28340000D01*
X73994667Y28340000D01*
X73576091Y28256740D01*
X73101423Y27939577D01*
X72784260Y27464909D01*
X72672887Y26905000D01*
X72784260Y26345091D01*
X73101423Y25870423D01*
X73453758Y25635000D01*
X73101423Y25399577D01*
X72784260Y24924909D01*
X72672887Y24365000D01*
X72784260Y23805091D01*
X73101423Y23330423D01*
X73453758Y23095000D01*
X73101423Y22859577D01*
X72784260Y22384909D01*
X72672887Y21825000D01*
X72784260Y21265091D01*
X73101423Y20790423D01*
X73222106Y20709785D01*
X73088235Y20683157D01*
X72878191Y20542809D01*
X72737843Y20332765D01*
X72693135Y20108000D01*
X72509899Y20071552D01*
X72233699Y19887001D01*
X72187116Y19817285D01*
X71925632Y19555800D01*
X46213789Y19555800D01*
X46308113Y20030000D01*
X46196740Y20589909D01*
X45879577Y21064577D01*
X45527242Y21300000D01*
X45879577Y21535423D01*
X46196740Y22010091D01*
X46308113Y22570000D01*
X46196740Y23129909D01*
X45879577Y23604577D01*
X45527242Y23840000D01*
X45879577Y24075423D01*
X45908099Y24118110D01*
X61633524Y24118110D01*
X61654438Y24024048D01*
X61935144Y23514749D01*
X62389382Y23151640D01*
X62948000Y22990000D01*
X63348000Y22990000D01*
X63348000Y24348000D01*
X63602000Y24348000D01*
X63602000Y22990000D01*
X64002000Y22990000D01*
X64560618Y23151640D01*
X65014856Y23514749D01*
X65295562Y24024048D01*
X65316476Y24118110D01*
X65195155Y24348000D01*
X63602000Y24348000D01*
X63348000Y24348000D01*
X61754845Y24348000D01*
X61633524Y24118110D01*
X45908099Y24118110D01*
X46196740Y24550091D01*
X46308113Y25110000D01*
X46196740Y25669909D01*
X45879577Y26144577D01*
X45527242Y26380000D01*
X45879577Y26615423D01*
X46196740Y27090091D01*
X46308113Y27650000D01*
X46196740Y28209909D01*
X45879577Y28684577D01*
X45527242Y28920000D01*
X45879577Y29155423D01*
X46196740Y29630091D01*
X46308113Y30190000D01*
X46196740Y30749909D01*
X45879577Y31224577D01*
X45527242Y31460000D01*
X45879577Y31695423D01*
X46196740Y32170091D01*
X46308113Y32730000D01*
X46196740Y33289909D01*
X45879577Y33764577D01*
X45527242Y34000000D01*
X45879577Y34235423D01*
X46196740Y34710091D01*
X46308113Y35270000D01*
X46196740Y35829909D01*
X45879577Y36304577D01*
X45527242Y36540000D01*
X45879577Y36775423D01*
X46196740Y37250091D01*
X46308113Y37810000D01*
X46196740Y38369909D01*
X45879577Y38844577D01*
X45404909Y39161740D01*
X44986333Y39245000D01*
X43703667Y39245000D01*
X43285091Y39161740D01*
X42810423Y38844577D01*
X42762586Y38772983D01*
X41162968Y40372600D01*
X51585733Y40372600D01*
X55071400Y36886932D01*
X55071400Y36886932D01*
G37*
X55071400Y36886932D02*
X55071400Y36826926D01*
X55228969Y36446520D01*
X55520120Y36155369D01*
X55900526Y35997800D01*
X55989732Y35997800D01*
X52964433Y32972500D01*
X52904426Y32972500D01*
X52524020Y32814931D01*
X52232869Y32523780D01*
X52075300Y32143374D01*
X52075300Y31731626D01*
X52232869Y31351220D01*
X52524020Y31060069D01*
X52904426Y30902500D01*
X53316174Y30902500D01*
X53696580Y31060069D01*
X53987731Y31351220D01*
X54145300Y31731626D01*
X54145300Y31791633D01*
X58693668Y36340000D01*
X61577560Y36340000D01*
X61577560Y36325000D01*
X61626843Y36077235D01*
X61767191Y35867191D01*
X61977235Y35726843D01*
X62022619Y35717816D01*
X62004375Y35705625D01*
X61676161Y35214418D01*
X61560908Y34635000D01*
X61676161Y34055582D01*
X62004375Y33564375D01*
X62302761Y33365000D01*
X62004375Y33165625D01*
X61676161Y32674418D01*
X61560908Y32095000D01*
X61676161Y31515582D01*
X62004375Y31024375D01*
X62302761Y30825000D01*
X62004375Y30625625D01*
X61676161Y30134418D01*
X61560908Y29555000D01*
X61676161Y28975582D01*
X62004375Y28484375D01*
X62302761Y28285000D01*
X62004375Y28085625D01*
X61676161Y27594418D01*
X61560908Y27015000D01*
X61676161Y26435582D01*
X62004375Y25944375D01*
X62313584Y25737768D01*
X61935144Y25435251D01*
X61654438Y24925952D01*
X61633524Y24831890D01*
X61754845Y24602000D01*
X63348000Y24602000D01*
X63348000Y24622000D01*
X63602000Y24622000D01*
X63602000Y24602000D01*
X65195155Y24602000D01*
X65316476Y24831890D01*
X65295562Y24925952D01*
X65014856Y25435251D01*
X64636416Y25737768D01*
X64945625Y25944375D01*
X65273839Y26435582D01*
X65389092Y27015000D01*
X65273839Y27594418D01*
X64945625Y28085625D01*
X64647239Y28285000D01*
X64945625Y28484375D01*
X65273839Y28975582D01*
X65389092Y29555000D01*
X65273839Y30134418D01*
X64945625Y30625625D01*
X64647239Y30825000D01*
X64945625Y31024375D01*
X65273839Y31515582D01*
X65389092Y32095000D01*
X65273839Y32674418D01*
X64945625Y33165625D01*
X64647239Y33365000D01*
X64945625Y33564375D01*
X65273839Y34055582D01*
X65389092Y34635000D01*
X65273839Y35214418D01*
X64945625Y35705625D01*
X64927381Y35717816D01*
X64972765Y35726843D01*
X65182809Y35867191D01*
X65323157Y36077235D01*
X65372440Y36325000D01*
X65372440Y37414993D01*
X74019317Y28768114D01*
X74065899Y28698399D01*
X74135614Y28651817D01*
X74135615Y28651816D01*
X74197000Y28610800D01*
X74342099Y28513848D01*
X74585663Y28465400D01*
X74585666Y28465400D01*
X74667899Y28449043D01*
X74750132Y28465400D01*
X88416732Y28465400D01*
X78700700Y18749367D01*
X78700700Y25393363D01*
X78717058Y25475600D01*
X78652252Y25801401D01*
X78556302Y25945000D01*
X78467701Y26077601D01*
X78397983Y26124185D01*
X77084887Y27437280D01*
X77038301Y27507001D01*
X76762101Y27691552D01*
X76518537Y27740000D01*
X76518533Y27740000D01*
X76436300Y27756357D01*
X76354067Y27740000D01*
X76303930Y27740000D01*
X76170577Y27939577D01*
X75695909Y28256740D01*
X75277333Y28340000D01*
X73994667Y28340000D01*
X73576091Y28256740D01*
X73101423Y27939577D01*
X72784260Y27464909D01*
X72672887Y26905000D01*
X72784260Y26345091D01*
X73101423Y25870423D01*
X73453758Y25635000D01*
X73101423Y25399577D01*
X72784260Y24924909D01*
X72672887Y24365000D01*
X72784260Y23805091D01*
X73101423Y23330423D01*
X73453758Y23095000D01*
X73101423Y22859577D01*
X72784260Y22384909D01*
X72672887Y21825000D01*
X72784260Y21265091D01*
X73101423Y20790423D01*
X73222106Y20709785D01*
X73088235Y20683157D01*
X72878191Y20542809D01*
X72737843Y20332765D01*
X72693135Y20108000D01*
X72509899Y20071552D01*
X72233699Y19887001D01*
X72187116Y19817285D01*
X71925632Y19555800D01*
X46213789Y19555800D01*
X46308113Y20030000D01*
X46196740Y20589909D01*
X45879577Y21064577D01*
X45527242Y21300000D01*
X45879577Y21535423D01*
X46196740Y22010091D01*
X46308113Y22570000D01*
X46196740Y23129909D01*
X45879577Y23604577D01*
X45527242Y23840000D01*
X45879577Y24075423D01*
X45908099Y24118110D01*
X61633524Y24118110D01*
X61654438Y24024048D01*
X61935144Y23514749D01*
X62389382Y23151640D01*
X62948000Y22990000D01*
X63348000Y22990000D01*
X63348000Y24348000D01*
X63602000Y24348000D01*
X63602000Y22990000D01*
X64002000Y22990000D01*
X64560618Y23151640D01*
X65014856Y23514749D01*
X65295562Y24024048D01*
X65316476Y24118110D01*
X65195155Y24348000D01*
X63602000Y24348000D01*
X63348000Y24348000D01*
X61754845Y24348000D01*
X61633524Y24118110D01*
X45908099Y24118110D01*
X46196740Y24550091D01*
X46308113Y25110000D01*
X46196740Y25669909D01*
X45879577Y26144577D01*
X45527242Y26380000D01*
X45879577Y26615423D01*
X46196740Y27090091D01*
X46308113Y27650000D01*
X46196740Y28209909D01*
X45879577Y28684577D01*
X45527242Y28920000D01*
X45879577Y29155423D01*
X46196740Y29630091D01*
X46308113Y30190000D01*
X46196740Y30749909D01*
X45879577Y31224577D01*
X45527242Y31460000D01*
X45879577Y31695423D01*
X46196740Y32170091D01*
X46308113Y32730000D01*
X46196740Y33289909D01*
X45879577Y33764577D01*
X45527242Y34000000D01*
X45879577Y34235423D01*
X46196740Y34710091D01*
X46308113Y35270000D01*
X46196740Y35829909D01*
X45879577Y36304577D01*
X45527242Y36540000D01*
X45879577Y36775423D01*
X46196740Y37250091D01*
X46308113Y37810000D01*
X46196740Y38369909D01*
X45879577Y38844577D01*
X45404909Y39161740D01*
X44986333Y39245000D01*
X43703667Y39245000D01*
X43285091Y39161740D01*
X42810423Y38844577D01*
X42762586Y38772983D01*
X41162968Y40372600D01*
X51585733Y40372600D01*
X55071400Y36886932D01*
G04 #@! TD*
M02*
