G04 #@! TF.GenerationSoftware,KiCad,Pcbnew,(5.0.1)-rc2*
G04 #@! TF.CreationDate,2020-08-26T14:01:22+08:00*
G04 #@! TF.ProjectId,Peristaltic Pump PCB,506572697374616C7469632050756D70,rev?*
G04 #@! TF.SameCoordinates,PX2ebae40PY9d5b340*
G04 #@! TF.FileFunction,Legend,Bot*
G04 #@! TF.FilePolarity,Positive*
%FSLAX46Y46*%
G04 Gerber Fmt 4.6, Leading zero omitted, Abs format (unit mm)*
G04 Created by KiCad (PCBNEW (5.0.1)-rc2) date 08/26/20 14:01:22*
%MOMM*%
%LPD*%
G01*
G04 APERTURE LIST*
%ADD10C,0.150000*%
G04 APERTURE END LIST*
D10*
X1547619Y13523810D02*
X2547619Y13523810D01*
X2547619Y13761905D01*
X2500000Y13904762D01*
X2404761Y14000000D01*
X2309523Y14047620D01*
X2119047Y14095239D01*
X1976190Y14095239D01*
X1785714Y14047620D01*
X1690476Y14000000D01*
X1595238Y13904762D01*
X1547619Y13761905D01*
X1547619Y13523810D01*
X2071428Y14523810D02*
X2071428Y14857143D01*
X1547619Y15000000D02*
X1547619Y14523810D01*
X2547619Y14523810D01*
X2547619Y15000000D01*
X1595238Y15380953D02*
X1547619Y15523810D01*
X1547619Y15761905D01*
X1595238Y15857143D01*
X1642857Y15904762D01*
X1738095Y15952381D01*
X1833333Y15952381D01*
X1928571Y15904762D01*
X1976190Y15857143D01*
X2023809Y15761905D01*
X2071428Y15571429D01*
X2119047Y15476191D01*
X2166666Y15428572D01*
X2261904Y15380953D01*
X2357142Y15380953D01*
X2452380Y15428572D01*
X2500000Y15476191D01*
X2547619Y15571429D01*
X2547619Y15809524D01*
X2500000Y15952381D01*
X1547619Y16380953D02*
X2547619Y16380953D01*
X2500000Y17380953D02*
X2547619Y17285715D01*
X2547619Y17142858D01*
X2500000Y17000000D01*
X2404761Y16904762D01*
X2309523Y16857143D01*
X2119047Y16809524D01*
X1976190Y16809524D01*
X1785714Y16857143D01*
X1690476Y16904762D01*
X1595238Y17000000D01*
X1547619Y17142858D01*
X1547619Y17238096D01*
X1595238Y17380953D01*
X1642857Y17428572D01*
X1976190Y17428572D01*
X1976190Y17238096D01*
X1547619Y17857143D02*
X2547619Y17857143D01*
X1547619Y18428572D01*
X2547619Y18428572D01*
X2071428Y18904762D02*
X2071428Y19238096D01*
X1547619Y19380953D02*
X1547619Y18904762D01*
X2547619Y18904762D01*
X2547619Y19380953D01*
X1547619Y19809524D02*
X2547619Y19809524D01*
X2547619Y20047620D01*
X2500000Y20190477D01*
X2404761Y20285715D01*
X2309523Y20333334D01*
X2119047Y20380953D01*
X1976190Y20380953D01*
X1785714Y20333334D01*
X1690476Y20285715D01*
X1595238Y20190477D01*
X1547619Y20047620D01*
X1547619Y19809524D01*
X2071428Y21904762D02*
X2023809Y22047620D01*
X1976190Y22095239D01*
X1880952Y22142858D01*
X1738095Y22142858D01*
X1642857Y22095239D01*
X1595238Y22047620D01*
X1547619Y21952381D01*
X1547619Y21571429D01*
X2547619Y21571429D01*
X2547619Y21904762D01*
X2500000Y22000000D01*
X2452380Y22047620D01*
X2357142Y22095239D01*
X2261904Y22095239D01*
X2166666Y22047620D01*
X2119047Y22000000D01*
X2071428Y21904762D01*
X2071428Y21571429D01*
X2023809Y22761905D02*
X1547619Y22761905D01*
X2547619Y22428572D02*
X2023809Y22761905D01*
X2547619Y23095239D01*
X1642857Y24190477D02*
X1595238Y24238096D01*
X1547619Y24190477D01*
X1595238Y24142858D01*
X1642857Y24190477D01*
X1547619Y24190477D01*
X2166666Y24190477D02*
X2119047Y24238096D01*
X2071428Y24190477D01*
X2119047Y24142858D01*
X2166666Y24190477D01*
X2071428Y24190477D01*
X1547619Y25428572D02*
X2547619Y25428572D01*
X1547619Y26000000D01*
X2547619Y26000000D01*
X1833333Y26428572D02*
X1833333Y26904762D01*
X1547619Y26333334D02*
X2547619Y26666667D01*
X1547619Y27000000D01*
X1547619Y27333334D02*
X2547619Y27333334D01*
X1547619Y27809524D02*
X2547619Y27809524D01*
X1833333Y28142858D01*
X2547619Y28476191D01*
X1547619Y28476191D01*
M02*
