G04 #@! TF.GenerationSoftware,KiCad,Pcbnew,(5.0.1)-rc2*
G04 #@! TF.CreationDate,2020-08-26T14:01:22+08:00*
G04 #@! TF.ProjectId,Peristaltic Pump PCB,506572697374616C7469632050756D70,rev?*
G04 #@! TF.SameCoordinates,PX2ebae40PY9d5b340*
G04 #@! TF.FileFunction,Soldermask,Top*
G04 #@! TF.FilePolarity,Negative*
%FSLAX46Y46*%
G04 Gerber Fmt 4.6, Leading zero omitted, Abs format (unit mm)*
G04 Created by KiCad (PCBNEW (5.0.1)-rc2) date 08/26/20 14:01:22*
%MOMM*%
%LPD*%
G01*
G04 APERTURE LIST*
%ADD10C,0.100000*%
G04 APERTURE END LIST*
D10*
G36*
X96340935Y5461571D02*
X96437534Y5442356D01*
X96710517Y5329283D01*
X96801974Y5268173D01*
X96956197Y5165124D01*
X97165124Y4956197D01*
X97329284Y4710515D01*
X97442356Y4437533D01*
X97500000Y4147739D01*
X97500000Y3852261D01*
X97442356Y3562467D01*
X97329284Y3289485D01*
X97165124Y3043803D01*
X96956197Y2834876D01*
X96956194Y2834874D01*
X96710517Y2670717D01*
X96437534Y2557644D01*
X96340935Y2538429D01*
X96147739Y2500000D01*
X95852261Y2500000D01*
X95659065Y2538429D01*
X95562466Y2557644D01*
X95289483Y2670717D01*
X95043806Y2834874D01*
X95043803Y2834876D01*
X94834876Y3043803D01*
X94670716Y3289485D01*
X94557644Y3562467D01*
X94500000Y3852261D01*
X94500000Y4147739D01*
X94557644Y4437533D01*
X94670716Y4710515D01*
X94834876Y4956197D01*
X95043803Y5165124D01*
X95198026Y5268173D01*
X95289483Y5329283D01*
X95562466Y5442356D01*
X95659065Y5461571D01*
X95852261Y5500000D01*
X96147739Y5500000D01*
X96340935Y5461571D01*
X96340935Y5461571D01*
G37*
G36*
X4340935Y5461571D02*
X4437534Y5442356D01*
X4710517Y5329283D01*
X4801974Y5268173D01*
X4956197Y5165124D01*
X5165124Y4956197D01*
X5329284Y4710515D01*
X5442356Y4437533D01*
X5500000Y4147739D01*
X5500000Y3852261D01*
X5442356Y3562467D01*
X5329284Y3289485D01*
X5165124Y3043803D01*
X4956197Y2834876D01*
X4956194Y2834874D01*
X4710517Y2670717D01*
X4437534Y2557644D01*
X4340935Y2538429D01*
X4147739Y2500000D01*
X3852261Y2500000D01*
X3659065Y2538429D01*
X3562466Y2557644D01*
X3289483Y2670717D01*
X3043806Y2834874D01*
X3043803Y2834876D01*
X2834876Y3043803D01*
X2670716Y3289485D01*
X2557644Y3562467D01*
X2500000Y3852261D01*
X2500000Y4147739D01*
X2557644Y4437533D01*
X2670716Y4710515D01*
X2834876Y4956197D01*
X3043803Y5165124D01*
X3198026Y5268173D01*
X3289483Y5329283D01*
X3562466Y5442356D01*
X3659065Y5461571D01*
X3852261Y5500000D01*
X4147739Y5500000D01*
X4340935Y5461571D01*
X4340935Y5461571D01*
G37*
G36*
X21417649Y6217283D02*
X21456827Y6213424D01*
X21532228Y6190551D01*
X21607629Y6167679D01*
X21746608Y6093392D01*
X21868422Y5993422D01*
X21968392Y5871608D01*
X22042679Y5732629D01*
X22088424Y5581826D01*
X22103870Y5425000D01*
X22088424Y5268174D01*
X22042679Y5117371D01*
X21968392Y4978392D01*
X21868422Y4856578D01*
X21746608Y4756608D01*
X21607629Y4682321D01*
X21532227Y4659448D01*
X21456827Y4636576D01*
X21417649Y4632717D01*
X21339295Y4625000D01*
X20360705Y4625000D01*
X20282351Y4632717D01*
X20243173Y4636576D01*
X20167773Y4659448D01*
X20092371Y4682321D01*
X19953392Y4756608D01*
X19831578Y4856578D01*
X19731608Y4978392D01*
X19657321Y5117371D01*
X19611576Y5268174D01*
X19596130Y5425000D01*
X19611576Y5581826D01*
X19657321Y5732629D01*
X19731608Y5871608D01*
X19831578Y5993422D01*
X19953392Y6093392D01*
X20092371Y6167679D01*
X20167772Y6190551D01*
X20243173Y6213424D01*
X20282351Y6217283D01*
X20360705Y6225000D01*
X21339295Y6225000D01*
X21417649Y6217283D01*
X21417649Y6217283D01*
G37*
G36*
X13797649Y6217283D02*
X13836827Y6213424D01*
X13912228Y6190551D01*
X13987629Y6167679D01*
X14126608Y6093392D01*
X14248422Y5993422D01*
X14348392Y5871608D01*
X14422679Y5732629D01*
X14468424Y5581826D01*
X14483870Y5425000D01*
X14468424Y5268174D01*
X14422679Y5117371D01*
X14348392Y4978392D01*
X14248422Y4856578D01*
X14126608Y4756608D01*
X13987629Y4682321D01*
X13912227Y4659448D01*
X13836827Y4636576D01*
X13797649Y4632717D01*
X13719295Y4625000D01*
X12740705Y4625000D01*
X12662351Y4632717D01*
X12623173Y4636576D01*
X12547773Y4659448D01*
X12472371Y4682321D01*
X12333392Y4756608D01*
X12211578Y4856578D01*
X12111608Y4978392D01*
X12037321Y5117371D01*
X11991576Y5268174D01*
X11976130Y5425000D01*
X11991576Y5581826D01*
X12037321Y5732629D01*
X12111608Y5871608D01*
X12211578Y5993422D01*
X12333392Y6093392D01*
X12472371Y6167679D01*
X12547772Y6190551D01*
X12623173Y6213424D01*
X12662351Y6217283D01*
X12740705Y6225000D01*
X13719295Y6225000D01*
X13797649Y6217283D01*
X13797649Y6217283D01*
G37*
G36*
X33684000Y5166000D02*
X32084000Y5166000D01*
X32084000Y8666000D01*
X33684000Y8666000D01*
X33684000Y5166000D01*
X33684000Y5166000D01*
G37*
G36*
X59776432Y7886978D02*
X59946081Y7835515D01*
X60102433Y7751944D01*
X60239475Y7639475D01*
X60351944Y7502433D01*
X60435515Y7346081D01*
X60486978Y7176432D01*
X60504354Y7000000D01*
X60486978Y6823568D01*
X60435515Y6653919D01*
X60351944Y6497567D01*
X60239475Y6360525D01*
X60102433Y6248056D01*
X59946081Y6164485D01*
X59776432Y6113022D01*
X59644211Y6100000D01*
X58355789Y6100000D01*
X58223568Y6113022D01*
X58053919Y6164485D01*
X57897567Y6248056D01*
X57760525Y6360525D01*
X57648056Y6497567D01*
X57564485Y6653919D01*
X57513022Y6823568D01*
X57495646Y7000000D01*
X57513022Y7176432D01*
X57564485Y7346081D01*
X57648056Y7502433D01*
X57760525Y7639475D01*
X57897567Y7751944D01*
X58053919Y7835515D01*
X58223568Y7886978D01*
X58355789Y7900000D01*
X59644211Y7900000D01*
X59776432Y7886978D01*
X59776432Y7886978D01*
G37*
G36*
X21417649Y8757283D02*
X21456827Y8753424D01*
X21532228Y8730551D01*
X21607629Y8707679D01*
X21746608Y8633392D01*
X21868422Y8533422D01*
X21968392Y8411608D01*
X22042679Y8272629D01*
X22088424Y8121826D01*
X22103870Y7965000D01*
X22088424Y7808174D01*
X22042679Y7657371D01*
X21968392Y7518392D01*
X21868422Y7396578D01*
X21746608Y7296608D01*
X21607629Y7222321D01*
X21532228Y7199449D01*
X21456827Y7176576D01*
X21417649Y7172717D01*
X21339295Y7165000D01*
X20360705Y7165000D01*
X20282351Y7172717D01*
X20243173Y7176576D01*
X20167772Y7199449D01*
X20092371Y7222321D01*
X19953392Y7296608D01*
X19831578Y7396578D01*
X19731608Y7518392D01*
X19657321Y7657371D01*
X19611576Y7808174D01*
X19596130Y7965000D01*
X19611576Y8121826D01*
X19657321Y8272629D01*
X19731608Y8411608D01*
X19831578Y8533422D01*
X19953392Y8633392D01*
X20092371Y8707679D01*
X20167772Y8730551D01*
X20243173Y8753424D01*
X20282351Y8757283D01*
X20360705Y8765000D01*
X21339295Y8765000D01*
X21417649Y8757283D01*
X21417649Y8757283D01*
G37*
G36*
X13797649Y8757283D02*
X13836827Y8753424D01*
X13912228Y8730551D01*
X13987629Y8707679D01*
X14126608Y8633392D01*
X14248422Y8533422D01*
X14348392Y8411608D01*
X14422679Y8272629D01*
X14468424Y8121826D01*
X14483870Y7965000D01*
X14468424Y7808174D01*
X14422679Y7657371D01*
X14348392Y7518392D01*
X14248422Y7396578D01*
X14126608Y7296608D01*
X13987629Y7222321D01*
X13912228Y7199449D01*
X13836827Y7176576D01*
X13797649Y7172717D01*
X13719295Y7165000D01*
X12740705Y7165000D01*
X12662351Y7172717D01*
X12623173Y7176576D01*
X12547772Y7199449D01*
X12472371Y7222321D01*
X12333392Y7296608D01*
X12211578Y7396578D01*
X12111608Y7518392D01*
X12037321Y7657371D01*
X11991576Y7808174D01*
X11976130Y7965000D01*
X11991576Y8121826D01*
X12037321Y8272629D01*
X12111608Y8411608D01*
X12211578Y8533422D01*
X12333392Y8633392D01*
X12472371Y8707679D01*
X12547772Y8730551D01*
X12623173Y8753424D01*
X12662351Y8757283D01*
X12740705Y8765000D01*
X13719295Y8765000D01*
X13797649Y8757283D01*
X13797649Y8757283D01*
G37*
G36*
X53036000Y8008000D02*
X51436000Y8008000D01*
X51436000Y10608000D01*
X53036000Y10608000D01*
X53036000Y8008000D01*
X53036000Y8008000D01*
G37*
G36*
X42876000Y8008000D02*
X41276000Y8008000D01*
X41276000Y10608000D01*
X42876000Y10608000D01*
X42876000Y8008000D01*
X42876000Y8008000D01*
G37*
G36*
X59776432Y10426978D02*
X59946081Y10375515D01*
X60102433Y10291944D01*
X60239475Y10179475D01*
X60351944Y10042433D01*
X60435515Y9886081D01*
X60486978Y9716432D01*
X60504354Y9540000D01*
X60486978Y9363568D01*
X60435515Y9193919D01*
X60351944Y9037567D01*
X60239475Y8900525D01*
X60102433Y8788056D01*
X59946081Y8704485D01*
X59776432Y8653022D01*
X59644211Y8640000D01*
X58355789Y8640000D01*
X58223568Y8653022D01*
X58053919Y8704485D01*
X57897567Y8788056D01*
X57760525Y8900525D01*
X57648056Y9037567D01*
X57564485Y9193919D01*
X57513022Y9363568D01*
X57495646Y9540000D01*
X57513022Y9716432D01*
X57564485Y9886081D01*
X57648056Y10042433D01*
X57760525Y10179475D01*
X57897567Y10291944D01*
X58053919Y10375515D01*
X58223568Y10426978D01*
X58355789Y10440000D01*
X59644211Y10440000D01*
X59776432Y10426978D01*
X59776432Y10426978D01*
G37*
G36*
X13797649Y11297283D02*
X13836827Y11293424D01*
X13912228Y11270551D01*
X13987629Y11247679D01*
X14126608Y11173392D01*
X14248422Y11073422D01*
X14348392Y10951608D01*
X14422679Y10812629D01*
X14468424Y10661826D01*
X14483870Y10505000D01*
X14468424Y10348174D01*
X14422679Y10197371D01*
X14348392Y10058392D01*
X14248422Y9936578D01*
X14126608Y9836608D01*
X13987629Y9762321D01*
X13912228Y9739449D01*
X13836827Y9716576D01*
X13797649Y9712717D01*
X13719295Y9705000D01*
X12740705Y9705000D01*
X12662351Y9712717D01*
X12623173Y9716576D01*
X12547772Y9739449D01*
X12472371Y9762321D01*
X12333392Y9836608D01*
X12211578Y9936578D01*
X12111608Y10058392D01*
X12037321Y10197371D01*
X11991576Y10348174D01*
X11976130Y10505000D01*
X11991576Y10661826D01*
X12037321Y10812629D01*
X12111608Y10951608D01*
X12211578Y11073422D01*
X12333392Y11173392D01*
X12472371Y11247679D01*
X12547772Y11270551D01*
X12623173Y11293424D01*
X12662351Y11297283D01*
X12740705Y11305000D01*
X13719295Y11305000D01*
X13797649Y11297283D01*
X13797649Y11297283D01*
G37*
G36*
X21417649Y11297283D02*
X21456827Y11293424D01*
X21532228Y11270551D01*
X21607629Y11247679D01*
X21746608Y11173392D01*
X21868422Y11073422D01*
X21968392Y10951608D01*
X22042679Y10812629D01*
X22088424Y10661826D01*
X22103870Y10505000D01*
X22088424Y10348174D01*
X22042679Y10197371D01*
X21968392Y10058392D01*
X21868422Y9936578D01*
X21746608Y9836608D01*
X21607629Y9762321D01*
X21532228Y9739449D01*
X21456827Y9716576D01*
X21417649Y9712717D01*
X21339295Y9705000D01*
X20360705Y9705000D01*
X20282351Y9712717D01*
X20243173Y9716576D01*
X20167772Y9739449D01*
X20092371Y9762321D01*
X19953392Y9836608D01*
X19831578Y9936578D01*
X19731608Y10058392D01*
X19657321Y10197371D01*
X19611576Y10348174D01*
X19596130Y10505000D01*
X19611576Y10661826D01*
X19657321Y10812629D01*
X19731608Y10951608D01*
X19831578Y11073422D01*
X19953392Y11173392D01*
X20092371Y11247679D01*
X20167772Y11270551D01*
X20243173Y11293424D01*
X20282351Y11297283D01*
X20360705Y11305000D01*
X21339295Y11305000D01*
X21417649Y11297283D01*
X21417649Y11297283D01*
G37*
G36*
X33684000Y10566000D02*
X32084000Y10566000D01*
X32084000Y14066000D01*
X33684000Y14066000D01*
X33684000Y10566000D01*
X33684000Y10566000D01*
G37*
G36*
X60500000Y11180000D02*
X57500000Y11180000D01*
X57500000Y12980000D01*
X60500000Y12980000D01*
X60500000Y11180000D01*
X60500000Y11180000D01*
G37*
G36*
X9038964Y13201163D02*
X9070528Y13191588D01*
X9099617Y13176040D01*
X9125114Y13155114D01*
X9146040Y13129617D01*
X9161588Y13100528D01*
X9171163Y13068964D01*
X9175000Y13030002D01*
X9175000Y11629998D01*
X9171163Y11591036D01*
X9161588Y11559472D01*
X9146040Y11530383D01*
X9125114Y11504886D01*
X9099617Y11483960D01*
X9070528Y11468412D01*
X9038964Y11458837D01*
X9000002Y11455000D01*
X7924998Y11455000D01*
X7886036Y11458837D01*
X7854472Y11468412D01*
X7825383Y11483960D01*
X7799886Y11504886D01*
X7778960Y11530383D01*
X7763412Y11559472D01*
X7753837Y11591036D01*
X7750000Y11629998D01*
X7750000Y13030002D01*
X7753837Y13068964D01*
X7763412Y13100528D01*
X7778960Y13129617D01*
X7799886Y13155114D01*
X7825383Y13176040D01*
X7854472Y13191588D01*
X7886036Y13201163D01*
X7924998Y13205000D01*
X9000002Y13205000D01*
X9038964Y13201163D01*
X9038964Y13201163D01*
G37*
G36*
X6063964Y13201163D02*
X6095528Y13191588D01*
X6124617Y13176040D01*
X6150114Y13155114D01*
X6171040Y13129617D01*
X6186588Y13100528D01*
X6196163Y13068964D01*
X6200000Y13030002D01*
X6200000Y11629998D01*
X6196163Y11591036D01*
X6186588Y11559472D01*
X6171040Y11530383D01*
X6150114Y11504886D01*
X6124617Y11483960D01*
X6095528Y11468412D01*
X6063964Y11458837D01*
X6025002Y11455000D01*
X4949998Y11455000D01*
X4911036Y11458837D01*
X4879472Y11468412D01*
X4850383Y11483960D01*
X4824886Y11504886D01*
X4803960Y11530383D01*
X4788412Y11559472D01*
X4778837Y11591036D01*
X4775000Y11629998D01*
X4775000Y13030002D01*
X4778837Y13068964D01*
X4788412Y13100528D01*
X4803960Y13129617D01*
X4824886Y13155114D01*
X4850383Y13176040D01*
X4879472Y13191588D01*
X4911036Y13201163D01*
X4949998Y13205000D01*
X6025002Y13205000D01*
X6063964Y13201163D01*
X6063964Y13201163D01*
G37*
G36*
X42876000Y11608000D02*
X41276000Y11608000D01*
X41276000Y14208000D01*
X42876000Y14208000D01*
X42876000Y11608000D01*
X42876000Y11608000D01*
G37*
G36*
X53036000Y11608000D02*
X51436000Y11608000D01*
X51436000Y14208000D01*
X53036000Y14208000D01*
X53036000Y11608000D01*
X53036000Y11608000D01*
G37*
G36*
X21417649Y13837283D02*
X21456827Y13833424D01*
X21532228Y13810551D01*
X21607629Y13787679D01*
X21746608Y13713392D01*
X21868422Y13613422D01*
X21968392Y13491608D01*
X22042679Y13352629D01*
X22042679Y13352628D01*
X22088424Y13201827D01*
X22103870Y13045000D01*
X22099810Y13003773D01*
X22088424Y12888174D01*
X22042679Y12737371D01*
X21968392Y12598392D01*
X21868422Y12476578D01*
X21746608Y12376608D01*
X21607629Y12302321D01*
X21532227Y12279448D01*
X21456827Y12256576D01*
X21417649Y12252717D01*
X21339295Y12245000D01*
X20360705Y12245000D01*
X20282351Y12252717D01*
X20243173Y12256576D01*
X20167773Y12279448D01*
X20092371Y12302321D01*
X19953392Y12376608D01*
X19831578Y12476578D01*
X19731608Y12598392D01*
X19657321Y12737371D01*
X19611576Y12888174D01*
X19600191Y13003773D01*
X19596130Y13045000D01*
X19611576Y13201827D01*
X19657321Y13352628D01*
X19657321Y13352629D01*
X19731608Y13491608D01*
X19831578Y13613422D01*
X19953392Y13713392D01*
X20092371Y13787679D01*
X20167772Y13810551D01*
X20243173Y13833424D01*
X20282351Y13837283D01*
X20360705Y13845000D01*
X21339295Y13845000D01*
X21417649Y13837283D01*
X21417649Y13837283D01*
G37*
G36*
X13797649Y13837283D02*
X13836827Y13833424D01*
X13912228Y13810551D01*
X13987629Y13787679D01*
X14126608Y13713392D01*
X14248422Y13613422D01*
X14348392Y13491608D01*
X14422679Y13352629D01*
X14422679Y13352628D01*
X14468424Y13201827D01*
X14483870Y13045000D01*
X14479810Y13003773D01*
X14468424Y12888174D01*
X14422679Y12737371D01*
X14348392Y12598392D01*
X14248422Y12476578D01*
X14126608Y12376608D01*
X13987629Y12302321D01*
X13912227Y12279448D01*
X13836827Y12256576D01*
X13797649Y12252717D01*
X13719295Y12245000D01*
X12740705Y12245000D01*
X12662351Y12252717D01*
X12623173Y12256576D01*
X12547773Y12279448D01*
X12472371Y12302321D01*
X12333392Y12376608D01*
X12211578Y12476578D01*
X12111608Y12598392D01*
X12037321Y12737371D01*
X11991576Y12888174D01*
X11980191Y13003773D01*
X11976130Y13045000D01*
X11991576Y13201827D01*
X12037321Y13352628D01*
X12037321Y13352629D01*
X12111608Y13491608D01*
X12211578Y13613422D01*
X12333392Y13713392D01*
X12472371Y13787679D01*
X12547772Y13810551D01*
X12623173Y13833424D01*
X12662351Y13837283D01*
X12740705Y13845000D01*
X13719295Y13845000D01*
X13797649Y13837283D01*
X13797649Y13837283D01*
G37*
G36*
X96557649Y16092283D02*
X96596827Y16088424D01*
X96672227Y16065552D01*
X96747629Y16042679D01*
X96886608Y15968392D01*
X97008422Y15868422D01*
X97108392Y15746608D01*
X97182679Y15607629D01*
X97182679Y15607628D01*
X97228424Y15456827D01*
X97243870Y15300000D01*
X97228424Y15143173D01*
X97205551Y15067772D01*
X97182679Y14992371D01*
X97108392Y14853392D01*
X97008422Y14731578D01*
X96886608Y14631608D01*
X96747629Y14557321D01*
X96672227Y14534448D01*
X96596827Y14511576D01*
X96557649Y14507717D01*
X96479295Y14500000D01*
X95400705Y14500000D01*
X95322351Y14507717D01*
X95283173Y14511576D01*
X95207773Y14534448D01*
X95132371Y14557321D01*
X94993392Y14631608D01*
X94871578Y14731578D01*
X94771608Y14853392D01*
X94697321Y14992371D01*
X94674449Y15067772D01*
X94651576Y15143173D01*
X94636130Y15300000D01*
X94651576Y15456827D01*
X94697321Y15607628D01*
X94697321Y15607629D01*
X94771608Y15746608D01*
X94871578Y15868422D01*
X94993392Y15968392D01*
X95132371Y16042679D01*
X95207773Y16065552D01*
X95283173Y16088424D01*
X95322351Y16092283D01*
X95400705Y16100000D01*
X96479295Y16100000D01*
X96557649Y16092283D01*
X96557649Y16092283D01*
G37*
G36*
X93217649Y16092283D02*
X93256827Y16088424D01*
X93332227Y16065552D01*
X93407629Y16042679D01*
X93546608Y15968392D01*
X93668422Y15868422D01*
X93768392Y15746608D01*
X93842679Y15607629D01*
X93842679Y15607628D01*
X93888424Y15456827D01*
X93903870Y15300000D01*
X93888424Y15143173D01*
X93865551Y15067772D01*
X93842679Y14992371D01*
X93768392Y14853392D01*
X93668422Y14731578D01*
X93546608Y14631608D01*
X93407629Y14557321D01*
X93332227Y14534448D01*
X93256827Y14511576D01*
X93217649Y14507717D01*
X93139295Y14500000D01*
X92060705Y14500000D01*
X91982351Y14507717D01*
X91943173Y14511576D01*
X91867773Y14534448D01*
X91792371Y14557321D01*
X91653392Y14631608D01*
X91531578Y14731578D01*
X91431608Y14853392D01*
X91357321Y14992371D01*
X91334449Y15067772D01*
X91311576Y15143173D01*
X91296130Y15300000D01*
X91311576Y15456827D01*
X91357321Y15607628D01*
X91357321Y15607629D01*
X91431608Y15746608D01*
X91531578Y15868422D01*
X91653392Y15968392D01*
X91792371Y16042679D01*
X91867773Y16065552D01*
X91943173Y16088424D01*
X91982351Y16092283D01*
X92060705Y16100000D01*
X93139295Y16100000D01*
X93217649Y16092283D01*
X93217649Y16092283D01*
G37*
G36*
X13797649Y16377283D02*
X13836827Y16373424D01*
X13912228Y16350551D01*
X13987629Y16327679D01*
X14126608Y16253392D01*
X14248422Y16153422D01*
X14348392Y16031608D01*
X14422679Y15892629D01*
X14422679Y15892628D01*
X14466974Y15746608D01*
X14468424Y15741826D01*
X14483870Y15585000D01*
X14468424Y15428174D01*
X14422679Y15277371D01*
X14348392Y15138392D01*
X14248422Y15016578D01*
X14126608Y14916608D01*
X13987629Y14842321D01*
X13912227Y14819448D01*
X13836827Y14796576D01*
X13797649Y14792717D01*
X13719295Y14785000D01*
X12740705Y14785000D01*
X12662351Y14792717D01*
X12623173Y14796576D01*
X12547772Y14819449D01*
X12472371Y14842321D01*
X12333392Y14916608D01*
X12211578Y15016578D01*
X12111608Y15138392D01*
X12037321Y15277371D01*
X11991576Y15428174D01*
X11976130Y15585000D01*
X11991576Y15741826D01*
X11993027Y15746608D01*
X12037321Y15892628D01*
X12037321Y15892629D01*
X12111608Y16031608D01*
X12211578Y16153422D01*
X12333392Y16253392D01*
X12472371Y16327679D01*
X12547773Y16350552D01*
X12623173Y16373424D01*
X12662351Y16377283D01*
X12740705Y16385000D01*
X13719295Y16385000D01*
X13797649Y16377283D01*
X13797649Y16377283D01*
G37*
G36*
X21417649Y16377283D02*
X21456827Y16373424D01*
X21532228Y16350551D01*
X21607629Y16327679D01*
X21746608Y16253392D01*
X21868422Y16153422D01*
X21968392Y16031608D01*
X22042679Y15892629D01*
X22042679Y15892628D01*
X22086974Y15746608D01*
X22088424Y15741826D01*
X22103870Y15585000D01*
X22088424Y15428174D01*
X22042679Y15277371D01*
X21968392Y15138392D01*
X21868422Y15016578D01*
X21746608Y14916608D01*
X21607629Y14842321D01*
X21532227Y14819448D01*
X21456827Y14796576D01*
X21417649Y14792717D01*
X21339295Y14785000D01*
X20360705Y14785000D01*
X20282351Y14792717D01*
X20243173Y14796576D01*
X20167772Y14819449D01*
X20092371Y14842321D01*
X19953392Y14916608D01*
X19831578Y15016578D01*
X19731608Y15138392D01*
X19657321Y15277371D01*
X19611576Y15428174D01*
X19596130Y15585000D01*
X19611576Y15741826D01*
X19613027Y15746608D01*
X19657321Y15892628D01*
X19657321Y15892629D01*
X19731608Y16031608D01*
X19831578Y16153422D01*
X19953392Y16253392D01*
X20092371Y16327679D01*
X20167773Y16350552D01*
X20243173Y16373424D01*
X20282351Y16377283D01*
X20360705Y16385000D01*
X21339295Y16385000D01*
X21417649Y16377283D01*
X21417649Y16377283D01*
G37*
G36*
X96557649Y18632283D02*
X96596827Y18628424D01*
X96672227Y18605552D01*
X96747629Y18582679D01*
X96886608Y18508392D01*
X97008422Y18408422D01*
X97108392Y18286608D01*
X97182679Y18147629D01*
X97182679Y18147628D01*
X97228424Y17996827D01*
X97243870Y17840000D01*
X97228424Y17683173D01*
X97205552Y17607773D01*
X97182679Y17532371D01*
X97108392Y17393392D01*
X97008422Y17271578D01*
X96886608Y17171608D01*
X96747629Y17097321D01*
X96672227Y17074448D01*
X96596827Y17051576D01*
X96557649Y17047717D01*
X96479295Y17040000D01*
X95400705Y17040000D01*
X95322351Y17047717D01*
X95283173Y17051576D01*
X95207773Y17074448D01*
X95132371Y17097321D01*
X94993392Y17171608D01*
X94871578Y17271578D01*
X94771608Y17393392D01*
X94697321Y17532371D01*
X94674448Y17607773D01*
X94651576Y17683173D01*
X94636130Y17840000D01*
X94651576Y17996827D01*
X94697321Y18147628D01*
X94697321Y18147629D01*
X94771608Y18286608D01*
X94871578Y18408422D01*
X94993392Y18508392D01*
X95132371Y18582679D01*
X95207773Y18605552D01*
X95283173Y18628424D01*
X95322351Y18632283D01*
X95400705Y18640000D01*
X96479295Y18640000D01*
X96557649Y18632283D01*
X96557649Y18632283D01*
G37*
G36*
X93217649Y18632283D02*
X93256827Y18628424D01*
X93332227Y18605552D01*
X93407629Y18582679D01*
X93546608Y18508392D01*
X93668422Y18408422D01*
X93768392Y18286608D01*
X93842679Y18147629D01*
X93842679Y18147628D01*
X93888424Y17996827D01*
X93903870Y17840000D01*
X93888424Y17683173D01*
X93865552Y17607773D01*
X93842679Y17532371D01*
X93768392Y17393392D01*
X93668422Y17271578D01*
X93546608Y17171608D01*
X93407629Y17097321D01*
X93332227Y17074448D01*
X93256827Y17051576D01*
X93217649Y17047717D01*
X93139295Y17040000D01*
X92060705Y17040000D01*
X91982351Y17047717D01*
X91943173Y17051576D01*
X91867773Y17074448D01*
X91792371Y17097321D01*
X91653392Y17171608D01*
X91531578Y17271578D01*
X91431608Y17393392D01*
X91357321Y17532371D01*
X91334448Y17607773D01*
X91311576Y17683173D01*
X91296130Y17840000D01*
X91311576Y17996827D01*
X91357321Y18147628D01*
X91357321Y18147629D01*
X91431608Y18286608D01*
X91531578Y18408422D01*
X91653392Y18508392D01*
X91792371Y18582679D01*
X91867773Y18605552D01*
X91943173Y18628424D01*
X91982351Y18632283D01*
X92060705Y18640000D01*
X93139295Y18640000D01*
X93217649Y18632283D01*
X93217649Y18632283D01*
G37*
G36*
X21389755Y18920030D02*
X21456827Y18913424D01*
X21497783Y18901000D01*
X21607629Y18867679D01*
X21746608Y18793392D01*
X21868422Y18693422D01*
X21968392Y18571608D01*
X22042679Y18432629D01*
X22042679Y18432628D01*
X22086974Y18286608D01*
X22088424Y18281826D01*
X22103870Y18125000D01*
X22088424Y17968174D01*
X22042679Y17817371D01*
X21968392Y17678392D01*
X21868422Y17556578D01*
X21746608Y17456608D01*
X21607629Y17382321D01*
X21532228Y17359449D01*
X21456827Y17336576D01*
X21417649Y17332717D01*
X21339295Y17325000D01*
X20360705Y17325000D01*
X20282351Y17332717D01*
X20243173Y17336576D01*
X20167772Y17359449D01*
X20092371Y17382321D01*
X19953392Y17456608D01*
X19831578Y17556578D01*
X19731608Y17678392D01*
X19657321Y17817371D01*
X19611576Y17968174D01*
X19596130Y18125000D01*
X19611576Y18281826D01*
X19613027Y18286608D01*
X19657321Y18432628D01*
X19657321Y18432629D01*
X19731608Y18571608D01*
X19831578Y18693422D01*
X19953392Y18793392D01*
X20092371Y18867679D01*
X20202217Y18901000D01*
X20243173Y18913424D01*
X20310245Y18920030D01*
X20360705Y18925000D01*
X21339295Y18925000D01*
X21389755Y18920030D01*
X21389755Y18920030D01*
G37*
G36*
X13769755Y18920030D02*
X13836827Y18913424D01*
X13877783Y18901000D01*
X13987629Y18867679D01*
X14126608Y18793392D01*
X14248422Y18693422D01*
X14348392Y18571608D01*
X14422679Y18432629D01*
X14422679Y18432628D01*
X14466974Y18286608D01*
X14468424Y18281826D01*
X14483870Y18125000D01*
X14468424Y17968174D01*
X14422679Y17817371D01*
X14348392Y17678392D01*
X14248422Y17556578D01*
X14126608Y17456608D01*
X13987629Y17382321D01*
X13912228Y17359449D01*
X13836827Y17336576D01*
X13797649Y17332717D01*
X13719295Y17325000D01*
X12740705Y17325000D01*
X12662351Y17332717D01*
X12623173Y17336576D01*
X12547772Y17359449D01*
X12472371Y17382321D01*
X12333392Y17456608D01*
X12211578Y17556578D01*
X12111608Y17678392D01*
X12037321Y17817371D01*
X11991576Y17968174D01*
X11976130Y18125000D01*
X11991576Y18281826D01*
X11993027Y18286608D01*
X12037321Y18432628D01*
X12037321Y18432629D01*
X12111608Y18571608D01*
X12211578Y18693422D01*
X12333392Y18793392D01*
X12472371Y18867679D01*
X12582217Y18901000D01*
X12623173Y18913424D01*
X12690245Y18920030D01*
X12740705Y18925000D01*
X13719295Y18925000D01*
X13769755Y18920030D01*
X13769755Y18920030D01*
G37*
G36*
X7237521Y19745414D02*
X7401309Y19677571D01*
X7548720Y19579074D01*
X7674074Y19453720D01*
X7772571Y19306309D01*
X7840414Y19142521D01*
X7875000Y18968644D01*
X7875000Y18791356D01*
X7840414Y18617479D01*
X7772571Y18453691D01*
X7674074Y18306280D01*
X7548720Y18180926D01*
X7401309Y18082429D01*
X7237521Y18014586D01*
X7063644Y17980000D01*
X6886356Y17980000D01*
X6712479Y18014586D01*
X6548691Y18082429D01*
X6401280Y18180926D01*
X6275926Y18306280D01*
X6177429Y18453691D01*
X6109586Y18617479D01*
X6075000Y18791356D01*
X6075000Y18968644D01*
X6109586Y19142521D01*
X6177429Y19306309D01*
X6275926Y19453720D01*
X6401280Y19579074D01*
X6548691Y19677571D01*
X6712479Y19745414D01*
X6886356Y19780000D01*
X7063644Y19780000D01*
X7237521Y19745414D01*
X7237521Y19745414D01*
G37*
G36*
X75936000Y18485000D02*
X73336000Y18485000D01*
X73336000Y20085000D01*
X75936000Y20085000D01*
X75936000Y18485000D01*
X75936000Y18485000D01*
G37*
G36*
X55203964Y20647163D02*
X55235528Y20637588D01*
X55264617Y20622040D01*
X55290114Y20601114D01*
X55311040Y20575617D01*
X55326588Y20546528D01*
X55336163Y20514964D01*
X55340000Y20476002D01*
X55340000Y19075998D01*
X55336163Y19037036D01*
X55326588Y19005472D01*
X55311040Y18976383D01*
X55290114Y18950886D01*
X55264617Y18929960D01*
X55235528Y18914412D01*
X55203964Y18904837D01*
X55165002Y18901000D01*
X54089998Y18901000D01*
X54051036Y18904837D01*
X54019472Y18914412D01*
X53990383Y18929960D01*
X53964886Y18950886D01*
X53943960Y18976383D01*
X53928412Y19005472D01*
X53918837Y19037036D01*
X53915000Y19075998D01*
X53915000Y20476002D01*
X53918837Y20514964D01*
X53928412Y20546528D01*
X53943960Y20575617D01*
X53964886Y20601114D01*
X53990383Y20622040D01*
X54019472Y20637588D01*
X54051036Y20647163D01*
X54089998Y20651000D01*
X55165002Y20651000D01*
X55203964Y20647163D01*
X55203964Y20647163D01*
G37*
G36*
X52228964Y20647163D02*
X52260528Y20637588D01*
X52289617Y20622040D01*
X52315114Y20601114D01*
X52336040Y20575617D01*
X52351588Y20546528D01*
X52361163Y20514964D01*
X52365000Y20476002D01*
X52365000Y19075998D01*
X52361163Y19037036D01*
X52351588Y19005472D01*
X52336040Y18976383D01*
X52315114Y18950886D01*
X52289617Y18929960D01*
X52260528Y18914412D01*
X52228964Y18904837D01*
X52190002Y18901000D01*
X51114998Y18901000D01*
X51076036Y18904837D01*
X51044472Y18914412D01*
X51015383Y18929960D01*
X50989886Y18950886D01*
X50968960Y18976383D01*
X50953412Y19005472D01*
X50943837Y19037036D01*
X50940000Y19075998D01*
X50940000Y20476002D01*
X50943837Y20514964D01*
X50953412Y20546528D01*
X50968960Y20575617D01*
X50989886Y20601114D01*
X51015383Y20622040D01*
X51044472Y20637588D01*
X51076036Y20647163D01*
X51114998Y20651000D01*
X52190002Y20651000D01*
X52228964Y20647163D01*
X52228964Y20647163D01*
G37*
G36*
X44962649Y20822283D02*
X45001827Y20818424D01*
X45077227Y20795552D01*
X45152629Y20772679D01*
X45291608Y20698392D01*
X45413422Y20598422D01*
X45513392Y20476608D01*
X45587679Y20337629D01*
X45587679Y20337628D01*
X45633424Y20186827D01*
X45648870Y20030000D01*
X45633424Y19873173D01*
X45614739Y19811578D01*
X45587679Y19722371D01*
X45513392Y19583392D01*
X45413422Y19461578D01*
X45291608Y19361608D01*
X45152629Y19287321D01*
X45077228Y19264449D01*
X45001827Y19241576D01*
X44962649Y19237717D01*
X44884295Y19230000D01*
X43805705Y19230000D01*
X43727351Y19237717D01*
X43688173Y19241576D01*
X43612773Y19264448D01*
X43537371Y19287321D01*
X43398392Y19361608D01*
X43276578Y19461578D01*
X43176608Y19583392D01*
X43102321Y19722371D01*
X43075261Y19811578D01*
X43056576Y19873173D01*
X43041130Y20030000D01*
X43056576Y20186827D01*
X43102321Y20337628D01*
X43102321Y20337629D01*
X43176608Y20476608D01*
X43276578Y20598422D01*
X43398392Y20698392D01*
X43537371Y20772679D01*
X43612773Y20795552D01*
X43688173Y20818424D01*
X43727351Y20822283D01*
X43805705Y20830000D01*
X44884295Y20830000D01*
X44962649Y20822283D01*
X44962649Y20822283D01*
G37*
G36*
X32262649Y20822283D02*
X32301827Y20818424D01*
X32377227Y20795552D01*
X32452629Y20772679D01*
X32591608Y20698392D01*
X32713422Y20598422D01*
X32813392Y20476608D01*
X32887679Y20337629D01*
X32887679Y20337628D01*
X32933424Y20186827D01*
X32948870Y20030000D01*
X32933424Y19873173D01*
X32914739Y19811578D01*
X32887679Y19722371D01*
X32813392Y19583392D01*
X32713422Y19461578D01*
X32591608Y19361608D01*
X32452629Y19287321D01*
X32377228Y19264449D01*
X32301827Y19241576D01*
X32262649Y19237717D01*
X32184295Y19230000D01*
X31105705Y19230000D01*
X31027351Y19237717D01*
X30988173Y19241576D01*
X30912773Y19264448D01*
X30837371Y19287321D01*
X30698392Y19361608D01*
X30576578Y19461578D01*
X30476608Y19583392D01*
X30402321Y19722371D01*
X30375261Y19811578D01*
X30356576Y19873173D01*
X30341130Y20030000D01*
X30356576Y20186827D01*
X30402321Y20337628D01*
X30402321Y20337629D01*
X30476608Y20476608D01*
X30576578Y20598422D01*
X30698392Y20698392D01*
X30837371Y20772679D01*
X30912773Y20795552D01*
X30988173Y20818424D01*
X31027351Y20822283D01*
X31105705Y20830000D01*
X32184295Y20830000D01*
X32262649Y20822283D01*
X32262649Y20822283D01*
G37*
G36*
X93217649Y21172283D02*
X93256827Y21168424D01*
X93295779Y21156608D01*
X93407629Y21122679D01*
X93546608Y21048392D01*
X93668422Y20948422D01*
X93768392Y20826608D01*
X93842679Y20687629D01*
X93859563Y20631970D01*
X93888424Y20536827D01*
X93903870Y20380000D01*
X93888424Y20223173D01*
X93877398Y20186826D01*
X93842679Y20072371D01*
X93768392Y19933392D01*
X93668422Y19811578D01*
X93546608Y19711608D01*
X93407629Y19637321D01*
X93332227Y19614448D01*
X93256827Y19591576D01*
X93217649Y19587717D01*
X93139295Y19580000D01*
X92060705Y19580000D01*
X91982351Y19587717D01*
X91943173Y19591576D01*
X91867773Y19614448D01*
X91792371Y19637321D01*
X91653392Y19711608D01*
X91531578Y19811578D01*
X91431608Y19933392D01*
X91357321Y20072371D01*
X91322602Y20186826D01*
X91311576Y20223173D01*
X91296130Y20380000D01*
X91311576Y20536827D01*
X91340437Y20631970D01*
X91357321Y20687629D01*
X91431608Y20826608D01*
X91531578Y20948422D01*
X91653392Y21048392D01*
X91792371Y21122679D01*
X91904221Y21156608D01*
X91943173Y21168424D01*
X91982351Y21172283D01*
X92060705Y21180000D01*
X93139295Y21180000D01*
X93217649Y21172283D01*
X93217649Y21172283D01*
G37*
G36*
X96557649Y21172283D02*
X96596827Y21168424D01*
X96635779Y21156608D01*
X96747629Y21122679D01*
X96886608Y21048392D01*
X97008422Y20948422D01*
X97108392Y20826608D01*
X97182679Y20687629D01*
X97199563Y20631970D01*
X97228424Y20536827D01*
X97243870Y20380000D01*
X97228424Y20223173D01*
X97217398Y20186826D01*
X97182679Y20072371D01*
X97108392Y19933392D01*
X97008422Y19811578D01*
X96886608Y19711608D01*
X96747629Y19637321D01*
X96672227Y19614448D01*
X96596827Y19591576D01*
X96557649Y19587717D01*
X96479295Y19580000D01*
X95400705Y19580000D01*
X95322351Y19587717D01*
X95283173Y19591576D01*
X95207773Y19614448D01*
X95132371Y19637321D01*
X94993392Y19711608D01*
X94871578Y19811578D01*
X94771608Y19933392D01*
X94697321Y20072371D01*
X94662602Y20186826D01*
X94651576Y20223173D01*
X94636130Y20380000D01*
X94651576Y20536827D01*
X94680437Y20631970D01*
X94697321Y20687629D01*
X94771608Y20826608D01*
X94871578Y20948422D01*
X94993392Y21048392D01*
X95132371Y21122679D01*
X95244221Y21156608D01*
X95283173Y21168424D01*
X95322351Y21172283D01*
X95400705Y21180000D01*
X96479295Y21180000D01*
X96557649Y21172283D01*
X96557649Y21172283D01*
G37*
G36*
X21417649Y21457283D02*
X21456827Y21453424D01*
X21532228Y21430551D01*
X21607629Y21407679D01*
X21746608Y21333392D01*
X21868422Y21233422D01*
X21968392Y21111608D01*
X22042679Y20972629D01*
X22042679Y20972628D01*
X22088424Y20821827D01*
X22103870Y20665000D01*
X22088424Y20508173D01*
X22065552Y20432773D01*
X22042679Y20357371D01*
X21968392Y20218392D01*
X21868422Y20096578D01*
X21746608Y19996608D01*
X21607629Y19922321D01*
X21532227Y19899448D01*
X21456827Y19876576D01*
X21422286Y19873174D01*
X21339295Y19865000D01*
X20360705Y19865000D01*
X20277714Y19873174D01*
X20243173Y19876576D01*
X20167773Y19899448D01*
X20092371Y19922321D01*
X19953392Y19996608D01*
X19831578Y20096578D01*
X19731608Y20218392D01*
X19657321Y20357371D01*
X19634448Y20432773D01*
X19611576Y20508173D01*
X19596130Y20665000D01*
X19611576Y20821827D01*
X19657321Y20972628D01*
X19657321Y20972629D01*
X19731608Y21111608D01*
X19831578Y21233422D01*
X19953392Y21333392D01*
X20092371Y21407679D01*
X20167772Y21430551D01*
X20243173Y21453424D01*
X20282351Y21457283D01*
X20360705Y21465000D01*
X21339295Y21465000D01*
X21417649Y21457283D01*
X21417649Y21457283D01*
G37*
G36*
X13797649Y21457283D02*
X13836827Y21453424D01*
X13912228Y21430551D01*
X13987629Y21407679D01*
X14126608Y21333392D01*
X14248422Y21233422D01*
X14348392Y21111608D01*
X14422679Y20972629D01*
X14422679Y20972628D01*
X14468424Y20821827D01*
X14483870Y20665000D01*
X14468424Y20508173D01*
X14445552Y20432773D01*
X14422679Y20357371D01*
X14348392Y20218392D01*
X14248422Y20096578D01*
X14126608Y19996608D01*
X13987629Y19922321D01*
X13912227Y19899448D01*
X13836827Y19876576D01*
X13802286Y19873174D01*
X13719295Y19865000D01*
X12740705Y19865000D01*
X12657714Y19873174D01*
X12623173Y19876576D01*
X12547773Y19899448D01*
X12472371Y19922321D01*
X12333392Y19996608D01*
X12211578Y20096578D01*
X12111608Y20218392D01*
X12037321Y20357371D01*
X12014448Y20432773D01*
X11991576Y20508173D01*
X11976130Y20665000D01*
X11991576Y20821827D01*
X12037321Y20972628D01*
X12037321Y20972629D01*
X12111608Y21111608D01*
X12211578Y21233422D01*
X12333392Y21333392D01*
X12472371Y21407679D01*
X12547772Y21430551D01*
X12623173Y21453424D01*
X12662351Y21457283D01*
X12740705Y21465000D01*
X13719295Y21465000D01*
X13797649Y21457283D01*
X13797649Y21457283D01*
G37*
G36*
X75253649Y22617283D02*
X75292827Y22613424D01*
X75368227Y22590552D01*
X75443629Y22567679D01*
X75582608Y22493392D01*
X75704422Y22393422D01*
X75804392Y22271608D01*
X75878679Y22132629D01*
X75878679Y22132628D01*
X75918433Y22001578D01*
X75924424Y21981826D01*
X75939870Y21825000D01*
X75924424Y21668174D01*
X75878679Y21517371D01*
X75804392Y21378392D01*
X75704422Y21256578D01*
X75582608Y21156608D01*
X75443629Y21082321D01*
X75368228Y21059449D01*
X75292827Y21036576D01*
X75253649Y21032717D01*
X75175295Y21025000D01*
X74096705Y21025000D01*
X74018351Y21032717D01*
X73979173Y21036576D01*
X73903772Y21059449D01*
X73828371Y21082321D01*
X73689392Y21156608D01*
X73567578Y21256578D01*
X73467608Y21378392D01*
X73393321Y21517371D01*
X73347576Y21668174D01*
X73332130Y21825000D01*
X73347576Y21981826D01*
X73353568Y22001578D01*
X73393321Y22132628D01*
X73393321Y22132629D01*
X73467608Y22271608D01*
X73567578Y22393422D01*
X73689392Y22493392D01*
X73828371Y22567679D01*
X73903772Y22590551D01*
X73979173Y22613424D01*
X74018351Y22617283D01*
X74096705Y22625000D01*
X75175295Y22625000D01*
X75253649Y22617283D01*
X75253649Y22617283D01*
G37*
G36*
X32262649Y23362283D02*
X32301827Y23358424D01*
X32377227Y23335552D01*
X32452629Y23312679D01*
X32591608Y23238392D01*
X32713422Y23138422D01*
X32813392Y23016608D01*
X32887679Y22877629D01*
X32910551Y22802228D01*
X32933424Y22726827D01*
X32948870Y22570000D01*
X32933424Y22413173D01*
X32914739Y22351578D01*
X32887679Y22262371D01*
X32813392Y22123392D01*
X32713422Y22001578D01*
X32591608Y21901608D01*
X32452629Y21827321D01*
X32377227Y21804448D01*
X32301827Y21781576D01*
X32262649Y21777717D01*
X32184295Y21770000D01*
X31105705Y21770000D01*
X31027351Y21777717D01*
X30988173Y21781576D01*
X30912773Y21804448D01*
X30837371Y21827321D01*
X30698392Y21901608D01*
X30576578Y22001578D01*
X30476608Y22123392D01*
X30402321Y22262371D01*
X30375261Y22351578D01*
X30356576Y22413173D01*
X30341130Y22570000D01*
X30356576Y22726827D01*
X30379448Y22802227D01*
X30402321Y22877629D01*
X30476608Y23016608D01*
X30576578Y23138422D01*
X30698392Y23238392D01*
X30837371Y23312679D01*
X30912772Y23335551D01*
X30988173Y23358424D01*
X31027351Y23362283D01*
X31105705Y23370000D01*
X32184295Y23370000D01*
X32262649Y23362283D01*
X32262649Y23362283D01*
G37*
G36*
X44962649Y23362283D02*
X45001827Y23358424D01*
X45077227Y23335552D01*
X45152629Y23312679D01*
X45291608Y23238392D01*
X45413422Y23138422D01*
X45513392Y23016608D01*
X45587679Y22877629D01*
X45610551Y22802228D01*
X45633424Y22726827D01*
X45648870Y22570000D01*
X45633424Y22413173D01*
X45614739Y22351578D01*
X45587679Y22262371D01*
X45513392Y22123392D01*
X45413422Y22001578D01*
X45291608Y21901608D01*
X45152629Y21827321D01*
X45077227Y21804448D01*
X45001827Y21781576D01*
X44962649Y21777717D01*
X44884295Y21770000D01*
X43805705Y21770000D01*
X43727351Y21777717D01*
X43688173Y21781576D01*
X43612773Y21804448D01*
X43537371Y21827321D01*
X43398392Y21901608D01*
X43276578Y22001578D01*
X43176608Y22123392D01*
X43102321Y22262371D01*
X43075261Y22351578D01*
X43056576Y22413173D01*
X43041130Y22570000D01*
X43056576Y22726827D01*
X43079448Y22802227D01*
X43102321Y22877629D01*
X43176608Y23016608D01*
X43276578Y23138422D01*
X43398392Y23238392D01*
X43537371Y23312679D01*
X43612772Y23335551D01*
X43688173Y23358424D01*
X43727351Y23362283D01*
X43805705Y23370000D01*
X44884295Y23370000D01*
X44962649Y23362283D01*
X44962649Y23362283D01*
G37*
G36*
X96557649Y23712283D02*
X96596827Y23708424D01*
X96635779Y23696608D01*
X96747629Y23662679D01*
X96886608Y23588392D01*
X97008422Y23488422D01*
X97108392Y23366608D01*
X97182679Y23227629D01*
X97182679Y23227628D01*
X97228424Y23076827D01*
X97243870Y22920000D01*
X97228424Y22763173D01*
X97217398Y22726826D01*
X97182679Y22612371D01*
X97108392Y22473392D01*
X97008422Y22351578D01*
X96886608Y22251608D01*
X96747629Y22177321D01*
X96672227Y22154448D01*
X96596827Y22131576D01*
X96557649Y22127717D01*
X96479295Y22120000D01*
X95400705Y22120000D01*
X95322351Y22127717D01*
X95283173Y22131576D01*
X95207772Y22154449D01*
X95132371Y22177321D01*
X94993392Y22251608D01*
X94871578Y22351578D01*
X94771608Y22473392D01*
X94697321Y22612371D01*
X94662602Y22726826D01*
X94651576Y22763173D01*
X94636130Y22920000D01*
X94651576Y23076827D01*
X94697321Y23227628D01*
X94697321Y23227629D01*
X94771608Y23366608D01*
X94871578Y23488422D01*
X94993392Y23588392D01*
X95132371Y23662679D01*
X95244221Y23696608D01*
X95283173Y23708424D01*
X95322351Y23712283D01*
X95400705Y23720000D01*
X96479295Y23720000D01*
X96557649Y23712283D01*
X96557649Y23712283D01*
G37*
G36*
X93217649Y23712283D02*
X93256827Y23708424D01*
X93295779Y23696608D01*
X93407629Y23662679D01*
X93546608Y23588392D01*
X93668422Y23488422D01*
X93768392Y23366608D01*
X93842679Y23227629D01*
X93842679Y23227628D01*
X93888424Y23076827D01*
X93903870Y22920000D01*
X93888424Y22763173D01*
X93877398Y22726826D01*
X93842679Y22612371D01*
X93768392Y22473392D01*
X93668422Y22351578D01*
X93546608Y22251608D01*
X93407629Y22177321D01*
X93332227Y22154448D01*
X93256827Y22131576D01*
X93217649Y22127717D01*
X93139295Y22120000D01*
X92060705Y22120000D01*
X91982351Y22127717D01*
X91943173Y22131576D01*
X91867772Y22154449D01*
X91792371Y22177321D01*
X91653392Y22251608D01*
X91531578Y22351578D01*
X91431608Y22473392D01*
X91357321Y22612371D01*
X91322602Y22726826D01*
X91311576Y22763173D01*
X91296130Y22920000D01*
X91311576Y23076827D01*
X91357321Y23227628D01*
X91357321Y23227629D01*
X91431608Y23366608D01*
X91531578Y23488422D01*
X91653392Y23588392D01*
X91792371Y23662679D01*
X91904221Y23696608D01*
X91943173Y23708424D01*
X91982351Y23712283D01*
X92060705Y23720000D01*
X93139295Y23720000D01*
X93217649Y23712283D01*
X93217649Y23712283D01*
G37*
G36*
X21417649Y23997283D02*
X21456827Y23993424D01*
X21532228Y23970551D01*
X21607629Y23947679D01*
X21746608Y23873392D01*
X21868422Y23773422D01*
X21968392Y23651608D01*
X22042679Y23512629D01*
X22050022Y23488422D01*
X22086974Y23366608D01*
X22088424Y23361826D01*
X22103870Y23205000D01*
X22088424Y23048174D01*
X22042679Y22897371D01*
X21968392Y22758392D01*
X21868422Y22636578D01*
X21746608Y22536608D01*
X21607629Y22462321D01*
X21532227Y22439448D01*
X21456827Y22416576D01*
X21422286Y22413174D01*
X21339295Y22405000D01*
X20360705Y22405000D01*
X20277714Y22413174D01*
X20243173Y22416576D01*
X20167773Y22439448D01*
X20092371Y22462321D01*
X19953392Y22536608D01*
X19831578Y22636578D01*
X19731608Y22758392D01*
X19657321Y22897371D01*
X19611576Y23048174D01*
X19596130Y23205000D01*
X19611576Y23361826D01*
X19613027Y23366608D01*
X19649978Y23488422D01*
X19657321Y23512629D01*
X19731608Y23651608D01*
X19831578Y23773422D01*
X19953392Y23873392D01*
X20092371Y23947679D01*
X20167772Y23970551D01*
X20243173Y23993424D01*
X20282351Y23997283D01*
X20360705Y24005000D01*
X21339295Y24005000D01*
X21417649Y23997283D01*
X21417649Y23997283D01*
G37*
G36*
X13797649Y23997283D02*
X13836827Y23993424D01*
X13912228Y23970551D01*
X13987629Y23947679D01*
X14126608Y23873392D01*
X14248422Y23773422D01*
X14348392Y23651608D01*
X14422679Y23512629D01*
X14430022Y23488422D01*
X14466974Y23366608D01*
X14468424Y23361826D01*
X14483870Y23205000D01*
X14468424Y23048174D01*
X14422679Y22897371D01*
X14348392Y22758392D01*
X14248422Y22636578D01*
X14126608Y22536608D01*
X13987629Y22462321D01*
X13912227Y22439448D01*
X13836827Y22416576D01*
X13802286Y22413174D01*
X13719295Y22405000D01*
X12740705Y22405000D01*
X12657714Y22413174D01*
X12623173Y22416576D01*
X12547773Y22439448D01*
X12472371Y22462321D01*
X12333392Y22536608D01*
X12211578Y22636578D01*
X12111608Y22758392D01*
X12037321Y22897371D01*
X11991576Y23048174D01*
X11976130Y23205000D01*
X11991576Y23361826D01*
X11993027Y23366608D01*
X12029978Y23488422D01*
X12037321Y23512629D01*
X12111608Y23651608D01*
X12211578Y23773422D01*
X12333392Y23873392D01*
X12472371Y23947679D01*
X12547772Y23970551D01*
X12623173Y23993424D01*
X12662351Y23997283D01*
X12740705Y24005000D01*
X13719295Y24005000D01*
X13797649Y23997283D01*
X13797649Y23997283D01*
G37*
G36*
X7237521Y24625414D02*
X7401309Y24557571D01*
X7548720Y24459074D01*
X7674074Y24333720D01*
X7772571Y24186309D01*
X7840414Y24022521D01*
X7875000Y23848644D01*
X7875000Y23671356D01*
X7840414Y23497479D01*
X7772571Y23333691D01*
X7674074Y23186280D01*
X7548720Y23060926D01*
X7401309Y22962429D01*
X7237521Y22894586D01*
X7063644Y22860000D01*
X6886356Y22860000D01*
X6712479Y22894586D01*
X6548691Y22962429D01*
X6401280Y23060926D01*
X6275926Y23186280D01*
X6177429Y23333691D01*
X6109586Y23497479D01*
X6075000Y23671356D01*
X6075000Y23848644D01*
X6109586Y24022521D01*
X6177429Y24186309D01*
X6275926Y24333720D01*
X6401280Y24459074D01*
X6548691Y24557571D01*
X6712479Y24625414D01*
X6886356Y24660000D01*
X7063644Y24660000D01*
X7237521Y24625414D01*
X7237521Y24625414D01*
G37*
G36*
X75253649Y25157283D02*
X75292827Y25153424D01*
X75360037Y25133036D01*
X75443629Y25107679D01*
X75582608Y25033392D01*
X75704422Y24933422D01*
X75804392Y24811608D01*
X75878679Y24672629D01*
X75893001Y24625414D01*
X75924424Y24521827D01*
X75939870Y24365000D01*
X75924424Y24208173D01*
X75906215Y24148145D01*
X75878679Y24057371D01*
X75804392Y23918392D01*
X75704422Y23796578D01*
X75582608Y23696608D01*
X75443629Y23622321D01*
X75368228Y23599449D01*
X75292827Y23576576D01*
X75253649Y23572717D01*
X75175295Y23565000D01*
X74096705Y23565000D01*
X74018351Y23572717D01*
X73979173Y23576576D01*
X73903772Y23599449D01*
X73828371Y23622321D01*
X73689392Y23696608D01*
X73567578Y23796578D01*
X73467608Y23918392D01*
X73393321Y24057371D01*
X73365785Y24148145D01*
X73347576Y24208173D01*
X73332130Y24365000D01*
X73347576Y24521827D01*
X73378999Y24625414D01*
X73393321Y24672629D01*
X73467608Y24811608D01*
X73567578Y24933422D01*
X73689392Y25033392D01*
X73828371Y25107679D01*
X73911963Y25133036D01*
X73979173Y25153424D01*
X74018351Y25157283D01*
X74096705Y25165000D01*
X75175295Y25165000D01*
X75253649Y25157283D01*
X75253649Y25157283D01*
G37*
G36*
X64041630Y25312701D02*
X64201855Y25264097D01*
X64349520Y25185169D01*
X64478949Y25078949D01*
X64585169Y24949520D01*
X64664097Y24801855D01*
X64712701Y24641630D01*
X64729112Y24475000D01*
X64712701Y24308370D01*
X64664097Y24148145D01*
X64585169Y24000480D01*
X64478949Y23871051D01*
X64349520Y23764831D01*
X64201855Y23685903D01*
X64041630Y23637299D01*
X63916752Y23625000D01*
X63033248Y23625000D01*
X62908370Y23637299D01*
X62748145Y23685903D01*
X62600480Y23764831D01*
X62471051Y23871051D01*
X62364831Y24000480D01*
X62285903Y24148145D01*
X62237299Y24308370D01*
X62220888Y24475000D01*
X62237299Y24641630D01*
X62285903Y24801855D01*
X62364831Y24949520D01*
X62471051Y25078949D01*
X62600480Y25185169D01*
X62748145Y25264097D01*
X62908370Y25312701D01*
X63033248Y25325000D01*
X63916752Y25325000D01*
X64041630Y25312701D01*
X64041630Y25312701D01*
G37*
G36*
X44962649Y25902283D02*
X45001827Y25898424D01*
X45077227Y25875552D01*
X45152629Y25852679D01*
X45291608Y25778392D01*
X45413422Y25678422D01*
X45513392Y25556608D01*
X45587679Y25417629D01*
X45587679Y25417628D01*
X45633424Y25266827D01*
X45648870Y25110000D01*
X45633424Y24953173D01*
X45614739Y24891578D01*
X45587679Y24802371D01*
X45513392Y24663392D01*
X45413422Y24541578D01*
X45291608Y24441608D01*
X45152629Y24367321D01*
X45077227Y24344448D01*
X45001827Y24321576D01*
X44962649Y24317717D01*
X44884295Y24310000D01*
X43805705Y24310000D01*
X43727351Y24317717D01*
X43688173Y24321576D01*
X43612773Y24344448D01*
X43537371Y24367321D01*
X43398392Y24441608D01*
X43276578Y24541578D01*
X43176608Y24663392D01*
X43102321Y24802371D01*
X43075261Y24891578D01*
X43056576Y24953173D01*
X43041130Y25110000D01*
X43056576Y25266827D01*
X43102321Y25417628D01*
X43102321Y25417629D01*
X43176608Y25556608D01*
X43276578Y25678422D01*
X43398392Y25778392D01*
X43537371Y25852679D01*
X43612773Y25875552D01*
X43688173Y25898424D01*
X43727351Y25902283D01*
X43805705Y25910000D01*
X44884295Y25910000D01*
X44962649Y25902283D01*
X44962649Y25902283D01*
G37*
G36*
X32262649Y25902283D02*
X32301827Y25898424D01*
X32377227Y25875552D01*
X32452629Y25852679D01*
X32591608Y25778392D01*
X32713422Y25678422D01*
X32813392Y25556608D01*
X32887679Y25417629D01*
X32887679Y25417628D01*
X32933424Y25266827D01*
X32948870Y25110000D01*
X32933424Y24953173D01*
X32914739Y24891578D01*
X32887679Y24802371D01*
X32813392Y24663392D01*
X32713422Y24541578D01*
X32591608Y24441608D01*
X32452629Y24367321D01*
X32377227Y24344448D01*
X32301827Y24321576D01*
X32262649Y24317717D01*
X32184295Y24310000D01*
X31105705Y24310000D01*
X31027351Y24317717D01*
X30988173Y24321576D01*
X30912773Y24344448D01*
X30837371Y24367321D01*
X30698392Y24441608D01*
X30576578Y24541578D01*
X30476608Y24663392D01*
X30402321Y24802371D01*
X30375261Y24891578D01*
X30356576Y24953173D01*
X30341130Y25110000D01*
X30356576Y25266827D01*
X30402321Y25417628D01*
X30402321Y25417629D01*
X30476608Y25556608D01*
X30576578Y25678422D01*
X30698392Y25778392D01*
X30837371Y25852679D01*
X30912773Y25875552D01*
X30988173Y25898424D01*
X31027351Y25902283D01*
X31105705Y25910000D01*
X32184295Y25910000D01*
X32262649Y25902283D01*
X32262649Y25902283D01*
G37*
G36*
X96557649Y26252283D02*
X96596827Y26248424D01*
X96635779Y26236608D01*
X96747629Y26202679D01*
X96886608Y26128392D01*
X97008422Y26028422D01*
X97108392Y25906608D01*
X97182679Y25767629D01*
X97182679Y25767628D01*
X97228424Y25616827D01*
X97243870Y25460000D01*
X97228424Y25303173D01*
X97217398Y25266826D01*
X97182679Y25152371D01*
X97108392Y25013392D01*
X97008422Y24891578D01*
X96886608Y24791608D01*
X96747629Y24717321D01*
X96672227Y24694448D01*
X96596827Y24671576D01*
X96557649Y24667717D01*
X96479295Y24660000D01*
X95400705Y24660000D01*
X95322351Y24667717D01*
X95283173Y24671576D01*
X95207773Y24694448D01*
X95132371Y24717321D01*
X94993392Y24791608D01*
X94871578Y24891578D01*
X94771608Y25013392D01*
X94697321Y25152371D01*
X94662602Y25266826D01*
X94651576Y25303173D01*
X94636130Y25460000D01*
X94651576Y25616827D01*
X94697321Y25767628D01*
X94697321Y25767629D01*
X94771608Y25906608D01*
X94871578Y26028422D01*
X94993392Y26128392D01*
X95132371Y26202679D01*
X95244221Y26236608D01*
X95283173Y26248424D01*
X95322351Y26252283D01*
X95400705Y26260000D01*
X96479295Y26260000D01*
X96557649Y26252283D01*
X96557649Y26252283D01*
G37*
G36*
X93217649Y26252283D02*
X93256827Y26248424D01*
X93295779Y26236608D01*
X93407629Y26202679D01*
X93546608Y26128392D01*
X93668422Y26028422D01*
X93768392Y25906608D01*
X93842679Y25767629D01*
X93842679Y25767628D01*
X93888424Y25616827D01*
X93903870Y25460000D01*
X93888424Y25303173D01*
X93877398Y25266826D01*
X93842679Y25152371D01*
X93768392Y25013392D01*
X93668422Y24891578D01*
X93546608Y24791608D01*
X93407629Y24717321D01*
X93332227Y24694448D01*
X93256827Y24671576D01*
X93217649Y24667717D01*
X93139295Y24660000D01*
X92060705Y24660000D01*
X91982351Y24667717D01*
X91943173Y24671576D01*
X91867773Y24694448D01*
X91792371Y24717321D01*
X91653392Y24791608D01*
X91531578Y24891578D01*
X91431608Y25013392D01*
X91357321Y25152371D01*
X91322602Y25266826D01*
X91311576Y25303173D01*
X91296130Y25460000D01*
X91311576Y25616827D01*
X91357321Y25767628D01*
X91357321Y25767629D01*
X91431608Y25906608D01*
X91531578Y26028422D01*
X91653392Y26128392D01*
X91792371Y26202679D01*
X91904221Y26236608D01*
X91943173Y26248424D01*
X91982351Y26252283D01*
X92060705Y26260000D01*
X93139295Y26260000D01*
X93217649Y26252283D01*
X93217649Y26252283D01*
G37*
G36*
X13797649Y26537283D02*
X13836827Y26533424D01*
X13912227Y26510552D01*
X13987629Y26487679D01*
X14126608Y26413392D01*
X14248422Y26313422D01*
X14348392Y26191608D01*
X14422679Y26052629D01*
X14422679Y26052628D01*
X14466974Y25906608D01*
X14468424Y25901826D01*
X14483870Y25745000D01*
X14468424Y25588174D01*
X14422679Y25437371D01*
X14348392Y25298392D01*
X14248422Y25176578D01*
X14126608Y25076608D01*
X13987629Y25002321D01*
X13912228Y24979449D01*
X13836827Y24956576D01*
X13802286Y24953174D01*
X13719295Y24945000D01*
X12740705Y24945000D01*
X12657714Y24953174D01*
X12623173Y24956576D01*
X12547772Y24979449D01*
X12472371Y25002321D01*
X12333392Y25076608D01*
X12211578Y25176578D01*
X12111608Y25298392D01*
X12037321Y25437371D01*
X11991576Y25588174D01*
X11976130Y25745000D01*
X11991576Y25901826D01*
X11993027Y25906608D01*
X12037321Y26052628D01*
X12037321Y26052629D01*
X12111608Y26191608D01*
X12211578Y26313422D01*
X12333392Y26413392D01*
X12472371Y26487679D01*
X12547773Y26510552D01*
X12623173Y26533424D01*
X12662351Y26537283D01*
X12740705Y26545000D01*
X13719295Y26545000D01*
X13797649Y26537283D01*
X13797649Y26537283D01*
G37*
G36*
X21417649Y26537283D02*
X21456827Y26533424D01*
X21532227Y26510552D01*
X21607629Y26487679D01*
X21746608Y26413392D01*
X21868422Y26313422D01*
X21968392Y26191608D01*
X22042679Y26052629D01*
X22042679Y26052628D01*
X22086974Y25906608D01*
X22088424Y25901826D01*
X22103870Y25745000D01*
X22088424Y25588174D01*
X22042679Y25437371D01*
X21968392Y25298392D01*
X21868422Y25176578D01*
X21746608Y25076608D01*
X21607629Y25002321D01*
X21532228Y24979449D01*
X21456827Y24956576D01*
X21422286Y24953174D01*
X21339295Y24945000D01*
X20360705Y24945000D01*
X20277714Y24953174D01*
X20243173Y24956576D01*
X20167772Y24979449D01*
X20092371Y25002321D01*
X19953392Y25076608D01*
X19831578Y25176578D01*
X19731608Y25298392D01*
X19657321Y25437371D01*
X19611576Y25588174D01*
X19596130Y25745000D01*
X19611576Y25901826D01*
X19613027Y25906608D01*
X19657321Y26052628D01*
X19657321Y26052629D01*
X19731608Y26191608D01*
X19831578Y26313422D01*
X19953392Y26413392D01*
X20092371Y26487679D01*
X20167773Y26510552D01*
X20243173Y26533424D01*
X20282351Y26537283D01*
X20360705Y26545000D01*
X21339295Y26545000D01*
X21417649Y26537283D01*
X21417649Y26537283D01*
G37*
G36*
X55203964Y26743163D02*
X55235528Y26733588D01*
X55264617Y26718040D01*
X55290114Y26697114D01*
X55311040Y26671617D01*
X55326588Y26642528D01*
X55336163Y26610964D01*
X55340000Y26572002D01*
X55340000Y25171998D01*
X55336163Y25133036D01*
X55326588Y25101472D01*
X55311040Y25072383D01*
X55290114Y25046886D01*
X55264617Y25025960D01*
X55235528Y25010412D01*
X55203964Y25000837D01*
X55165002Y24997000D01*
X54089998Y24997000D01*
X54051036Y25000837D01*
X54019472Y25010412D01*
X53990383Y25025960D01*
X53964886Y25046886D01*
X53943960Y25072383D01*
X53928412Y25101472D01*
X53918837Y25133036D01*
X53915000Y25171998D01*
X53915000Y26572002D01*
X53918837Y26610964D01*
X53928412Y26642528D01*
X53943960Y26671617D01*
X53964886Y26697114D01*
X53990383Y26718040D01*
X54019472Y26733588D01*
X54051036Y26743163D01*
X54089998Y26747000D01*
X55165002Y26747000D01*
X55203964Y26743163D01*
X55203964Y26743163D01*
G37*
G36*
X52228964Y26743163D02*
X52260528Y26733588D01*
X52289617Y26718040D01*
X52315114Y26697114D01*
X52336040Y26671617D01*
X52351588Y26642528D01*
X52361163Y26610964D01*
X52365000Y26572002D01*
X52365000Y25171998D01*
X52361163Y25133036D01*
X52351588Y25101472D01*
X52336040Y25072383D01*
X52315114Y25046886D01*
X52289617Y25025960D01*
X52260528Y25010412D01*
X52228964Y25000837D01*
X52190002Y24997000D01*
X51114998Y24997000D01*
X51076036Y25000837D01*
X51044472Y25010412D01*
X51015383Y25025960D01*
X50989886Y25046886D01*
X50968960Y25072383D01*
X50953412Y25101472D01*
X50943837Y25133036D01*
X50940000Y25171998D01*
X50940000Y26572002D01*
X50943837Y26610964D01*
X50953412Y26642528D01*
X50968960Y26671617D01*
X50989886Y26697114D01*
X51015383Y26718040D01*
X51044472Y26733588D01*
X51076036Y26743163D01*
X51114998Y26747000D01*
X52190002Y26747000D01*
X52228964Y26743163D01*
X52228964Y26743163D01*
G37*
G36*
X75253649Y27697283D02*
X75292827Y27693424D01*
X75368228Y27670551D01*
X75443629Y27647679D01*
X75582608Y27573392D01*
X75704422Y27473422D01*
X75804392Y27351608D01*
X75878679Y27212629D01*
X75901552Y27137227D01*
X75924424Y27061827D01*
X75939870Y26905000D01*
X75924424Y26748173D01*
X75918295Y26727970D01*
X75878679Y26597371D01*
X75804392Y26458392D01*
X75704422Y26336578D01*
X75582608Y26236608D01*
X75443629Y26162321D01*
X75368227Y26139448D01*
X75292827Y26116576D01*
X75253649Y26112717D01*
X75175295Y26105000D01*
X74096705Y26105000D01*
X74018351Y26112717D01*
X73979173Y26116576D01*
X73903773Y26139448D01*
X73828371Y26162321D01*
X73689392Y26236608D01*
X73567578Y26336578D01*
X73467608Y26458392D01*
X73393321Y26597371D01*
X73353705Y26727970D01*
X73347576Y26748173D01*
X73332130Y26905000D01*
X73347576Y27061827D01*
X73370448Y27137227D01*
X73393321Y27212629D01*
X73467608Y27351608D01*
X73567578Y27473422D01*
X73689392Y27573392D01*
X73828371Y27647679D01*
X73903773Y27670552D01*
X73979173Y27693424D01*
X74018351Y27697283D01*
X74096705Y27705000D01*
X75175295Y27705000D01*
X75253649Y27697283D01*
X75253649Y27697283D01*
G37*
G36*
X64041630Y27852701D02*
X64201855Y27804097D01*
X64349520Y27725169D01*
X64478949Y27618949D01*
X64585169Y27489520D01*
X64664097Y27341855D01*
X64712701Y27181630D01*
X64729112Y27015000D01*
X64712701Y26848370D01*
X64664097Y26688145D01*
X64585169Y26540480D01*
X64478949Y26411051D01*
X64349520Y26304831D01*
X64201855Y26225903D01*
X64041630Y26177299D01*
X63916752Y26165000D01*
X63033248Y26165000D01*
X62908370Y26177299D01*
X62748145Y26225903D01*
X62600480Y26304831D01*
X62471051Y26411051D01*
X62364831Y26540480D01*
X62285903Y26688145D01*
X62237299Y26848370D01*
X62220888Y27015000D01*
X62237299Y27181630D01*
X62285903Y27341855D01*
X62364831Y27489520D01*
X62471051Y27618949D01*
X62600480Y27725169D01*
X62748145Y27804097D01*
X62908370Y27852701D01*
X63033248Y27865000D01*
X63916752Y27865000D01*
X64041630Y27852701D01*
X64041630Y27852701D01*
G37*
G36*
X32262649Y28442283D02*
X32301827Y28438424D01*
X32377228Y28415551D01*
X32452629Y28392679D01*
X32591608Y28318392D01*
X32713422Y28218422D01*
X32813392Y28096608D01*
X32887679Y27957629D01*
X32887679Y27957628D01*
X32933424Y27806827D01*
X32948870Y27650000D01*
X32933424Y27493173D01*
X32914739Y27431578D01*
X32887679Y27342371D01*
X32813392Y27203392D01*
X32713422Y27081578D01*
X32591608Y26981608D01*
X32452629Y26907321D01*
X32377228Y26884449D01*
X32301827Y26861576D01*
X32262649Y26857717D01*
X32184295Y26850000D01*
X31105705Y26850000D01*
X31027351Y26857717D01*
X30988173Y26861576D01*
X30912772Y26884449D01*
X30837371Y26907321D01*
X30698392Y26981608D01*
X30576578Y27081578D01*
X30476608Y27203392D01*
X30402321Y27342371D01*
X30375261Y27431578D01*
X30356576Y27493173D01*
X30341130Y27650000D01*
X30356576Y27806827D01*
X30402321Y27957628D01*
X30402321Y27957629D01*
X30476608Y28096608D01*
X30576578Y28218422D01*
X30698392Y28318392D01*
X30837371Y28392679D01*
X30912772Y28415551D01*
X30988173Y28438424D01*
X31027351Y28442283D01*
X31105705Y28450000D01*
X32184295Y28450000D01*
X32262649Y28442283D01*
X32262649Y28442283D01*
G37*
G36*
X44962649Y28442283D02*
X45001827Y28438424D01*
X45077228Y28415551D01*
X45152629Y28392679D01*
X45291608Y28318392D01*
X45413422Y28218422D01*
X45513392Y28096608D01*
X45587679Y27957629D01*
X45587679Y27957628D01*
X45633424Y27806827D01*
X45648870Y27650000D01*
X45633424Y27493173D01*
X45614739Y27431578D01*
X45587679Y27342371D01*
X45513392Y27203392D01*
X45413422Y27081578D01*
X45291608Y26981608D01*
X45152629Y26907321D01*
X45077228Y26884449D01*
X45001827Y26861576D01*
X44962649Y26857717D01*
X44884295Y26850000D01*
X43805705Y26850000D01*
X43727351Y26857717D01*
X43688173Y26861576D01*
X43612772Y26884449D01*
X43537371Y26907321D01*
X43398392Y26981608D01*
X43276578Y27081578D01*
X43176608Y27203392D01*
X43102321Y27342371D01*
X43075261Y27431578D01*
X43056576Y27493173D01*
X43041130Y27650000D01*
X43056576Y27806827D01*
X43102321Y27957628D01*
X43102321Y27957629D01*
X43176608Y28096608D01*
X43276578Y28218422D01*
X43398392Y28318392D01*
X43537371Y28392679D01*
X43612773Y28415552D01*
X43688173Y28438424D01*
X43727351Y28442283D01*
X43805705Y28450000D01*
X44884295Y28450000D01*
X44962649Y28442283D01*
X44962649Y28442283D01*
G37*
G36*
X93900000Y27200000D02*
X91300000Y27200000D01*
X91300000Y28800000D01*
X93900000Y28800000D01*
X93900000Y27200000D01*
X93900000Y27200000D01*
G37*
G36*
X96557649Y28792283D02*
X96596827Y28788424D01*
X96671069Y28765903D01*
X96747629Y28742679D01*
X96886608Y28668392D01*
X97008422Y28568422D01*
X97108392Y28446608D01*
X97182679Y28307629D01*
X97182679Y28307628D01*
X97228424Y28156827D01*
X97243870Y28000000D01*
X97228424Y27843173D01*
X97217398Y27806826D01*
X97182679Y27692371D01*
X97108392Y27553392D01*
X97008422Y27431578D01*
X96886608Y27331608D01*
X96747629Y27257321D01*
X96672227Y27234448D01*
X96596827Y27211576D01*
X96557649Y27207717D01*
X96479295Y27200000D01*
X95400705Y27200000D01*
X95322351Y27207717D01*
X95283173Y27211576D01*
X95207773Y27234448D01*
X95132371Y27257321D01*
X94993392Y27331608D01*
X94871578Y27431578D01*
X94771608Y27553392D01*
X94697321Y27692371D01*
X94662602Y27806826D01*
X94651576Y27843173D01*
X94636130Y28000000D01*
X94651576Y28156827D01*
X94697321Y28307628D01*
X94697321Y28307629D01*
X94771608Y28446608D01*
X94871578Y28568422D01*
X94993392Y28668392D01*
X95132371Y28742679D01*
X95208931Y28765903D01*
X95283173Y28788424D01*
X95322351Y28792283D01*
X95400705Y28800000D01*
X96479295Y28800000D01*
X96557649Y28792283D01*
X96557649Y28792283D01*
G37*
G36*
X21417649Y29077283D02*
X21456827Y29073424D01*
X21532228Y29050551D01*
X21607629Y29027679D01*
X21746608Y28953392D01*
X21868422Y28853422D01*
X21968392Y28731608D01*
X22042679Y28592629D01*
X22042679Y28592628D01*
X22086974Y28446608D01*
X22088424Y28441826D01*
X22103870Y28285000D01*
X22088424Y28128174D01*
X22042679Y27977371D01*
X21968392Y27838392D01*
X21868422Y27716578D01*
X21746608Y27616608D01*
X21607629Y27542321D01*
X21532228Y27519449D01*
X21456827Y27496576D01*
X21422286Y27493174D01*
X21339295Y27485000D01*
X20360705Y27485000D01*
X20277714Y27493174D01*
X20243173Y27496576D01*
X20167772Y27519449D01*
X20092371Y27542321D01*
X19953392Y27616608D01*
X19831578Y27716578D01*
X19731608Y27838392D01*
X19657321Y27977371D01*
X19611576Y28128174D01*
X19596130Y28285000D01*
X19611576Y28441826D01*
X19613027Y28446608D01*
X19657321Y28592628D01*
X19657321Y28592629D01*
X19731608Y28731608D01*
X19831578Y28853422D01*
X19953392Y28953392D01*
X20092371Y29027679D01*
X20167772Y29050551D01*
X20243173Y29073424D01*
X20282351Y29077283D01*
X20360705Y29085000D01*
X21339295Y29085000D01*
X21417649Y29077283D01*
X21417649Y29077283D01*
G37*
G36*
X13797649Y29077283D02*
X13836827Y29073424D01*
X13912228Y29050551D01*
X13987629Y29027679D01*
X14126608Y28953392D01*
X14248422Y28853422D01*
X14348392Y28731608D01*
X14422679Y28592629D01*
X14422679Y28592628D01*
X14466974Y28446608D01*
X14468424Y28441826D01*
X14483870Y28285000D01*
X14468424Y28128174D01*
X14422679Y27977371D01*
X14348392Y27838392D01*
X14248422Y27716578D01*
X14126608Y27616608D01*
X13987629Y27542321D01*
X13912228Y27519449D01*
X13836827Y27496576D01*
X13802286Y27493174D01*
X13719295Y27485000D01*
X12740705Y27485000D01*
X12657714Y27493174D01*
X12623173Y27496576D01*
X12547772Y27519449D01*
X12472371Y27542321D01*
X12333392Y27616608D01*
X12211578Y27716578D01*
X12111608Y27838392D01*
X12037321Y27977371D01*
X11991576Y28128174D01*
X11976130Y28285000D01*
X11991576Y28441826D01*
X11993027Y28446608D01*
X12037321Y28592628D01*
X12037321Y28592629D01*
X12111608Y28731608D01*
X12211578Y28853422D01*
X12333392Y28953392D01*
X12472371Y29027679D01*
X12547772Y29050551D01*
X12623173Y29073424D01*
X12662351Y29077283D01*
X12740705Y29085000D01*
X13719295Y29085000D01*
X13797649Y29077283D01*
X13797649Y29077283D01*
G37*
G36*
X64041630Y30392701D02*
X64201855Y30344097D01*
X64349520Y30265169D01*
X64478949Y30158949D01*
X64585169Y30029520D01*
X64664097Y29881855D01*
X64712701Y29721630D01*
X64729112Y29555000D01*
X64712701Y29388370D01*
X64664097Y29228145D01*
X64585169Y29080480D01*
X64478949Y28951051D01*
X64349520Y28844831D01*
X64201855Y28765903D01*
X64041630Y28717299D01*
X63916752Y28705000D01*
X63033248Y28705000D01*
X62908370Y28717299D01*
X62748145Y28765903D01*
X62600480Y28844831D01*
X62471051Y28951051D01*
X62364831Y29080480D01*
X62285903Y29228145D01*
X62237299Y29388370D01*
X62220888Y29555000D01*
X62237299Y29721630D01*
X62285903Y29881855D01*
X62364831Y30029520D01*
X62471051Y30158949D01*
X62600480Y30265169D01*
X62748145Y30344097D01*
X62908370Y30392701D01*
X63033248Y30405000D01*
X63916752Y30405000D01*
X64041630Y30392701D01*
X64041630Y30392701D01*
G37*
G36*
X32262649Y30982283D02*
X32301827Y30978424D01*
X32377228Y30955551D01*
X32452629Y30932679D01*
X32591608Y30858392D01*
X32713422Y30758422D01*
X32813392Y30636608D01*
X32887679Y30497629D01*
X32887679Y30497628D01*
X32933424Y30346827D01*
X32948870Y30190000D01*
X32933424Y30033173D01*
X32930741Y30024329D01*
X32887679Y29882371D01*
X32813392Y29743392D01*
X32713422Y29621578D01*
X32591608Y29521608D01*
X32452629Y29447321D01*
X32377227Y29424448D01*
X32301827Y29401576D01*
X32262649Y29397717D01*
X32184295Y29390000D01*
X31105705Y29390000D01*
X31027351Y29397717D01*
X30988173Y29401576D01*
X30912773Y29424448D01*
X30837371Y29447321D01*
X30698392Y29521608D01*
X30576578Y29621578D01*
X30476608Y29743392D01*
X30402321Y29882371D01*
X30359259Y30024329D01*
X30356576Y30033173D01*
X30341130Y30190000D01*
X30356576Y30346827D01*
X30402321Y30497628D01*
X30402321Y30497629D01*
X30476608Y30636608D01*
X30576578Y30758422D01*
X30698392Y30858392D01*
X30837371Y30932679D01*
X30912772Y30955551D01*
X30988173Y30978424D01*
X31027351Y30982283D01*
X31105705Y30990000D01*
X32184295Y30990000D01*
X32262649Y30982283D01*
X32262649Y30982283D01*
G37*
G36*
X44962649Y30982283D02*
X45001827Y30978424D01*
X45077228Y30955551D01*
X45152629Y30932679D01*
X45291608Y30858392D01*
X45413422Y30758422D01*
X45513392Y30636608D01*
X45587679Y30497629D01*
X45587679Y30497628D01*
X45633424Y30346827D01*
X45648870Y30190000D01*
X45633424Y30033173D01*
X45630741Y30024329D01*
X45587679Y29882371D01*
X45513392Y29743392D01*
X45413422Y29621578D01*
X45291608Y29521608D01*
X45152629Y29447321D01*
X45077227Y29424448D01*
X45001827Y29401576D01*
X44962649Y29397717D01*
X44884295Y29390000D01*
X43805705Y29390000D01*
X43727351Y29397717D01*
X43688173Y29401576D01*
X43612773Y29424448D01*
X43537371Y29447321D01*
X43398392Y29521608D01*
X43276578Y29621578D01*
X43176608Y29743392D01*
X43102321Y29882371D01*
X43059259Y30024329D01*
X43056576Y30033173D01*
X43041130Y30190000D01*
X43056576Y30346827D01*
X43102321Y30497628D01*
X43102321Y30497629D01*
X43176608Y30636608D01*
X43276578Y30758422D01*
X43398392Y30858392D01*
X43537371Y30932679D01*
X43612772Y30955551D01*
X43688173Y30978424D01*
X43727351Y30982283D01*
X43805705Y30990000D01*
X44884295Y30990000D01*
X44962649Y30982283D01*
X44962649Y30982283D01*
G37*
G36*
X6063964Y31616163D02*
X6095528Y31606588D01*
X6124617Y31591040D01*
X6150114Y31570114D01*
X6171040Y31544617D01*
X6186588Y31515528D01*
X6196163Y31483964D01*
X6200000Y31445002D01*
X6200000Y30044998D01*
X6196163Y30006036D01*
X6186588Y29974472D01*
X6171040Y29945383D01*
X6150114Y29919886D01*
X6124617Y29898960D01*
X6095528Y29883412D01*
X6063964Y29873837D01*
X6025002Y29870000D01*
X4949998Y29870000D01*
X4911036Y29873837D01*
X4879472Y29883412D01*
X4850383Y29898960D01*
X4824886Y29919886D01*
X4803960Y29945383D01*
X4788412Y29974472D01*
X4778837Y30006036D01*
X4775000Y30044998D01*
X4775000Y31445002D01*
X4778837Y31483964D01*
X4788412Y31515528D01*
X4803960Y31544617D01*
X4824886Y31570114D01*
X4850383Y31591040D01*
X4879472Y31606588D01*
X4911036Y31616163D01*
X4949998Y31620000D01*
X6025002Y31620000D01*
X6063964Y31616163D01*
X6063964Y31616163D01*
G37*
G36*
X9038964Y31616163D02*
X9070528Y31606588D01*
X9099617Y31591040D01*
X9125114Y31570114D01*
X9146040Y31544617D01*
X9161588Y31515528D01*
X9171163Y31483964D01*
X9175000Y31445002D01*
X9175000Y30044998D01*
X9171163Y30006036D01*
X9161588Y29974472D01*
X9146040Y29945383D01*
X9125114Y29919886D01*
X9099617Y29898960D01*
X9070528Y29883412D01*
X9038964Y29873837D01*
X9000002Y29870000D01*
X7924998Y29870000D01*
X7886036Y29873837D01*
X7854472Y29883412D01*
X7825383Y29898960D01*
X7799886Y29919886D01*
X7778960Y29945383D01*
X7763412Y29974472D01*
X7753837Y30006036D01*
X7750000Y30044998D01*
X7750000Y31445002D01*
X7753837Y31483964D01*
X7763412Y31515528D01*
X7778960Y31544617D01*
X7799886Y31570114D01*
X7825383Y31591040D01*
X7854472Y31606588D01*
X7886036Y31616163D01*
X7924998Y31620000D01*
X9000002Y31620000D01*
X9038964Y31616163D01*
X9038964Y31616163D01*
G37*
G36*
X21417649Y31617283D02*
X21456827Y31613424D01*
X21479362Y31606588D01*
X21607629Y31567679D01*
X21746608Y31493392D01*
X21868422Y31393422D01*
X21968392Y31271608D01*
X22042679Y31132629D01*
X22050632Y31106412D01*
X22085945Y30990000D01*
X22088424Y30981826D01*
X22103870Y30825000D01*
X22088424Y30668174D01*
X22042679Y30517371D01*
X21968392Y30378392D01*
X21868422Y30256578D01*
X21746608Y30156608D01*
X21607629Y30082321D01*
X21532227Y30059448D01*
X21456827Y30036576D01*
X21422286Y30033174D01*
X21339295Y30025000D01*
X20360705Y30025000D01*
X20277714Y30033174D01*
X20243173Y30036576D01*
X20167773Y30059448D01*
X20092371Y30082321D01*
X19953392Y30156608D01*
X19831578Y30256578D01*
X19731608Y30378392D01*
X19657321Y30517371D01*
X19611576Y30668174D01*
X19596130Y30825000D01*
X19611576Y30981826D01*
X19614056Y30990000D01*
X19649368Y31106412D01*
X19657321Y31132629D01*
X19731608Y31271608D01*
X19831578Y31393422D01*
X19953392Y31493392D01*
X20092371Y31567679D01*
X20220638Y31606588D01*
X20243173Y31613424D01*
X20282351Y31617283D01*
X20360705Y31625000D01*
X21339295Y31625000D01*
X21417649Y31617283D01*
X21417649Y31617283D01*
G37*
G36*
X13797649Y31617283D02*
X13836827Y31613424D01*
X13859362Y31606588D01*
X13987629Y31567679D01*
X14126608Y31493392D01*
X14248422Y31393422D01*
X14348392Y31271608D01*
X14422679Y31132629D01*
X14430632Y31106412D01*
X14465945Y30990000D01*
X14468424Y30981826D01*
X14483870Y30825000D01*
X14468424Y30668174D01*
X14422679Y30517371D01*
X14348392Y30378392D01*
X14248422Y30256578D01*
X14126608Y30156608D01*
X13987629Y30082321D01*
X13912227Y30059448D01*
X13836827Y30036576D01*
X13802286Y30033174D01*
X13719295Y30025000D01*
X12740705Y30025000D01*
X12657714Y30033174D01*
X12623173Y30036576D01*
X12547773Y30059448D01*
X12472371Y30082321D01*
X12333392Y30156608D01*
X12211578Y30256578D01*
X12111608Y30378392D01*
X12037321Y30517371D01*
X11991576Y30668174D01*
X11976130Y30825000D01*
X11991576Y30981826D01*
X11994056Y30990000D01*
X12029368Y31106412D01*
X12037321Y31132629D01*
X12111608Y31271608D01*
X12211578Y31393422D01*
X12333392Y31493392D01*
X12472371Y31567679D01*
X12600638Y31606588D01*
X12623173Y31613424D01*
X12662351Y31617283D01*
X12740705Y31625000D01*
X13719295Y31625000D01*
X13797649Y31617283D01*
X13797649Y31617283D01*
G37*
G36*
X55203964Y32839163D02*
X55235528Y32829588D01*
X55264617Y32814040D01*
X55290114Y32793114D01*
X55311040Y32767617D01*
X55326588Y32738528D01*
X55336163Y32706964D01*
X55340000Y32668002D01*
X55340000Y31267998D01*
X55336163Y31229036D01*
X55326588Y31197472D01*
X55311040Y31168383D01*
X55290114Y31142886D01*
X55264617Y31121960D01*
X55235528Y31106412D01*
X55203964Y31096837D01*
X55165002Y31093000D01*
X54089998Y31093000D01*
X54051036Y31096837D01*
X54019472Y31106412D01*
X53990383Y31121960D01*
X53964886Y31142886D01*
X53943960Y31168383D01*
X53928412Y31197472D01*
X53918837Y31229036D01*
X53915000Y31267998D01*
X53915000Y32668002D01*
X53918837Y32706964D01*
X53928412Y32738528D01*
X53943960Y32767617D01*
X53964886Y32793114D01*
X53990383Y32814040D01*
X54019472Y32829588D01*
X54051036Y32839163D01*
X54089998Y32843000D01*
X55165002Y32843000D01*
X55203964Y32839163D01*
X55203964Y32839163D01*
G37*
G36*
X52228964Y32839163D02*
X52260528Y32829588D01*
X52289617Y32814040D01*
X52315114Y32793114D01*
X52336040Y32767617D01*
X52351588Y32738528D01*
X52361163Y32706964D01*
X52365000Y32668002D01*
X52365000Y31267998D01*
X52361163Y31229036D01*
X52351588Y31197472D01*
X52336040Y31168383D01*
X52315114Y31142886D01*
X52289617Y31121960D01*
X52260528Y31106412D01*
X52228964Y31096837D01*
X52190002Y31093000D01*
X51114998Y31093000D01*
X51076036Y31096837D01*
X51044472Y31106412D01*
X51015383Y31121960D01*
X50989886Y31142886D01*
X50968960Y31168383D01*
X50953412Y31197472D01*
X50943837Y31229036D01*
X50940000Y31267998D01*
X50940000Y32668002D01*
X50943837Y32706964D01*
X50953412Y32738528D01*
X50968960Y32767617D01*
X50989886Y32793114D01*
X51015383Y32814040D01*
X51044472Y32829588D01*
X51076036Y32839163D01*
X51114998Y32843000D01*
X52190002Y32843000D01*
X52228964Y32839163D01*
X52228964Y32839163D01*
G37*
G36*
X64041630Y32932701D02*
X64201855Y32884097D01*
X64349520Y32805169D01*
X64478949Y32698949D01*
X64585169Y32569520D01*
X64664097Y32421855D01*
X64712701Y32261630D01*
X64729112Y32095000D01*
X64712701Y31928370D01*
X64664097Y31768145D01*
X64585169Y31620480D01*
X64478949Y31491051D01*
X64349520Y31384831D01*
X64201855Y31305903D01*
X64041630Y31257299D01*
X63916752Y31245000D01*
X63033248Y31245000D01*
X62908370Y31257299D01*
X62748145Y31305903D01*
X62600480Y31384831D01*
X62471051Y31491051D01*
X62364831Y31620480D01*
X62285903Y31768145D01*
X62237299Y31928370D01*
X62220888Y32095000D01*
X62237299Y32261630D01*
X62285903Y32421855D01*
X62364831Y32569520D01*
X62471051Y32698949D01*
X62600480Y32805169D01*
X62748145Y32884097D01*
X62908370Y32932701D01*
X63033248Y32945000D01*
X63916752Y32945000D01*
X64041630Y32932701D01*
X64041630Y32932701D01*
G37*
G36*
X32262649Y33522283D02*
X32301827Y33518424D01*
X32377228Y33495551D01*
X32452629Y33472679D01*
X32591608Y33398392D01*
X32713422Y33298422D01*
X32813392Y33176608D01*
X32887679Y33037629D01*
X32887679Y33037628D01*
X32933424Y32886827D01*
X32948870Y32730000D01*
X32933424Y32573173D01*
X32910552Y32497773D01*
X32887679Y32422371D01*
X32813392Y32283392D01*
X32713422Y32161578D01*
X32591608Y32061608D01*
X32452629Y31987321D01*
X32377227Y31964448D01*
X32301827Y31941576D01*
X32262649Y31937717D01*
X32184295Y31930000D01*
X31105705Y31930000D01*
X31027351Y31937717D01*
X30988173Y31941576D01*
X30912773Y31964448D01*
X30837371Y31987321D01*
X30698392Y32061608D01*
X30576578Y32161578D01*
X30476608Y32283392D01*
X30402321Y32422371D01*
X30379449Y32497772D01*
X30356576Y32573173D01*
X30341130Y32730000D01*
X30356576Y32886827D01*
X30402321Y33037628D01*
X30402321Y33037629D01*
X30476608Y33176608D01*
X30576578Y33298422D01*
X30698392Y33398392D01*
X30837371Y33472679D01*
X30912772Y33495551D01*
X30988173Y33518424D01*
X31027351Y33522283D01*
X31105705Y33530000D01*
X32184295Y33530000D01*
X32262649Y33522283D01*
X32262649Y33522283D01*
G37*
G36*
X44962649Y33522283D02*
X45001827Y33518424D01*
X45077228Y33495551D01*
X45152629Y33472679D01*
X45291608Y33398392D01*
X45413422Y33298422D01*
X45513392Y33176608D01*
X45587679Y33037629D01*
X45587679Y33037628D01*
X45633424Y32886827D01*
X45648870Y32730000D01*
X45633424Y32573173D01*
X45610552Y32497773D01*
X45587679Y32422371D01*
X45513392Y32283392D01*
X45413422Y32161578D01*
X45291608Y32061608D01*
X45152629Y31987321D01*
X45077227Y31964448D01*
X45001827Y31941576D01*
X44962649Y31937717D01*
X44884295Y31930000D01*
X43805705Y31930000D01*
X43727351Y31937717D01*
X43688173Y31941576D01*
X43612773Y31964448D01*
X43537371Y31987321D01*
X43398392Y32061608D01*
X43276578Y32161578D01*
X43176608Y32283392D01*
X43102321Y32422371D01*
X43079449Y32497772D01*
X43056576Y32573173D01*
X43041130Y32730000D01*
X43056576Y32886827D01*
X43102321Y33037628D01*
X43102321Y33037629D01*
X43176608Y33176608D01*
X43276578Y33298422D01*
X43398392Y33398392D01*
X43537371Y33472679D01*
X43612772Y33495551D01*
X43688173Y33518424D01*
X43727351Y33522283D01*
X43805705Y33530000D01*
X44884295Y33530000D01*
X44962649Y33522283D01*
X44962649Y33522283D01*
G37*
G36*
X21417649Y34157283D02*
X21456827Y34153424D01*
X21532227Y34130552D01*
X21607629Y34107679D01*
X21746608Y34033392D01*
X21868422Y33933422D01*
X21968392Y33811608D01*
X22042679Y33672629D01*
X22042679Y33672628D01*
X22085945Y33530000D01*
X22088424Y33521826D01*
X22103870Y33365000D01*
X22088424Y33208174D01*
X22042679Y33057371D01*
X21968392Y32918392D01*
X21868422Y32796578D01*
X21746608Y32696608D01*
X21607629Y32622321D01*
X21532228Y32599449D01*
X21456827Y32576576D01*
X21422286Y32573174D01*
X21339295Y32565000D01*
X20360705Y32565000D01*
X20277714Y32573174D01*
X20243173Y32576576D01*
X20167772Y32599449D01*
X20092371Y32622321D01*
X19953392Y32696608D01*
X19831578Y32796578D01*
X19731608Y32918392D01*
X19657321Y33057371D01*
X19611576Y33208174D01*
X19596130Y33365000D01*
X19611576Y33521826D01*
X19614056Y33530000D01*
X19657321Y33672628D01*
X19657321Y33672629D01*
X19731608Y33811608D01*
X19831578Y33933422D01*
X19953392Y34033392D01*
X20092371Y34107679D01*
X20167773Y34130552D01*
X20243173Y34153424D01*
X20282351Y34157283D01*
X20360705Y34165000D01*
X21339295Y34165000D01*
X21417649Y34157283D01*
X21417649Y34157283D01*
G37*
G36*
X13797649Y34157283D02*
X13836827Y34153424D01*
X13912227Y34130552D01*
X13987629Y34107679D01*
X14126608Y34033392D01*
X14248422Y33933422D01*
X14348392Y33811608D01*
X14422679Y33672629D01*
X14422679Y33672628D01*
X14465945Y33530000D01*
X14468424Y33521826D01*
X14483870Y33365000D01*
X14468424Y33208174D01*
X14422679Y33057371D01*
X14348392Y32918392D01*
X14248422Y32796578D01*
X14126608Y32696608D01*
X13987629Y32622321D01*
X13912228Y32599449D01*
X13836827Y32576576D01*
X13802286Y32573174D01*
X13719295Y32565000D01*
X12740705Y32565000D01*
X12657714Y32573174D01*
X12623173Y32576576D01*
X12547772Y32599449D01*
X12472371Y32622321D01*
X12333392Y32696608D01*
X12211578Y32796578D01*
X12111608Y32918392D01*
X12037321Y33057371D01*
X11991576Y33208174D01*
X11976130Y33365000D01*
X11991576Y33521826D01*
X11994056Y33530000D01*
X12037321Y33672628D01*
X12037321Y33672629D01*
X12111608Y33811608D01*
X12211578Y33933422D01*
X12333392Y34033392D01*
X12472371Y34107679D01*
X12547773Y34130552D01*
X12623173Y34153424D01*
X12662351Y34157283D01*
X12740705Y34165000D01*
X13719295Y34165000D01*
X13797649Y34157283D01*
X13797649Y34157283D01*
G37*
G36*
X64041630Y35472701D02*
X64201855Y35424097D01*
X64349520Y35345169D01*
X64478949Y35238949D01*
X64585169Y35109520D01*
X64664097Y34961855D01*
X64712701Y34801630D01*
X64729112Y34635000D01*
X64712701Y34468370D01*
X64664097Y34308145D01*
X64585169Y34160480D01*
X64478949Y34031051D01*
X64349520Y33924831D01*
X64201855Y33845903D01*
X64041630Y33797299D01*
X63916752Y33785000D01*
X63033248Y33785000D01*
X62908370Y33797299D01*
X62748145Y33845903D01*
X62600480Y33924831D01*
X62471051Y34031051D01*
X62364831Y34160480D01*
X62285903Y34308145D01*
X62237299Y34468370D01*
X62220888Y34635000D01*
X62237299Y34801630D01*
X62285903Y34961855D01*
X62364831Y35109520D01*
X62471051Y35238949D01*
X62600480Y35345169D01*
X62748145Y35424097D01*
X62908370Y35472701D01*
X63033248Y35485000D01*
X63916752Y35485000D01*
X64041630Y35472701D01*
X64041630Y35472701D01*
G37*
G36*
X44962649Y36062283D02*
X45001827Y36058424D01*
X45077228Y36035551D01*
X45152629Y36012679D01*
X45291608Y35938392D01*
X45413422Y35838422D01*
X45513392Y35716608D01*
X45587679Y35577629D01*
X45587679Y35577628D01*
X45633424Y35426827D01*
X45648870Y35270000D01*
X45633424Y35113173D01*
X45610552Y35037773D01*
X45587679Y34962371D01*
X45513392Y34823392D01*
X45413422Y34701578D01*
X45291608Y34601608D01*
X45152629Y34527321D01*
X45077228Y34504449D01*
X45001827Y34481576D01*
X44962649Y34477717D01*
X44884295Y34470000D01*
X43805705Y34470000D01*
X43727351Y34477717D01*
X43688173Y34481576D01*
X43612772Y34504449D01*
X43537371Y34527321D01*
X43398392Y34601608D01*
X43276578Y34701578D01*
X43176608Y34823392D01*
X43102321Y34962371D01*
X43079448Y35037773D01*
X43056576Y35113173D01*
X43041130Y35270000D01*
X43056576Y35426827D01*
X43102321Y35577628D01*
X43102321Y35577629D01*
X43176608Y35716608D01*
X43276578Y35838422D01*
X43398392Y35938392D01*
X43537371Y36012679D01*
X43612772Y36035551D01*
X43688173Y36058424D01*
X43727351Y36062283D01*
X43805705Y36070000D01*
X44884295Y36070000D01*
X44962649Y36062283D01*
X44962649Y36062283D01*
G37*
G36*
X32262649Y36062283D02*
X32301827Y36058424D01*
X32377228Y36035551D01*
X32452629Y36012679D01*
X32591608Y35938392D01*
X32713422Y35838422D01*
X32813392Y35716608D01*
X32887679Y35577629D01*
X32887679Y35577628D01*
X32933424Y35426827D01*
X32948870Y35270000D01*
X32933424Y35113173D01*
X32910552Y35037773D01*
X32887679Y34962371D01*
X32813392Y34823392D01*
X32713422Y34701578D01*
X32591608Y34601608D01*
X32452629Y34527321D01*
X32377228Y34504449D01*
X32301827Y34481576D01*
X32262649Y34477717D01*
X32184295Y34470000D01*
X31105705Y34470000D01*
X31027351Y34477717D01*
X30988173Y34481576D01*
X30912772Y34504449D01*
X30837371Y34527321D01*
X30698392Y34601608D01*
X30576578Y34701578D01*
X30476608Y34823392D01*
X30402321Y34962371D01*
X30379448Y35037773D01*
X30356576Y35113173D01*
X30341130Y35270000D01*
X30356576Y35426827D01*
X30402321Y35577628D01*
X30402321Y35577629D01*
X30476608Y35716608D01*
X30576578Y35838422D01*
X30698392Y35938392D01*
X30837371Y36012679D01*
X30912772Y36035551D01*
X30988173Y36058424D01*
X31027351Y36062283D01*
X31105705Y36070000D01*
X32184295Y36070000D01*
X32262649Y36062283D01*
X32262649Y36062283D01*
G37*
G36*
X21389755Y36700030D02*
X21456827Y36693424D01*
X21497783Y36681000D01*
X21607629Y36647679D01*
X21746608Y36573392D01*
X21868422Y36473422D01*
X21968392Y36351608D01*
X22042679Y36212629D01*
X22042679Y36212628D01*
X22085945Y36070000D01*
X22088424Y36061826D01*
X22103870Y35905000D01*
X22088424Y35748174D01*
X22042679Y35597371D01*
X21968392Y35458392D01*
X21868422Y35336578D01*
X21746608Y35236608D01*
X21607629Y35162321D01*
X21532228Y35139449D01*
X21456827Y35116576D01*
X21422286Y35113174D01*
X21339295Y35105000D01*
X20360705Y35105000D01*
X20277714Y35113174D01*
X20243173Y35116576D01*
X20167772Y35139449D01*
X20092371Y35162321D01*
X19953392Y35236608D01*
X19831578Y35336578D01*
X19731608Y35458392D01*
X19657321Y35597371D01*
X19611576Y35748174D01*
X19596130Y35905000D01*
X19611576Y36061826D01*
X19614056Y36070000D01*
X19657321Y36212628D01*
X19657321Y36212629D01*
X19731608Y36351608D01*
X19831578Y36473422D01*
X19953392Y36573392D01*
X20092371Y36647679D01*
X20202217Y36681000D01*
X20243173Y36693424D01*
X20310245Y36700030D01*
X20360705Y36705000D01*
X21339295Y36705000D01*
X21389755Y36700030D01*
X21389755Y36700030D01*
G37*
G36*
X13769755Y36700030D02*
X13836827Y36693424D01*
X13877783Y36681000D01*
X13987629Y36647679D01*
X14126608Y36573392D01*
X14248422Y36473422D01*
X14348392Y36351608D01*
X14422679Y36212629D01*
X14422679Y36212628D01*
X14465945Y36070000D01*
X14468424Y36061826D01*
X14483870Y35905000D01*
X14468424Y35748174D01*
X14422679Y35597371D01*
X14348392Y35458392D01*
X14248422Y35336578D01*
X14126608Y35236608D01*
X13987629Y35162321D01*
X13912228Y35139449D01*
X13836827Y35116576D01*
X13802286Y35113174D01*
X13719295Y35105000D01*
X12740705Y35105000D01*
X12657714Y35113174D01*
X12623173Y35116576D01*
X12547772Y35139449D01*
X12472371Y35162321D01*
X12333392Y35236608D01*
X12211578Y35336578D01*
X12111608Y35458392D01*
X12037321Y35597371D01*
X11991576Y35748174D01*
X11976130Y35905000D01*
X11991576Y36061826D01*
X11994056Y36070000D01*
X12037321Y36212628D01*
X12037321Y36212629D01*
X12111608Y36351608D01*
X12211578Y36473422D01*
X12333392Y36573392D01*
X12472371Y36647679D01*
X12582217Y36681000D01*
X12623173Y36693424D01*
X12690245Y36700030D01*
X12740705Y36705000D01*
X13719295Y36705000D01*
X13769755Y36700030D01*
X13769755Y36700030D01*
G37*
G36*
X75936000Y35420000D02*
X73336000Y35420000D01*
X73336000Y37020000D01*
X75936000Y37020000D01*
X75936000Y35420000D01*
X75936000Y35420000D01*
G37*
G36*
X88750000Y35615000D02*
X85250000Y35615000D01*
X85250000Y39115000D01*
X88750000Y39115000D01*
X88750000Y35615000D01*
X88750000Y35615000D01*
G37*
G36*
X64725000Y36325000D02*
X62225000Y36325000D01*
X62225000Y38025000D01*
X64725000Y38025000D01*
X64725000Y36325000D01*
X64725000Y36325000D01*
G37*
G36*
X52228964Y38427163D02*
X52260528Y38417588D01*
X52289617Y38402040D01*
X52315114Y38381114D01*
X52336040Y38355617D01*
X52351588Y38326528D01*
X52361163Y38294964D01*
X52365000Y38256002D01*
X52365000Y36855998D01*
X52361163Y36817036D01*
X52351588Y36785472D01*
X52336040Y36756383D01*
X52315114Y36730886D01*
X52289617Y36709960D01*
X52260528Y36694412D01*
X52228964Y36684837D01*
X52190002Y36681000D01*
X51114998Y36681000D01*
X51076036Y36684837D01*
X51044472Y36694412D01*
X51015383Y36709960D01*
X50989886Y36730886D01*
X50968960Y36756383D01*
X50953412Y36785472D01*
X50943837Y36817036D01*
X50940000Y36855998D01*
X50940000Y38256002D01*
X50943837Y38294964D01*
X50953412Y38326528D01*
X50968960Y38355617D01*
X50989886Y38381114D01*
X51015383Y38402040D01*
X51044472Y38417588D01*
X51076036Y38427163D01*
X51114998Y38431000D01*
X52190002Y38431000D01*
X52228964Y38427163D01*
X52228964Y38427163D01*
G37*
G36*
X55203964Y38427163D02*
X55235528Y38417588D01*
X55264617Y38402040D01*
X55290114Y38381114D01*
X55311040Y38355617D01*
X55326588Y38326528D01*
X55336163Y38294964D01*
X55340000Y38256002D01*
X55340000Y36855998D01*
X55336163Y36817036D01*
X55326588Y36785472D01*
X55311040Y36756383D01*
X55290114Y36730886D01*
X55264617Y36709960D01*
X55235528Y36694412D01*
X55203964Y36684837D01*
X55165002Y36681000D01*
X54089998Y36681000D01*
X54051036Y36684837D01*
X54019472Y36694412D01*
X53990383Y36709960D01*
X53964886Y36730886D01*
X53943960Y36756383D01*
X53928412Y36785472D01*
X53918837Y36817036D01*
X53915000Y36855998D01*
X53915000Y38256002D01*
X53918837Y38294964D01*
X53928412Y38326528D01*
X53943960Y38355617D01*
X53964886Y38381114D01*
X53990383Y38402040D01*
X54019472Y38417588D01*
X54051036Y38427163D01*
X54089998Y38431000D01*
X55165002Y38431000D01*
X55203964Y38427163D01*
X55203964Y38427163D01*
G37*
G36*
X44953599Y38603174D02*
X45001827Y38598424D01*
X45077228Y38575551D01*
X45152629Y38552679D01*
X45291608Y38478392D01*
X45413422Y38378422D01*
X45513392Y38256608D01*
X45587679Y38117629D01*
X45610552Y38042227D01*
X45633424Y37966827D01*
X45648870Y37810000D01*
X45633424Y37653173D01*
X45610551Y37577772D01*
X45587679Y37502371D01*
X45513392Y37363392D01*
X45413422Y37241578D01*
X45291608Y37141608D01*
X45152629Y37067321D01*
X45077227Y37044448D01*
X45001827Y37021576D01*
X44985825Y37020000D01*
X44884295Y37010000D01*
X43805705Y37010000D01*
X43704175Y37020000D01*
X43688173Y37021576D01*
X43612773Y37044448D01*
X43537371Y37067321D01*
X43398392Y37141608D01*
X43276578Y37241578D01*
X43176608Y37363392D01*
X43102321Y37502371D01*
X43079449Y37577772D01*
X43056576Y37653173D01*
X43041130Y37810000D01*
X43056576Y37966827D01*
X43079449Y38042228D01*
X43102321Y38117629D01*
X43176608Y38256608D01*
X43276578Y38378422D01*
X43398392Y38478392D01*
X43537371Y38552679D01*
X43612772Y38575551D01*
X43688173Y38598424D01*
X43736401Y38603174D01*
X43805705Y38610000D01*
X44884295Y38610000D01*
X44953599Y38603174D01*
X44953599Y38603174D01*
G37*
G36*
X32945000Y37010000D02*
X30345000Y37010000D01*
X30345000Y38610000D01*
X32945000Y38610000D01*
X32945000Y37010000D01*
X32945000Y37010000D01*
G37*
G36*
X21417649Y39237283D02*
X21456827Y39233424D01*
X21532228Y39210551D01*
X21607629Y39187679D01*
X21746608Y39113392D01*
X21868422Y39013422D01*
X21968392Y38891608D01*
X22042679Y38752629D01*
X22042679Y38752628D01*
X22088424Y38601827D01*
X22103870Y38445000D01*
X22088424Y38288173D01*
X22065551Y38212772D01*
X22042679Y38137371D01*
X21968392Y37998392D01*
X21868422Y37876578D01*
X21746608Y37776608D01*
X21607629Y37702321D01*
X21532227Y37679448D01*
X21456827Y37656576D01*
X21422286Y37653174D01*
X21339295Y37645000D01*
X20360705Y37645000D01*
X20277714Y37653174D01*
X20243173Y37656576D01*
X20167773Y37679448D01*
X20092371Y37702321D01*
X19953392Y37776608D01*
X19831578Y37876578D01*
X19731608Y37998392D01*
X19657321Y38137371D01*
X19634448Y38212773D01*
X19611576Y38288173D01*
X19596130Y38445000D01*
X19611576Y38601827D01*
X19657321Y38752628D01*
X19657321Y38752629D01*
X19731608Y38891608D01*
X19831578Y39013422D01*
X19953392Y39113392D01*
X20092371Y39187679D01*
X20167772Y39210551D01*
X20243173Y39233424D01*
X20282351Y39237283D01*
X20360705Y39245000D01*
X21339295Y39245000D01*
X21417649Y39237283D01*
X21417649Y39237283D01*
G37*
G36*
X14480000Y37645000D02*
X11980000Y37645000D01*
X11980000Y39245000D01*
X14480000Y39245000D01*
X14480000Y37645000D01*
X14480000Y37645000D01*
G37*
G36*
X75253649Y39552283D02*
X75292827Y39548424D01*
X75368228Y39525551D01*
X75443629Y39502679D01*
X75582608Y39428392D01*
X75704422Y39328422D01*
X75804392Y39206608D01*
X75878679Y39067629D01*
X75878679Y39067628D01*
X75924424Y38916827D01*
X75939870Y38760000D01*
X75924424Y38603173D01*
X75924015Y38601826D01*
X75878679Y38452371D01*
X75804392Y38313392D01*
X75704422Y38191578D01*
X75582608Y38091608D01*
X75443629Y38017321D01*
X75368228Y37994449D01*
X75292827Y37971576D01*
X75253649Y37967717D01*
X75175295Y37960000D01*
X74096705Y37960000D01*
X74018351Y37967717D01*
X73979173Y37971576D01*
X73903772Y37994449D01*
X73828371Y38017321D01*
X73689392Y38091608D01*
X73567578Y38191578D01*
X73467608Y38313392D01*
X73393321Y38452371D01*
X73347985Y38601826D01*
X73347576Y38603173D01*
X73332130Y38760000D01*
X73347576Y38916827D01*
X73393321Y39067628D01*
X73393321Y39067629D01*
X73467608Y39206608D01*
X73567578Y39328422D01*
X73689392Y39428392D01*
X73828371Y39502679D01*
X73903772Y39525551D01*
X73979173Y39548424D01*
X74018351Y39552283D01*
X74096705Y39560000D01*
X75175295Y39560000D01*
X75253649Y39552283D01*
X75253649Y39552283D01*
G37*
G36*
X83395891Y42098795D02*
X83548200Y42052593D01*
X83688567Y41977565D01*
X83811597Y41876597D01*
X83912565Y41753567D01*
X83987593Y41613200D01*
X84033795Y41460891D01*
X84050000Y41296360D01*
X84050000Y39433640D01*
X84033795Y39269109D01*
X83987593Y39116800D01*
X83912565Y38976433D01*
X83811597Y38853403D01*
X83688567Y38752435D01*
X83548200Y38677407D01*
X83395891Y38631205D01*
X83231360Y38615000D01*
X81368640Y38615000D01*
X81204109Y38631205D01*
X81051800Y38677407D01*
X80911433Y38752435D01*
X80788403Y38853403D01*
X80687435Y38976433D01*
X80612407Y39116800D01*
X80566205Y39269109D01*
X80550000Y39433640D01*
X80550000Y41296360D01*
X80566205Y41460891D01*
X80612407Y41613200D01*
X80687435Y41753567D01*
X80788403Y41876597D01*
X80911433Y41977565D01*
X81051800Y42052593D01*
X81204109Y42098795D01*
X81368640Y42115000D01*
X83231360Y42115000D01*
X83395891Y42098795D01*
X83395891Y42098795D01*
G37*
G36*
X88196508Y44851197D02*
X88325363Y44812109D01*
X88444119Y44748633D01*
X88548208Y44663208D01*
X88633633Y44559119D01*
X88697109Y44440363D01*
X88736197Y44311508D01*
X88750000Y44171360D01*
X88750000Y42558640D01*
X88736197Y42418492D01*
X88697109Y42289637D01*
X88633633Y42170881D01*
X88548208Y42066792D01*
X88444119Y41981367D01*
X88325363Y41917891D01*
X88196508Y41878803D01*
X88056360Y41865000D01*
X85943640Y41865000D01*
X85803492Y41878803D01*
X85674637Y41917891D01*
X85555881Y41981367D01*
X85451792Y42066792D01*
X85366367Y42170881D01*
X85302891Y42289637D01*
X85263803Y42418492D01*
X85250000Y42558640D01*
X85250000Y44171360D01*
X85263803Y44311508D01*
X85302891Y44440363D01*
X85366367Y44559119D01*
X85451792Y44663208D01*
X85555881Y44748633D01*
X85674637Y44812109D01*
X85803492Y44851197D01*
X85943640Y44865000D01*
X88056360Y44865000D01*
X88196508Y44851197D01*
X88196508Y44851197D01*
G37*
G36*
X96340935Y45461571D02*
X96437534Y45442356D01*
X96710517Y45329283D01*
X96952920Y45167313D01*
X96956197Y45165124D01*
X97165124Y44956197D01*
X97165126Y44956194D01*
X97329283Y44710517D01*
X97442356Y44437534D01*
X97461571Y44340935D01*
X97500000Y44147739D01*
X97500000Y43852261D01*
X97442356Y43562467D01*
X97329284Y43289485D01*
X97165124Y43043803D01*
X96956197Y42834876D01*
X96956194Y42834874D01*
X96710517Y42670717D01*
X96437534Y42557644D01*
X96340935Y42538429D01*
X96147739Y42500000D01*
X95852261Y42500000D01*
X95659065Y42538429D01*
X95562466Y42557644D01*
X95289483Y42670717D01*
X95043806Y42834874D01*
X95043803Y42834876D01*
X94834876Y43043803D01*
X94670716Y43289485D01*
X94557644Y43562467D01*
X94500000Y43852261D01*
X94500000Y44147739D01*
X94538429Y44340935D01*
X94557644Y44437534D01*
X94670717Y44710517D01*
X94834874Y44956194D01*
X94834876Y44956197D01*
X95043803Y45165124D01*
X95047080Y45167313D01*
X95289483Y45329283D01*
X95562466Y45442356D01*
X95659065Y45461571D01*
X95852261Y45500000D01*
X96147739Y45500000D01*
X96340935Y45461571D01*
X96340935Y45461571D01*
G37*
G36*
X4340935Y45461571D02*
X4437534Y45442356D01*
X4710517Y45329283D01*
X4952920Y45167313D01*
X4956197Y45165124D01*
X5165124Y44956197D01*
X5165126Y44956194D01*
X5329283Y44710517D01*
X5442356Y44437534D01*
X5461571Y44340935D01*
X5500000Y44147739D01*
X5500000Y43852261D01*
X5442356Y43562467D01*
X5329284Y43289485D01*
X5165124Y43043803D01*
X4956197Y42834876D01*
X4956194Y42834874D01*
X4710517Y42670717D01*
X4437534Y42557644D01*
X4340935Y42538429D01*
X4147739Y42500000D01*
X3852261Y42500000D01*
X3659065Y42538429D01*
X3562466Y42557644D01*
X3289483Y42670717D01*
X3043806Y42834874D01*
X3043803Y42834876D01*
X2834876Y43043803D01*
X2670716Y43289485D01*
X2557644Y43562467D01*
X2500000Y43852261D01*
X2500000Y44147739D01*
X2538429Y44340935D01*
X2557644Y44437534D01*
X2670717Y44710517D01*
X2834874Y44956194D01*
X2834876Y44956197D01*
X3043803Y45165124D01*
X3047080Y45167313D01*
X3289483Y45329283D01*
X3562466Y45442356D01*
X3659065Y45461571D01*
X3852261Y45500000D01*
X4147739Y45500000D01*
X4340935Y45461571D01*
X4340935Y45461571D01*
G37*
M02*
