M48
;DRILL file {KiCad (5.0.1)-rc2} date 08/26/20 14:00:58
;FORMAT={-:-/ absolute / metric / decimal}
FMAT,2
METRIC,TZ
T1C0.800
T2C1.000
T3C1.016
T4C2.500
T5C2.600
T6C3.000
%
G90
G05
M71
T1
X56.68Y82.515
X56.68Y77.435
X59.22Y79.975
T2
X90.335Y72.355
X90.335Y67.855
X96.835Y72.355
X96.835Y67.855
X9.055Y95.85
X11.595Y95.85
X14.135Y95.85
X16.675Y95.85
X19.215Y95.85
X21.755Y95.85
X24.295Y95.85
X26.835Y95.85
X29.375Y95.85
X31.915Y95.85
X34.455Y95.85
X36.995Y95.85
X39.535Y95.85
X42.075Y95.85
X44.615Y95.85
X47.155Y95.85
X88.Y92.5
X88.Y78.
X90.5Y78.
X93.Y92.5
X93.Y78.
T3
X4.61Y86.96
X4.61Y84.42
X4.61Y81.88
X4.61Y79.34
X4.61Y76.8
X4.61Y74.26
X7.15Y86.96
X7.15Y84.42
X7.15Y81.88
X7.15Y79.34
X7.15Y76.8
X7.15Y74.26
T4
X3.556Y95.85
X3.556Y64.849
X78.554Y64.849
X78.555Y95.85
T5
X84.9Y85.5
X96.1Y85.5
T6
X96.Y60.
X4.Y101.
X4.Y60.
X96.Y101.
T0
M30
